<svg width="275" height="275" viewBox="0 0 275 275" fill="none" xmlns="http://www.w3.org/2000/svg">
<g filter="url(#filter0_d_1930_38)">
<rect width="270" height="270" rx="50" fill="#F9E6E0"/>
<rect x="0.5" y="0.5" width="269" height="269" rx="49.5" stroke="#FFD208"/>
<g filter="url(#filter1_d_1930_38)">
<path d="M98 217H161C166.523 217 171 221.477 171 227V246H108C102.477 246 98 241.523 98 236V217Z" fill="white"/>
<path d="M98.5 217.5H161C166.247 217.5 170.5 221.753 170.5 227V245.5H108C102.753 245.5 98.5 241.247 98.5 236V217.5Z" stroke="#F7CFE5"/>
<path d="M120.219 237C119.995 237 119.785 236.953 119.589 236.86C119.402 236.757 119.309 236.608 119.309 236.412V227.34C119.309 227.144 119.402 226.999 119.589 226.906C119.785 226.813 119.995 226.766 120.219 226.766C120.443 226.766 120.625 226.789 120.765 226.836C120.914 226.883 121.049 226.976 121.171 227.116C121.301 227.247 121.437 227.452 121.577 227.732L124.279 232.954V227.34C124.279 227.135 124.372 226.99 124.559 226.906C124.755 226.813 124.965 226.766 125.189 226.766C125.422 226.766 125.632 226.813 125.819 226.906C126.005 226.99 126.099 227.135 126.099 227.34V236.412C126.099 236.608 126.005 236.757 125.819 236.86C125.632 236.953 125.422 237 125.189 237C124.974 237 124.773 236.958 124.587 236.874C124.409 236.79 124.265 236.641 124.153 236.426L121.129 230.798V236.412C121.129 236.608 121.035 236.757 120.849 236.86C120.662 236.953 120.452 237 120.219 237ZM128.597 237C128.401 237 128.219 236.953 128.051 236.86C127.883 236.757 127.799 236.608 127.799 236.412V227.354C127.799 227.158 127.883 227.013 128.051 226.92C128.219 226.817 128.401 226.766 128.597 226.766H133.581C133.786 226.766 133.931 226.85 134.015 227.018C134.108 227.186 134.155 227.363 134.155 227.55C134.155 227.774 134.104 227.965 134.001 228.124C133.908 228.283 133.768 228.362 133.581 228.362H129.619V231.162H131.747C131.934 231.162 132.074 231.237 132.167 231.386C132.27 231.526 132.321 231.694 132.321 231.89C132.321 232.049 132.274 232.207 132.181 232.366C132.097 232.515 131.952 232.59 131.747 232.59H129.619V235.404H133.581C133.768 235.404 133.908 235.483 134.001 235.642C134.104 235.801 134.155 235.992 134.155 236.216C134.155 236.403 134.108 236.58 134.015 236.748C133.931 236.916 133.786 237 133.581 237H128.597ZM135.755 237.07C135.587 237.07 135.409 237.028 135.223 236.944C135.036 236.86 134.877 236.753 134.747 236.622C134.616 236.482 134.551 236.328 134.551 236.16C134.551 236.057 134.588 235.945 134.663 235.824L137.085 231.876L134.747 227.942C134.663 227.811 134.621 227.681 134.621 227.55C134.621 227.391 134.681 227.247 134.803 227.116C134.924 226.985 135.073 226.883 135.251 226.808C135.437 226.733 135.615 226.696 135.783 226.696C135.932 226.696 136.053 226.733 136.147 226.808C136.249 226.873 136.329 226.967 136.385 227.088L138.289 230.518L140.207 227.088C140.272 226.967 140.351 226.873 140.445 226.808C140.547 226.733 140.669 226.696 140.809 226.696C140.986 226.696 141.163 226.733 141.341 226.808C141.518 226.883 141.667 226.985 141.789 227.116C141.91 227.247 141.971 227.391 141.971 227.55C141.971 227.681 141.929 227.811 141.845 227.942L139.507 231.876L141.929 235.824C142.003 235.945 142.041 236.057 142.041 236.16C142.041 236.328 141.975 236.482 141.845 236.622C141.714 236.753 141.555 236.86 141.369 236.944C141.191 237.028 141.014 237.07 140.837 237.07C140.734 237.07 140.636 237.042 140.543 236.986C140.459 236.93 140.393 236.86 140.347 236.776L138.289 233.178L136.245 236.776C136.198 236.86 136.128 236.93 136.035 236.986C135.951 237.042 135.857 237.07 135.755 237.07ZM145.871 237C145.638 237 145.428 236.953 145.241 236.86C145.054 236.757 144.961 236.608 144.961 236.412V228.404H142.903C142.726 228.404 142.586 228.32 142.483 228.152C142.38 227.984 142.329 227.793 142.329 227.578C142.329 227.382 142.376 227.2 142.469 227.032C142.562 226.855 142.707 226.766 142.903 226.766H148.825C149.03 226.766 149.175 226.855 149.259 227.032C149.352 227.2 149.399 227.382 149.399 227.578C149.399 227.793 149.348 227.984 149.245 228.152C149.152 228.32 149.012 228.404 148.825 228.404H146.781V236.412C146.781 236.608 146.683 236.757 146.487 236.86C146.3 236.953 146.095 237 145.871 237Z" fill="#FF0082"/>
</g>
<path d="M46.4416 81C46.0949 81 45.8149 80.92 45.6016 80.76C45.4016 80.6 45.3016 80.4067 45.3016 80.18V67.2C45.3016 66.9733 45.4016 66.78 45.6016 66.62C45.8149 66.46 46.0949 66.38 46.4416 66.38H49.9816C50.8749 66.38 51.6749 66.5333 52.3816 66.84C53.0882 67.1333 53.6482 67.62 54.0616 68.3C54.4882 68.9667 54.7016 69.86 54.7016 70.98V76.4C54.7016 77.52 54.4882 78.42 54.0616 79.1C53.6482 79.7667 53.0882 80.2533 52.3816 80.56C51.6749 80.8533 50.8749 81 49.9816 81H46.4416ZM47.9016 78.72H49.9816C50.6482 78.72 51.1682 78.5333 51.5416 78.16C51.9149 77.7733 52.1016 77.1867 52.1016 76.4V70.98C52.1016 70.1933 51.9149 69.6133 51.5416 69.24C51.1682 68.8533 50.6549 68.66 50.0016 68.66H47.9016V78.72ZM60.9631 81.18C60.1631 81.18 59.4298 80.9933 58.7631 80.62C58.1098 80.2333 57.5831 79.7333 57.1831 79.12C56.7965 78.4933 56.6031 77.8267 56.6031 77.12V72.32C56.6031 72.12 56.7298 71.9333 56.9831 71.76C57.2498 71.5867 57.5565 71.5 57.9031 71.5C58.2498 71.5 58.5498 71.5867 58.8031 71.76C59.0565 71.9333 59.1831 72.12 59.1831 72.32V77.12C59.1831 77.4267 59.2631 77.7133 59.4231 77.98C59.5831 78.2467 59.7965 78.4733 60.0631 78.66C60.3298 78.8333 60.6231 78.92 60.9431 78.92C61.2765 78.92 61.5698 78.8333 61.8231 78.66C62.0898 78.4867 62.3031 78.26 62.4631 77.98C62.6231 77.7 62.7031 77.4133 62.7031 77.12V72.3C62.7031 72.0867 62.8298 71.9 63.0831 71.74C63.3498 71.58 63.6498 71.5 63.9831 71.5C64.3698 71.5 64.6831 71.58 64.9231 71.74C65.1631 71.9 65.2831 72.0867 65.2831 72.3V77.12C65.2831 77.84 65.0831 78.5133 64.6831 79.14C64.2965 79.7533 63.7698 80.2467 63.1031 80.62C62.4498 80.9933 61.7365 81.18 60.9631 81.18ZM68.4514 81C68.0914 81 67.7914 80.9133 67.5514 80.74C67.3114 80.5667 67.1914 80.3733 67.1914 80.16V72.3C67.1914 72.06 67.3114 71.8667 67.5514 71.72C67.7914 71.5733 68.0914 71.5 68.4514 71.5C68.7847 71.5 69.0581 71.5733 69.2714 71.72C69.4981 71.8667 69.6114 72.06 69.6114 72.3V73.12C69.7581 72.8267 69.9514 72.5533 70.1914 72.3C70.4447 72.0333 70.7314 71.8133 71.0514 71.64C71.3714 71.4667 71.7114 71.38 72.0714 71.38H72.6914C72.9447 71.38 73.1647 71.4933 73.3514 71.72C73.5381 71.9333 73.6314 72.1933 73.6314 72.5C73.6314 72.82 73.5381 73.0933 73.3514 73.32C73.1647 73.5333 72.9447 73.64 72.6914 73.64H72.0714C71.6981 73.64 71.3314 73.7667 70.9714 74.02C70.6247 74.26 70.3381 74.6 70.1114 75.04C69.8847 75.4667 69.7714 75.9867 69.7714 76.6V80.16C69.7714 80.3733 69.6447 80.5667 69.3914 80.74C69.1381 80.9133 68.8247 81 68.4514 81ZM75.9714 69.38C75.5847 69.38 75.2514 69.2533 74.9714 69C74.6914 68.7333 74.5514 68.44 74.5514 68.12C74.5514 67.7733 74.6914 67.48 74.9714 67.24C75.2514 66.9867 75.5847 66.86 75.9714 66.86C76.3714 66.86 76.7047 66.9867 76.9714 67.24C77.2381 67.48 77.3714 67.7733 77.3714 68.12C77.3714 68.44 77.2381 68.7333 76.9714 69C76.7047 69.2533 76.3714 69.38 75.9714 69.38ZM75.9714 81C75.5981 81 75.2914 80.9133 75.0514 80.74C74.8114 80.5667 74.6914 80.3733 74.6914 80.16V72.3C74.6914 72.06 74.8114 71.8667 75.0514 71.72C75.2914 71.5733 75.5981 71.5 75.9714 71.5C76.3314 71.5 76.6381 71.5733 76.8914 71.72C77.1447 71.8667 77.2714 72.06 77.2714 72.3V80.16C77.2714 80.3733 77.1447 80.5667 76.8914 80.74C76.6381 80.9133 76.3314 81 75.9714 81ZM80.5222 81C80.1489 81 79.8422 80.9133 79.6022 80.74C79.3622 80.5667 79.2422 80.3733 79.2422 80.16V72.3C79.2422 72.06 79.3622 71.8667 79.6022 71.72C79.8422 71.5733 80.1489 71.5 80.5222 71.5C80.8422 71.5 81.1089 71.5733 81.3222 71.72C81.5489 71.8667 81.6622 72.06 81.6622 72.3V72.9C81.8622 72.5133 82.1889 72.1667 82.6422 71.86C83.1089 71.54 83.6755 71.38 84.3422 71.38C84.9689 71.38 85.5422 71.5667 86.0622 71.94C86.5822 72.3 86.9955 72.7867 87.3022 73.4C87.6222 74.0133 87.7822 74.6933 87.7822 75.44V80.16C87.7822 80.44 87.6489 80.6533 87.3822 80.8C87.1155 80.9333 86.8155 81 86.4822 81C86.1889 81 85.9022 80.9333 85.6222 80.8C85.3422 80.6533 85.2022 80.44 85.2022 80.16V75.44C85.2022 75.1333 85.1222 74.8467 84.9622 74.58C84.8155 74.3133 84.6089 74.0933 84.3422 73.92C84.0755 73.7333 83.7822 73.64 83.4622 73.64C83.1955 73.64 82.9355 73.7133 82.6822 73.86C82.4289 74.0067 82.2222 74.2133 82.0622 74.48C81.9022 74.7467 81.8222 75.0667 81.8222 75.44V80.16C81.8222 80.3733 81.6955 80.5667 81.4422 80.74C81.1889 80.9133 80.8822 81 80.5222 81ZM93.4509 85.42C92.6643 85.42 91.9309 85.3067 91.2509 85.08C90.5843 84.8667 90.0443 84.5467 89.6309 84.12C89.2309 83.6933 89.0309 83.1867 89.0309 82.6C89.0309 82.0933 89.1709 81.66 89.4509 81.3C89.7309 80.9533 90.0776 80.68 90.4909 80.48C90.2376 80.36 90.0309 80.2 89.8709 80C89.7243 79.7867 89.6509 79.52 89.6509 79.2C89.6509 78.8267 89.7443 78.5267 89.9309 78.3C90.1309 78.06 90.3776 77.84 90.6709 77.64C90.2709 77.3333 89.9576 76.9667 89.7309 76.54C89.5176 76.1 89.4109 75.62 89.4109 75.1V74.68C89.4109 74.0267 89.5709 73.4533 89.8909 72.96C90.2243 72.4667 90.6843 72.08 91.2709 71.8C91.8709 71.52 92.5576 71.38 93.3309 71.38C93.7709 71.38 94.1843 71.4333 94.5709 71.54C94.9576 71.6333 95.3043 71.7733 95.6109 71.96C95.8376 71.4267 96.0509 71.0667 96.2509 70.88C96.4509 70.6933 96.6443 70.6 96.8309 70.6C97.1509 70.6 97.3976 70.6933 97.5709 70.88C97.7576 71.0667 97.8509 71.24 97.8509 71.4C97.8509 71.52 97.8176 71.6267 97.7509 71.72C97.6976 71.8133 97.6243 71.8933 97.5309 71.96C97.3976 72.04 97.2443 72.14 97.0709 72.26C96.8976 72.3667 96.7376 72.52 96.5909 72.72C96.8309 72.9867 97.0043 73.2867 97.1109 73.62C97.2309 73.94 97.2909 74.2933 97.2909 74.68V75.1C97.2909 75.74 97.1243 76.3133 96.7909 76.82C96.4576 77.3133 95.9909 77.7067 95.3909 78C94.7909 78.2933 94.1043 78.44 93.3309 78.44C92.8509 78.44 92.4176 78.38 92.0309 78.26C91.9643 78.3133 91.9043 78.3733 91.8509 78.44C91.8109 78.5067 91.7909 78.58 91.7909 78.66C91.7909 78.8867 91.9376 79.0467 92.2309 79.14C92.5243 79.2333 92.8976 79.3067 93.3509 79.36C93.8043 79.4133 94.2843 79.4867 94.7909 79.58C95.3109 79.66 95.7976 79.7933 96.2509 79.98C96.7043 80.1667 97.0776 80.4467 97.3709 80.82C97.6643 81.18 97.8109 81.6667 97.8109 82.28C97.8109 83.0267 97.5976 83.6267 97.1709 84.08C96.7576 84.5467 96.2176 84.8867 95.5509 85.1C94.8976 85.3133 94.1976 85.42 93.4509 85.42ZM93.4109 83.76C93.9309 83.76 94.3709 83.6333 94.7309 83.38C95.1043 83.1267 95.2909 82.7867 95.2909 82.36C95.2909 82.08 95.2109 81.8533 95.0509 81.68C94.8909 81.5067 94.6709 81.3733 94.3909 81.28C94.1243 81.2 93.8309 81.1333 93.5109 81.08C93.1909 81.04 92.8709 81 92.5509 80.96C92.2309 81.1067 91.9709 81.2933 91.7709 81.52C91.5709 81.7467 91.4709 82.02 91.4709 82.34C91.4709 82.78 91.6576 83.1267 92.0309 83.38C92.4176 83.6333 92.8776 83.76 93.4109 83.76ZM93.3709 76.88C93.8109 76.88 94.1576 76.7133 94.4109 76.38C94.6643 76.0467 94.7909 75.62 94.7909 75.1V74.68C94.7909 74.1867 94.6643 73.7733 94.4109 73.44C94.1709 73.1067 93.8176 72.94 93.3509 72.94C92.8976 72.94 92.5443 73.1067 92.2909 73.44C92.0509 73.7733 91.9309 74.1867 91.9309 74.68V75.08C91.9309 75.5867 92.0509 76.0133 92.2909 76.36C92.5443 76.7067 92.9043 76.88 93.3709 76.88ZM106.789 81C105.589 81 104.669 80.74 104.029 80.22C103.402 79.7 103.089 78.8733 103.089 77.74V68.06C103.089 67.82 103.229 67.6267 103.509 67.48C103.789 67.3333 104.076 67.26 104.369 67.26C104.689 67.26 104.982 67.3333 105.249 67.48C105.529 67.6267 105.669 67.82 105.669 68.06V71.5H108.029C108.242 71.5 108.402 71.6 108.509 71.8C108.629 71.9867 108.689 72.2 108.689 72.44C108.689 72.68 108.629 72.9 108.509 73.1C108.402 73.2867 108.242 73.38 108.029 73.38H105.669V77.74C105.669 78.14 105.749 78.42 105.909 78.58C106.082 78.74 106.376 78.82 106.789 78.82H107.569C107.942 78.82 108.216 78.9333 108.389 79.16C108.576 79.3867 108.669 79.6333 108.669 79.9C108.669 80.18 108.576 80.4333 108.389 80.66C108.216 80.8867 107.942 81 107.569 81H106.789ZM111.304 81C110.931 81 110.624 80.9133 110.384 80.74C110.144 80.5667 110.024 80.3733 110.024 80.16V66.76C110.024 66.52 110.144 66.3267 110.384 66.18C110.624 66.0333 110.931 65.96 111.304 65.96C111.664 65.96 111.971 66.0333 112.224 66.18C112.477 66.3267 112.604 66.52 112.604 66.76V72.9C112.804 72.5133 113.117 72.1667 113.544 71.86C113.971 71.54 114.497 71.38 115.124 71.38C115.751 71.38 116.324 71.5667 116.844 71.94C117.364 72.3 117.777 72.7867 118.084 73.4C118.404 74.0133 118.564 74.6933 118.564 75.44V80.16C118.564 80.44 118.431 80.6533 118.164 80.8C117.897 80.9333 117.597 81 117.264 81C116.971 81 116.684 80.9333 116.404 80.8C116.124 80.6533 115.984 80.44 115.984 80.16V75.44C115.984 75.1333 115.904 74.8467 115.744 74.58C115.584 74.3133 115.371 74.0933 115.104 73.92C114.851 73.7333 114.564 73.64 114.244 73.64C113.977 73.64 113.717 73.7133 113.464 73.86C113.211 74.0067 113.004 74.2133 112.844 74.48C112.684 74.7467 112.604 75.0667 112.604 75.44V80.16C112.604 80.3733 112.477 80.5667 112.224 80.74C111.971 80.9133 111.664 81 111.304 81ZM124.972 81.18C124.026 81.18 123.186 81.0133 122.452 80.68C121.732 80.3333 121.166 79.8533 120.752 79.24C120.339 78.6133 120.132 77.8933 120.132 77.08V75.38C120.132 74.66 120.326 74 120.712 73.4C121.112 72.7867 121.639 72.3 122.292 71.94C122.959 71.5667 123.699 71.38 124.512 71.38C125.259 71.38 125.939 71.54 126.552 71.86C127.179 72.18 127.686 72.62 128.072 73.18C128.459 73.74 128.652 74.3933 128.652 75.14C128.652 75.7133 128.559 76.1267 128.372 76.38C128.186 76.62 127.946 76.7733 127.652 76.84C127.372 76.8933 127.079 76.92 126.772 76.92H122.712V77.22C122.712 77.7933 122.926 78.26 123.352 78.62C123.792 78.9667 124.359 79.14 125.052 79.14C125.492 79.14 125.859 79.0733 126.152 78.94C126.446 78.8067 126.699 78.68 126.912 78.56C127.126 78.44 127.326 78.38 127.512 78.38C127.712 78.38 127.886 78.4467 128.032 78.58C128.179 78.7133 128.292 78.8733 128.372 79.06C128.452 79.2333 128.492 79.3867 128.492 79.52C128.492 79.7467 128.346 79.9933 128.052 80.26C127.772 80.5133 127.366 80.7333 126.832 80.92C126.312 81.0933 125.692 81.18 124.972 81.18ZM122.712 75.4H125.632C125.859 75.4 126.012 75.3667 126.092 75.3C126.186 75.22 126.232 75.0733 126.232 74.86C126.232 74.5533 126.146 74.28 125.972 74.04C125.812 73.8 125.599 73.6133 125.332 73.48C125.079 73.3467 124.792 73.28 124.472 73.28C124.166 73.28 123.879 73.3467 123.612 73.48C123.346 73.6 123.126 73.78 122.952 74.02C122.792 74.2467 122.712 74.52 122.712 74.84V75.4ZM137.503 81.22C137.276 81.22 137.07 81.1867 136.883 81.12C136.696 81.0533 136.57 80.9267 136.503 80.74L133.403 72.84C133.376 72.7467 133.356 72.6733 133.343 72.62C133.33 72.5533 133.323 72.5 133.323 72.46C133.323 72.2467 133.41 72.0667 133.583 71.92C133.77 71.76 133.996 71.6333 134.263 71.54C134.53 71.4467 134.77 71.4 134.983 71.4C135.156 71.4 135.31 71.4333 135.443 71.5C135.59 71.5667 135.69 71.6733 135.743 71.82L137.743 77.5L139.243 72.56C139.31 72.3333 139.423 72.1933 139.583 72.14C139.743 72.0733 139.923 72.04 140.123 72.04C140.323 72.04 140.503 72.0733 140.663 72.14C140.823 72.1933 140.936 72.3333 141.003 72.56L142.483 77.52L144.503 71.82C144.596 71.54 144.836 71.4 145.223 71.4C145.436 71.4 145.676 71.4467 145.943 71.54C146.21 71.6333 146.436 71.76 146.623 71.92C146.81 72.08 146.903 72.2667 146.903 72.48C146.903 72.5333 146.896 72.5933 146.883 72.66C146.87 72.7267 146.85 72.7867 146.823 72.84L143.723 80.76C143.656 80.9333 143.53 81.0533 143.343 81.12C143.156 81.1867 142.95 81.22 142.723 81.22C142.483 81.22 142.263 81.18 142.063 81.1C141.863 81.02 141.73 80.9067 141.663 80.76L140.123 76.4L138.583 80.74C138.543 80.9 138.416 81.02 138.203 81.1C137.99 81.18 137.756 81.22 137.503 81.22ZM150.091 81.18C149.384 81.18 148.771 80.9667 148.251 80.54C147.744 80.1 147.491 79.4267 147.491 78.52C147.491 77.76 147.684 77.1667 148.071 76.74C148.471 76.3133 149.017 76.0133 149.711 75.84C150.417 75.6667 151.231 75.58 152.151 75.58H152.971V75.32C152.971 75.0267 152.911 74.74 152.791 74.46C152.684 74.18 152.504 73.9467 152.251 73.76C152.011 73.5733 151.664 73.48 151.211 73.48C150.704 73.48 150.311 73.5333 150.031 73.64C149.764 73.7333 149.557 73.8333 149.411 73.94C149.264 74.0467 149.104 74.1 148.931 74.1C148.651 74.1 148.431 73.96 148.271 73.68C148.124 73.4 148.051 73.1133 148.051 72.82C148.051 72.54 148.217 72.2933 148.551 72.08C148.897 71.8533 149.317 71.68 149.811 71.56C150.304 71.44 150.784 71.38 151.251 71.38C152.291 71.38 153.124 71.5667 153.751 71.94C154.377 72.3133 154.831 72.7933 155.111 73.38C155.404 73.9667 155.551 74.6 155.551 75.28V80.16C155.551 80.4 155.431 80.6 155.191 80.76C154.951 80.92 154.651 81 154.291 81C153.957 81 153.677 80.92 153.451 80.76C153.237 80.6 153.131 80.4 153.131 80.16V79.6C152.771 80.0133 152.344 80.38 151.851 80.7C151.371 81.02 150.784 81.18 150.091 81.18ZM151.131 79.26C151.411 79.26 151.691 79.1667 151.971 78.98C152.251 78.7933 152.484 78.5533 152.671 78.26C152.871 77.9667 152.971 77.66 152.971 77.34V76.92H152.671C152.231 76.92 151.811 76.9467 151.411 77C151.011 77.0533 150.684 77.1733 150.431 77.36C150.191 77.5333 150.071 77.8067 150.071 78.18C150.071 78.5533 150.171 78.8267 150.371 79C150.584 79.1733 150.837 79.26 151.131 79.26ZM158.725 81C158.365 81 158.065 80.9133 157.825 80.74C157.585 80.5667 157.465 80.3733 157.465 80.16V72.3C157.465 72.06 157.585 71.8667 157.825 71.72C158.065 71.5733 158.365 71.5 158.725 71.5C159.058 71.5 159.332 71.5733 159.545 71.72C159.772 71.8667 159.885 72.06 159.885 72.3V73.12C160.032 72.8267 160.225 72.5533 160.465 72.3C160.718 72.0333 161.005 71.8133 161.325 71.64C161.645 71.4667 161.985 71.38 162.345 71.38H162.965C163.218 71.38 163.438 71.4933 163.625 71.72C163.812 71.9333 163.905 72.1933 163.905 72.5C163.905 72.82 163.812 73.0933 163.625 73.32C163.438 73.5333 163.218 73.64 162.965 73.64H162.345C161.972 73.64 161.605 73.7667 161.245 74.02C160.898 74.26 160.612 74.6 160.385 75.04C160.158 75.4667 160.045 75.9867 160.045 76.6V80.16C160.045 80.3733 159.918 80.5667 159.665 80.74C159.412 80.9133 159.098 81 158.725 81ZM164.647 83C164.461 83 164.267 82.94 164.067 82.82C163.881 82.7133 163.787 82.5467 163.787 82.32C163.787 82.2267 163.807 82.1333 163.847 82.04L164.327 80.98C164.101 80.8467 163.921 80.68 163.787 80.48C163.654 80.2667 163.587 80.0267 163.587 79.76C163.587 79.3867 163.714 79.0667 163.967 78.8C164.234 78.5333 164.554 78.4 164.927 78.4C165.301 78.4 165.621 78.5333 165.887 78.8C166.154 79.0533 166.287 79.3667 166.287 79.74C166.287 79.7933 166.274 79.8667 166.247 79.96C166.234 80.04 166.194 80.1733 166.127 80.36C166.061 80.5467 165.947 80.82 165.787 81.18C165.641 81.5533 165.441 82.0467 165.187 82.66C165.134 82.78 165.054 82.8667 164.947 82.92C164.841 82.9733 164.741 83 164.647 83ZM173.139 85.42C172.779 85.42 172.479 85.3333 172.239 85.16C171.999 84.9867 171.879 84.8 171.879 84.6V72.3C171.879 72.06 171.999 71.8667 172.239 71.72C172.479 71.5733 172.773 71.5 173.119 71.5C173.466 71.5 173.746 71.5733 173.959 71.72C174.186 71.8667 174.299 72.06 174.299 72.3V72.9C174.526 72.5133 174.873 72.1667 175.339 71.86C175.806 71.54 176.359 71.38 176.999 71.38C177.679 71.38 178.286 71.5667 178.819 71.94C179.366 72.3 179.793 72.7867 180.099 73.4C180.419 74.0133 180.579 74.6933 180.579 75.44V77.08C180.579 77.7867 180.419 78.4533 180.099 79.08C179.779 79.7067 179.353 80.2133 178.819 80.6C178.299 80.9867 177.719 81.18 177.079 81.18C176.493 81.18 175.959 81.02 175.479 80.7C174.999 80.38 174.659 80.0133 174.459 79.6V84.6C174.459 84.8 174.333 84.9867 174.079 85.16C173.826 85.3333 173.513 85.42 173.139 85.42ZM176.239 78.92C176.559 78.92 176.846 78.8333 177.099 78.66C177.366 78.4733 177.579 78.24 177.739 77.96C177.913 77.68 177.999 77.3867 177.999 77.08V75.44C177.999 75.1333 177.919 74.8467 177.759 74.58C177.599 74.3133 177.379 74.0933 177.099 73.92C176.833 73.7333 176.533 73.64 176.199 73.64C175.906 73.64 175.626 73.7133 175.359 73.86C175.106 74.0067 174.893 74.2133 174.719 74.48C174.546 74.7467 174.459 75.0667 174.459 75.44V77.44C174.459 77.5733 174.533 77.76 174.679 78C174.839 78.2267 175.053 78.44 175.319 78.64C175.586 78.8267 175.893 78.92 176.239 78.92ZM186.71 81.18C185.764 81.18 184.924 81.0133 184.19 80.68C183.47 80.3333 182.904 79.8533 182.49 79.24C182.077 78.6133 181.87 77.8933 181.87 77.08V75.38C181.87 74.66 182.064 74 182.45 73.4C182.85 72.7867 183.377 72.3 184.03 71.94C184.697 71.5667 185.437 71.38 186.25 71.38C186.997 71.38 187.677 71.54 188.29 71.86C188.917 72.18 189.424 72.62 189.81 73.18C190.197 73.74 190.39 74.3933 190.39 75.14C190.39 75.7133 190.297 76.1267 190.11 76.38C189.924 76.62 189.684 76.7733 189.39 76.84C189.11 76.8933 188.817 76.92 188.51 76.92H184.45V77.22C184.45 77.7933 184.664 78.26 185.09 78.62C185.53 78.9667 186.097 79.14 186.79 79.14C187.23 79.14 187.597 79.0733 187.89 78.94C188.184 78.8067 188.437 78.68 188.65 78.56C188.864 78.44 189.064 78.38 189.25 78.38C189.45 78.38 189.624 78.4467 189.77 78.58C189.917 78.7133 190.03 78.8733 190.11 79.06C190.19 79.2333 190.23 79.3867 190.23 79.52C190.23 79.7467 190.084 79.9933 189.79 80.26C189.51 80.5133 189.104 80.7333 188.57 80.92C188.05 81.0933 187.43 81.18 186.71 81.18ZM184.45 75.4H187.37C187.597 75.4 187.75 75.3667 187.83 75.3C187.924 75.22 187.97 75.0733 187.97 74.86C187.97 74.5533 187.884 74.28 187.71 74.04C187.55 73.8 187.337 73.6133 187.07 73.48C186.817 73.3467 186.53 73.28 186.21 73.28C185.904 73.28 185.617 73.3467 185.35 73.48C185.084 73.6 184.864 73.78 184.69 74.02C184.53 74.2467 184.45 74.52 184.45 74.84V75.4ZM195.898 81.18C195.124 81.18 194.411 80.9933 193.758 80.62C193.104 80.2333 192.578 79.7267 192.178 79.1C191.778 78.4733 191.578 77.8 191.578 77.08V75.44C191.578 74.72 191.771 74.0533 192.158 73.44C192.544 72.8133 193.064 72.3133 193.718 71.94C194.384 71.5667 195.111 71.38 195.898 71.38C196.684 71.38 197.404 71.5667 198.058 71.94C198.724 72.3 199.251 72.7867 199.638 73.4C200.038 74.0133 200.238 74.6933 200.238 75.44V77.08C200.238 77.7867 200.038 78.4533 199.638 79.08C199.238 79.7067 198.704 80.2133 198.038 80.6C197.384 80.9867 196.671 81.18 195.898 81.18ZM195.898 78.92C196.218 78.92 196.511 78.8333 196.778 78.66C197.044 78.4867 197.258 78.26 197.418 77.98C197.578 77.6867 197.658 77.3867 197.658 77.08V75.44C197.658 75.1333 197.578 74.8467 197.418 74.58C197.258 74.3133 197.044 74.0933 196.778 73.92C196.524 73.7333 196.231 73.64 195.898 73.64C195.578 73.64 195.284 73.7267 195.018 73.9C194.751 74.0733 194.538 74.3 194.378 74.58C194.231 74.8467 194.158 75.1333 194.158 75.44V77.08C194.158 77.3867 194.231 77.6867 194.378 77.98C194.538 78.26 194.751 78.4867 195.018 78.66C195.284 78.8333 195.578 78.92 195.898 78.92ZM203.159 85.42C202.799 85.42 202.499 85.3333 202.259 85.16C202.019 84.9867 201.899 84.8 201.899 84.6V72.3C201.899 72.06 202.019 71.8667 202.259 71.72C202.499 71.5733 202.792 71.5 203.139 71.5C203.486 71.5 203.766 71.5733 203.979 71.72C204.206 71.8667 204.319 72.06 204.319 72.3V72.9C204.546 72.5133 204.892 72.1667 205.359 71.86C205.826 71.54 206.379 71.38 207.019 71.38C207.699 71.38 208.306 71.5667 208.839 71.94C209.386 72.3 209.812 72.7867 210.119 73.4C210.439 74.0133 210.599 74.6933 210.599 75.44V77.08C210.599 77.7867 210.439 78.4533 210.119 79.08C209.799 79.7067 209.372 80.2133 208.839 80.6C208.319 80.9867 207.739 81.18 207.099 81.18C206.512 81.18 205.979 81.02 205.499 80.7C205.019 80.38 204.679 80.0133 204.479 79.6V84.6C204.479 84.8 204.352 84.9867 204.099 85.16C203.846 85.3333 203.532 85.42 203.159 85.42ZM206.259 78.92C206.579 78.92 206.866 78.8333 207.119 78.66C207.386 78.4733 207.599 78.24 207.759 77.96C207.932 77.68 208.019 77.3867 208.019 77.08V75.44C208.019 75.1333 207.939 74.8467 207.779 74.58C207.619 74.3133 207.399 74.0933 207.119 73.92C206.852 73.7333 206.552 73.64 206.219 73.64C205.926 73.64 205.646 73.7133 205.379 73.86C205.126 74.0067 204.912 74.2133 204.739 74.48C204.566 74.7467 204.479 75.0667 204.479 75.44V77.44C204.479 77.5733 204.552 77.76 204.699 78C204.859 78.2267 205.072 78.44 205.339 78.64C205.606 78.8267 205.912 78.92 206.259 78.92ZM213.71 81C213.337 81 213.03 80.9133 212.79 80.74C212.55 80.5667 212.43 80.3733 212.43 80.16V66.76C212.43 66.52 212.55 66.3267 212.79 66.18C213.03 66.0333 213.337 65.96 213.71 65.96C214.07 65.96 214.377 66.0333 214.63 66.18C214.883 66.3267 215.01 66.52 215.01 66.76V80.16C215.01 80.3733 214.883 80.5667 214.63 80.74C214.377 80.9133 214.07 81 213.71 81ZM221.671 81.18C220.725 81.18 219.885 81.0133 219.151 80.68C218.431 80.3333 217.865 79.8533 217.451 79.24C217.038 78.6133 216.831 77.8933 216.831 77.08V75.38C216.831 74.66 217.025 74 217.411 73.4C217.811 72.7867 218.338 72.3 218.991 71.94C219.658 71.5667 220.398 71.38 221.211 71.38C221.958 71.38 222.638 71.54 223.251 71.86C223.878 72.18 224.385 72.62 224.771 73.18C225.158 73.74 225.351 74.3933 225.351 75.14C225.351 75.7133 225.258 76.1267 225.071 76.38C224.885 76.62 224.645 76.7733 224.351 76.84C224.071 76.8933 223.778 76.92 223.471 76.92H219.411V77.22C219.411 77.7933 219.625 78.26 220.051 78.62C220.491 78.9667 221.058 79.14 221.751 79.14C222.191 79.14 222.558 79.0733 222.851 78.94C223.145 78.8067 223.398 78.68 223.611 78.56C223.825 78.44 224.025 78.38 224.211 78.38C224.411 78.38 224.585 78.4467 224.731 78.58C224.878 78.7133 224.991 78.8733 225.071 79.06C225.151 79.2333 225.191 79.3867 225.191 79.52C225.191 79.7467 225.045 79.9933 224.751 80.26C224.471 80.5133 224.065 80.7333 223.531 80.92C223.011 81.0933 222.391 81.18 221.671 81.18ZM219.411 75.4H222.331C222.558 75.4 222.711 75.3667 222.791 75.3C222.885 75.22 222.931 75.0733 222.931 74.86C222.931 74.5533 222.845 74.28 222.671 74.04C222.511 73.8 222.298 73.6133 222.031 73.48C221.778 73.3467 221.491 73.28 221.171 73.28C220.865 73.28 220.578 73.3467 220.311 73.48C220.045 73.6 219.825 73.78 219.651 74.02C219.491 74.2467 219.411 74.52 219.411 74.84V75.4ZM35.3855 108C35.0255 108 34.7255 107.927 34.4855 107.78C34.2455 107.62 34.1255 107.42 34.1255 107.18V96.88C34.1255 96.1333 34.2855 95.4667 34.6055 94.88C34.9255 94.28 35.3521 93.8133 35.8855 93.48C36.4188 93.1333 37.0055 92.96 37.6455 92.96H38.8255C39.1455 92.96 39.3855 93.0733 39.5455 93.3C39.7188 93.5267 39.8055 93.7733 39.8055 94.04C39.8055 94.3333 39.7188 94.5933 39.5455 94.82C39.3855 95.0333 39.1455 95.14 38.8255 95.14H38.1855C37.9055 95.14 37.6521 95.2 37.4255 95.32C37.1988 95.44 37.0188 95.6067 36.8855 95.82C36.7655 96.0333 36.7055 96.2933 36.7055 96.6V98.5H39.1455C39.3588 98.5 39.5188 98.6 39.6255 98.8C39.7455 98.9867 39.8055 99.2 39.8055 99.44C39.8055 99.68 39.7455 99.9 39.6255 100.1C39.5188 100.287 39.3588 100.38 39.1455 100.38H36.7055V107.18C36.7055 107.42 36.5721 107.62 36.3055 107.78C36.0521 107.927 35.7455 108 35.3855 108ZM42.8447 108.18C42.138 108.18 41.5247 107.967 41.0047 107.54C40.498 107.1 40.2447 106.427 40.2447 105.52C40.2447 104.76 40.438 104.167 40.8247 103.74C41.2247 103.313 41.7714 103.013 42.4647 102.84C43.1714 102.667 43.9847 102.58 44.9047 102.58H45.7247V102.32C45.7247 102.027 45.6647 101.74 45.5447 101.46C45.438 101.18 45.258 100.947 45.0047 100.76C44.7647 100.573 44.418 100.48 43.9647 100.48C43.458 100.48 43.0647 100.533 42.7847 100.64C42.518 100.733 42.3114 100.833 42.1647 100.94C42.018 101.047 41.858 101.1 41.6847 101.1C41.4047 101.1 41.1847 100.96 41.0247 100.68C40.878 100.4 40.8047 100.113 40.8047 99.82C40.8047 99.54 40.9714 99.2933 41.3047 99.08C41.6514 98.8533 42.0714 98.68 42.5647 98.56C43.058 98.44 43.538 98.38 44.0047 98.38C45.0447 98.38 45.878 98.5667 46.5047 98.94C47.1314 99.3133 47.5847 99.7933 47.8647 100.38C48.158 100.967 48.3047 101.6 48.3047 102.28V107.16C48.3047 107.4 48.1847 107.6 47.9447 107.76C47.7047 107.92 47.4047 108 47.0447 108C46.7114 108 46.4314 107.92 46.2047 107.76C45.9914 107.6 45.8847 107.4 45.8847 107.16V106.6C45.5247 107.013 45.098 107.38 44.6047 107.7C44.1247 108.02 43.538 108.18 42.8447 108.18ZM43.8847 106.26C44.1647 106.26 44.4447 106.167 44.7247 105.98C45.0047 105.793 45.238 105.553 45.4247 105.26C45.6247 104.967 45.7247 104.66 45.7247 104.34V103.92H45.4247C44.9847 103.92 44.5647 103.947 44.1647 104C43.7647 104.053 43.438 104.173 43.1847 104.36C42.9447 104.533 42.8247 104.807 42.8247 105.18C42.8247 105.553 42.9247 105.827 43.1247 106C43.338 106.173 43.5914 106.26 43.8847 106.26ZM54.2388 108.18C53.2254 108.18 52.3988 108 51.7588 107.64C51.1188 107.28 50.6454 106.793 50.3388 106.18C50.0321 105.553 49.8787 104.853 49.8787 104.08V102.48C49.8787 101.707 50.0254 101.013 50.3188 100.4C50.6254 99.7733 51.0988 99.28 51.7388 98.92C52.3921 98.56 53.2121 98.38 54.1988 98.38C54.8254 98.38 55.3788 98.4533 55.8588 98.6C56.3388 98.7467 56.7188 98.94 56.9988 99.18C57.2788 99.42 57.4188 99.6733 57.4188 99.94C57.4188 100.1 57.3721 100.28 57.2788 100.48C57.1988 100.667 57.0788 100.833 56.9188 100.98C56.7721 101.127 56.5988 101.2 56.3988 101.2C56.2521 101.2 56.0988 101.153 55.9388 101.06C55.7921 100.967 55.5988 100.873 55.3588 100.78C55.1188 100.687 54.7988 100.64 54.3988 100.64C53.7188 100.64 53.2254 100.807 52.9188 101.14C52.6121 101.46 52.4588 101.907 52.4588 102.48V104.08C52.4588 104.653 52.6121 105.107 52.9188 105.44C53.2254 105.76 53.7254 105.92 54.4188 105.92C54.8321 105.92 55.1521 105.867 55.3788 105.76C55.6054 105.653 55.7921 105.553 55.9388 105.46C56.0988 105.367 56.2588 105.32 56.4188 105.32C56.6588 105.32 56.8588 105.387 57.0188 105.52C57.1921 105.653 57.3188 105.82 57.3988 106.02C57.4921 106.207 57.5388 106.38 57.5388 106.54C57.5388 106.807 57.3921 107.067 57.0988 107.32C56.8188 107.573 56.4254 107.78 55.9188 107.94C55.4254 108.1 54.8654 108.18 54.2388 108.18ZM63.2534 108.18C62.3068 108.18 61.4668 108.013 60.7334 107.68C60.0134 107.333 59.4468 106.853 59.0334 106.24C58.6201 105.613 58.4134 104.893 58.4134 104.08V102.38C58.4134 101.66 58.6068 101 58.9934 100.4C59.3934 99.7867 59.9201 99.3 60.5734 98.94C61.2401 98.5667 61.9801 98.38 62.7934 98.38C63.5401 98.38 64.2201 98.54 64.8334 98.86C65.4601 99.18 65.9668 99.62 66.3534 100.18C66.7401 100.74 66.9334 101.393 66.9334 102.14C66.9334 102.713 66.8401 103.127 66.6534 103.38C66.4668 103.62 66.2268 103.773 65.9334 103.84C65.6534 103.893 65.3601 103.92 65.0534 103.92H60.9934V104.22C60.9934 104.793 61.2068 105.26 61.6334 105.62C62.0734 105.967 62.6401 106.14 63.3334 106.14C63.7734 106.14 64.1401 106.073 64.4334 105.94C64.7268 105.807 64.9801 105.68 65.1934 105.56C65.4068 105.44 65.6068 105.38 65.7934 105.38C65.9934 105.38 66.1668 105.447 66.3134 105.58C66.4601 105.713 66.5734 105.873 66.6534 106.06C66.7334 106.233 66.7734 106.387 66.7734 106.52C66.7734 106.747 66.6268 106.993 66.3334 107.26C66.0534 107.513 65.6468 107.733 65.1134 107.92C64.5934 108.093 63.9734 108.18 63.2534 108.18ZM60.9934 102.4H63.9134C64.1401 102.4 64.2934 102.367 64.3734 102.3C64.4668 102.22 64.5134 102.073 64.5134 101.86C64.5134 101.553 64.4268 101.28 64.2534 101.04C64.0934 100.8 63.8801 100.613 63.6134 100.48C63.3601 100.347 63.0734 100.28 62.7534 100.28C62.4468 100.28 62.1601 100.347 61.8934 100.48C61.6268 100.6 61.4068 100.78 61.2334 101.02C61.0734 101.247 60.9934 101.52 60.9934 101.84V102.4ZM71.6405 108.18C71.0138 108.18 70.4338 107.987 69.9005 107.6C69.3671 107.213 68.9405 106.707 68.6205 106.08C68.3005 105.453 68.1405 104.787 68.1405 104.08V102.44C68.1405 101.693 68.3005 101.013 68.6205 100.4C68.9405 99.7867 69.3671 99.3 69.9005 98.94C70.4338 98.5667 71.0271 98.38 71.6805 98.38C72.3071 98.38 72.8405 98.54 73.2805 98.86C73.7205 99.1667 74.0471 99.5133 74.2605 99.9V93.76C74.2605 93.52 74.3871 93.3267 74.6405 93.18C74.8938 93.0333 75.2071 92.96 75.5805 92.96C75.9405 92.96 76.2405 93.0333 76.4805 93.18C76.7205 93.3267 76.8405 93.52 76.8405 93.76V107.16C76.8405 107.373 76.7205 107.567 76.4805 107.74C76.2405 107.913 75.9405 108 75.5805 108C75.2605 108 74.9871 107.913 74.7605 107.74C74.5338 107.567 74.4205 107.373 74.4205 107.16V106.6C74.2205 107.013 73.8605 107.38 73.3405 107.7C72.8338 108.02 72.2671 108.18 71.6405 108.18ZM72.4605 105.92C72.8071 105.92 73.1138 105.827 73.3805 105.64C73.6471 105.44 73.8605 105.227 74.0205 105C74.1805 104.76 74.2605 104.573 74.2605 104.44V102.44C74.2605 102.067 74.1671 101.747 73.9805 101.48C73.8071 101.213 73.5805 101.007 73.3005 100.86C73.0338 100.713 72.7605 100.64 72.4805 100.64C72.1605 100.64 71.8605 100.733 71.5805 100.92C71.3138 101.093 71.1005 101.313 70.9405 101.58C70.7938 101.847 70.7205 102.133 70.7205 102.44V104.08C70.7205 104.387 70.7938 104.68 70.9405 104.96C71.1005 105.24 71.3138 105.473 71.5805 105.66C71.8471 105.833 72.1405 105.92 72.4605 105.92ZM84.1355 108C83.7755 108 83.4755 107.927 83.2355 107.78C82.9955 107.62 82.8755 107.42 82.8755 107.18V96.88C82.8755 96.1333 83.0355 95.4667 83.3555 94.88C83.6755 94.28 84.1021 93.8133 84.6355 93.48C85.1688 93.1333 85.7555 92.96 86.3955 92.96H87.5755C87.8955 92.96 88.1355 93.0733 88.2955 93.3C88.4688 93.5267 88.5555 93.7733 88.5555 94.04C88.5555 94.3333 88.4688 94.5933 88.2955 94.82C88.1355 95.0333 87.8955 95.14 87.5755 95.14H86.9355C86.6555 95.14 86.4021 95.2 86.1755 95.32C85.9488 95.44 85.7688 95.6067 85.6355 95.82C85.5155 96.0333 85.4555 96.2933 85.4555 96.6V98.5H87.8955C88.1088 98.5 88.2688 98.6 88.3755 98.8C88.4955 98.9867 88.5555 99.2 88.5555 99.44C88.5555 99.68 88.4955 99.9 88.3755 100.1C88.2688 100.287 88.1088 100.38 87.8955 100.38H85.4555V107.18C85.4555 107.42 85.3221 107.62 85.0555 107.78C84.8021 107.927 84.4955 108 84.1355 108ZM93.378 108.18C92.6046 108.18 91.8913 107.993 91.238 107.62C90.5846 107.233 90.058 106.727 89.658 106.1C89.258 105.473 89.058 104.8 89.058 104.08V102.44C89.058 101.72 89.2513 101.053 89.638 100.44C90.0246 99.8133 90.5446 99.3133 91.198 98.94C91.8646 98.5667 92.5913 98.38 93.378 98.38C94.1646 98.38 94.8846 98.5667 95.538 98.94C96.2046 99.3 96.7313 99.7867 97.118 100.4C97.518 101.013 97.718 101.693 97.718 102.44V104.08C97.718 104.787 97.518 105.453 97.118 106.08C96.718 106.707 96.1846 107.213 95.518 107.6C94.8646 107.987 94.1513 108.18 93.378 108.18ZM93.378 105.92C93.698 105.92 93.9913 105.833 94.258 105.66C94.5246 105.487 94.738 105.26 94.898 104.98C95.058 104.687 95.138 104.387 95.138 104.08V102.44C95.138 102.133 95.058 101.847 94.898 101.58C94.738 101.313 94.5246 101.093 94.258 100.92C94.0046 100.733 93.7113 100.64 93.378 100.64C93.058 100.64 92.7646 100.727 92.498 100.9C92.2313 101.073 92.018 101.3 91.858 101.58C91.7113 101.847 91.638 102.133 91.638 102.44V104.08C91.638 104.387 91.7113 104.687 91.858 104.98C92.018 105.26 92.2313 105.487 92.498 105.66C92.7646 105.833 93.058 105.92 93.378 105.92ZM103.319 108.18C102.546 108.18 101.833 107.993 101.179 107.62C100.526 107.233 99.9994 106.727 99.5994 106.1C99.1994 105.473 98.9994 104.8 98.9994 104.08V102.44C98.9994 101.72 99.1927 101.053 99.5794 100.44C99.966 99.8133 100.486 99.3133 101.139 98.94C101.806 98.5667 102.533 98.38 103.319 98.38C104.106 98.38 104.826 98.5667 105.479 98.94C106.146 99.3 106.673 99.7867 107.059 100.4C107.459 101.013 107.659 101.693 107.659 102.44V104.08C107.659 104.787 107.459 105.453 107.059 106.08C106.659 106.707 106.126 107.213 105.459 107.6C104.806 107.987 104.093 108.18 103.319 108.18ZM103.319 105.92C103.639 105.92 103.933 105.833 104.199 105.66C104.466 105.487 104.679 105.26 104.839 104.98C104.999 104.687 105.079 104.387 105.079 104.08V102.44C105.079 102.133 104.999 101.847 104.839 101.58C104.679 101.313 104.466 101.093 104.199 100.92C103.946 100.733 103.653 100.64 103.319 100.64C102.999 100.64 102.706 100.727 102.439 100.9C102.173 101.073 101.959 101.3 101.799 101.58C101.653 101.847 101.579 102.133 101.579 102.44V104.08C101.579 104.387 101.653 104.687 101.799 104.98C101.959 105.26 102.173 105.487 102.439 105.66C102.706 105.833 102.999 105.92 103.319 105.92ZM112.461 108.18C111.834 108.18 111.254 107.987 110.721 107.6C110.187 107.213 109.761 106.707 109.441 106.08C109.121 105.453 108.961 104.787 108.961 104.08V102.44C108.961 101.693 109.121 101.013 109.441 100.4C109.761 99.7867 110.187 99.3 110.721 98.94C111.254 98.5667 111.847 98.38 112.501 98.38C113.127 98.38 113.661 98.54 114.101 98.86C114.541 99.1667 114.867 99.5133 115.081 99.9V93.76C115.081 93.52 115.207 93.3267 115.461 93.18C115.714 93.0333 116.027 92.96 116.401 92.96C116.761 92.96 117.061 93.0333 117.301 93.18C117.541 93.3267 117.661 93.52 117.661 93.76V107.16C117.661 107.373 117.541 107.567 117.301 107.74C117.061 107.913 116.761 108 116.401 108C116.081 108 115.807 107.913 115.581 107.74C115.354 107.567 115.241 107.373 115.241 107.16V106.6C115.041 107.013 114.681 107.38 114.161 107.7C113.654 108.02 113.087 108.18 112.461 108.18ZM113.281 105.92C113.627 105.92 113.934 105.827 114.201 105.64C114.467 105.44 114.681 105.227 114.841 105C115.001 104.76 115.081 104.573 115.081 104.44V102.44C115.081 102.067 114.987 101.747 114.801 101.48C114.627 101.213 114.401 101.007 114.121 100.86C113.854 100.713 113.581 100.64 113.301 100.64C112.981 100.64 112.681 100.733 112.401 100.92C112.134 101.093 111.921 101.313 111.761 101.58C111.614 101.847 111.541 102.133 111.541 102.44V104.08C111.541 104.387 111.614 104.68 111.761 104.96C111.921 105.24 112.134 105.473 112.401 105.66C112.667 105.833 112.961 105.92 113.281 105.92ZM126.776 108.18C126.109 108.18 125.496 108.1 124.936 107.94C124.389 107.767 123.956 107.547 123.636 107.28C123.329 107.013 123.176 106.74 123.176 106.46C123.176 106.313 123.209 106.153 123.276 105.98C123.356 105.807 123.456 105.653 123.576 105.52C123.709 105.387 123.862 105.32 124.036 105.32C124.222 105.32 124.416 105.4 124.616 105.56C124.829 105.707 125.089 105.853 125.396 106C125.716 106.147 126.156 106.22 126.716 106.22C127.316 106.22 127.709 106.127 127.896 105.94C128.096 105.753 128.196 105.56 128.196 105.36C128.196 105.067 128.076 104.84 127.836 104.68C127.609 104.52 127.316 104.393 126.956 104.3C126.596 104.193 126.209 104.08 125.796 103.96C125.396 103.84 125.016 103.687 124.656 103.5C124.296 103.3 124.002 103.033 123.776 102.7C123.549 102.353 123.436 101.907 123.436 101.36C123.436 100.88 123.549 100.413 123.776 99.96C124.002 99.5067 124.376 99.1333 124.896 98.84C125.416 98.5333 126.122 98.38 127.016 98.38C127.562 98.38 128.076 98.44 128.556 98.56C129.049 98.6667 129.449 98.82 129.756 99.02C130.062 99.22 130.216 99.44 130.216 99.68C130.216 99.8 130.176 99.96 130.096 100.16C130.016 100.347 129.902 100.52 129.756 100.68C129.622 100.84 129.456 100.92 129.256 100.92C129.109 100.92 128.929 100.873 128.716 100.78C128.516 100.673 128.282 100.573 128.016 100.48C127.749 100.387 127.429 100.34 127.056 100.34C126.722 100.34 126.456 100.387 126.256 100.48C126.056 100.573 125.909 100.687 125.816 100.82C125.722 100.953 125.676 101.093 125.676 101.24C125.676 101.48 125.789 101.667 126.016 101.8C126.242 101.933 126.536 102.047 126.896 102.14C127.269 102.233 127.656 102.34 128.056 102.46C128.469 102.567 128.856 102.727 129.216 102.94C129.589 103.153 129.889 103.447 130.116 103.82C130.342 104.18 130.456 104.653 130.456 105.24C130.456 106.133 130.136 106.847 129.496 107.38C128.869 107.913 127.962 108.18 126.776 108.18ZM133.316 108C132.942 108 132.636 107.913 132.396 107.74C132.156 107.567 132.036 107.373 132.036 107.16V93.76C132.036 93.52 132.156 93.3267 132.396 93.18C132.636 93.0333 132.942 92.96 133.316 92.96C133.676 92.96 133.982 93.0333 134.236 93.18C134.489 93.3267 134.616 93.52 134.616 93.76V99.9C134.816 99.5133 135.129 99.1667 135.556 98.86C135.982 98.54 136.509 98.38 137.136 98.38C137.762 98.38 138.336 98.5667 138.856 98.94C139.376 99.3 139.789 99.7867 140.096 100.4C140.416 101.013 140.576 101.693 140.576 102.44V107.16C140.576 107.44 140.442 107.653 140.176 107.8C139.909 107.933 139.609 108 139.276 108C138.982 108 138.696 107.933 138.416 107.8C138.136 107.653 137.996 107.44 137.996 107.16V102.44C137.996 102.133 137.916 101.847 137.756 101.58C137.596 101.313 137.382 101.093 137.116 100.92C136.862 100.733 136.576 100.64 136.256 100.64C135.989 100.64 135.729 100.713 135.476 100.86C135.222 101.007 135.016 101.213 134.856 101.48C134.696 101.747 134.616 102.067 134.616 102.44V107.16C134.616 107.373 134.489 107.567 134.236 107.74C133.982 107.913 133.676 108 133.316 108ZM146.464 108.18C145.691 108.18 144.977 107.993 144.324 107.62C143.671 107.233 143.144 106.727 142.744 106.1C142.344 105.473 142.144 104.8 142.144 104.08V102.44C142.144 101.72 142.337 101.053 142.724 100.44C143.111 99.8133 143.631 99.3133 144.284 98.94C144.951 98.5667 145.677 98.38 146.464 98.38C147.251 98.38 147.971 98.5667 148.624 98.94C149.291 99.3 149.817 99.7867 150.204 100.4C150.604 101.013 150.804 101.693 150.804 102.44V104.08C150.804 104.787 150.604 105.453 150.204 106.08C149.804 106.707 149.271 107.213 148.604 107.6C147.951 107.987 147.237 108.18 146.464 108.18ZM146.464 105.92C146.784 105.92 147.077 105.833 147.344 105.66C147.611 105.487 147.824 105.26 147.984 104.98C148.144 104.687 148.224 104.387 148.224 104.08V102.44C148.224 102.133 148.144 101.847 147.984 101.58C147.824 101.313 147.611 101.093 147.344 100.92C147.091 100.733 146.797 100.64 146.464 100.64C146.144 100.64 145.851 100.727 145.584 100.9C145.317 101.073 145.104 101.3 144.944 101.58C144.797 101.847 144.724 102.133 144.724 102.44V104.08C144.724 104.387 144.797 104.687 144.944 104.98C145.104 105.26 145.317 105.487 145.584 105.66C145.851 105.833 146.144 105.92 146.464 105.92ZM153.705 108C153.345 108 153.045 107.913 152.805 107.74C152.565 107.567 152.445 107.373 152.445 107.16V99.3C152.445 99.06 152.565 98.8667 152.805 98.72C153.045 98.5733 153.345 98.5 153.705 98.5C154.039 98.5 154.312 98.5733 154.525 98.72C154.752 98.8667 154.865 99.06 154.865 99.3V100.12C155.012 99.8267 155.205 99.5533 155.445 99.3C155.699 99.0333 155.985 98.8133 156.305 98.64C156.625 98.4667 156.965 98.38 157.325 98.38H157.945C158.199 98.38 158.419 98.4933 158.605 98.72C158.792 98.9333 158.885 99.1933 158.885 99.5C158.885 99.82 158.792 100.093 158.605 100.32C158.419 100.533 158.199 100.64 157.945 100.64H157.325C156.952 100.64 156.585 100.767 156.225 101.02C155.879 101.26 155.592 101.6 155.365 102.04C155.139 102.467 155.025 102.987 155.025 103.6V107.16C155.025 107.373 154.899 107.567 154.645 107.74C154.392 107.913 154.079 108 153.705 108ZM163.605 108C162.405 108 161.485 107.74 160.845 107.22C160.219 106.7 159.905 105.873 159.905 104.74V95.06C159.905 94.82 160.045 94.6267 160.325 94.48C160.605 94.3333 160.892 94.26 161.185 94.26C161.505 94.26 161.799 94.3333 162.065 94.48C162.345 94.6267 162.485 94.82 162.485 95.06V98.5H164.845C165.059 98.5 165.219 98.6 165.325 98.8C165.445 98.9867 165.505 99.2 165.505 99.44C165.505 99.68 165.445 99.9 165.325 100.1C165.219 100.287 165.059 100.38 164.845 100.38H162.485V104.74C162.485 105.14 162.565 105.42 162.725 105.58C162.899 105.74 163.192 105.82 163.605 105.82H164.385C164.759 105.82 165.032 105.933 165.205 106.16C165.392 106.387 165.485 106.633 165.485 106.9C165.485 107.18 165.392 107.433 165.205 107.66C165.032 107.887 164.759 108 164.385 108H163.605ZM168.86 108.18C168.154 108.18 167.54 107.967 167.02 107.54C166.514 107.1 166.26 106.427 166.26 105.52C166.26 104.76 166.454 104.167 166.84 103.74C167.24 103.313 167.787 103.013 168.48 102.84C169.187 102.667 170 102.58 170.92 102.58H171.74V102.32C171.74 102.027 171.68 101.74 171.56 101.46C171.454 101.18 171.274 100.947 171.02 100.76C170.78 100.573 170.434 100.48 169.98 100.48C169.474 100.48 169.08 100.533 168.8 100.64C168.534 100.733 168.327 100.833 168.18 100.94C168.034 101.047 167.874 101.1 167.7 101.1C167.42 101.1 167.2 100.96 167.04 100.68C166.894 100.4 166.82 100.113 166.82 99.82C166.82 99.54 166.987 99.2933 167.32 99.08C167.667 98.8533 168.087 98.68 168.58 98.56C169.074 98.44 169.554 98.38 170.02 98.38C171.06 98.38 171.894 98.5667 172.52 98.94C173.147 99.3133 173.6 99.7933 173.88 100.38C174.174 100.967 174.32 101.6 174.32 102.28V107.16C174.32 107.4 174.2 107.6 173.96 107.76C173.72 107.92 173.42 108 173.06 108C172.727 108 172.447 107.92 172.22 107.76C172.007 107.6 171.9 107.4 171.9 107.16V106.6C171.54 107.013 171.114 107.38 170.62 107.7C170.14 108.02 169.554 108.18 168.86 108.18ZM169.9 106.26C170.18 106.26 170.46 106.167 170.74 105.98C171.02 105.793 171.254 105.553 171.44 105.26C171.64 104.967 171.74 104.66 171.74 104.34V103.92H171.44C171 103.92 170.58 103.947 170.18 104C169.78 104.053 169.454 104.173 169.2 104.36C168.96 104.533 168.84 104.807 168.84 105.18C168.84 105.553 168.94 105.827 169.14 106C169.354 106.173 169.607 106.26 169.9 106.26ZM179.974 112.42C179.188 112.42 178.454 112.307 177.774 112.08C177.108 111.867 176.568 111.547 176.154 111.12C175.754 110.693 175.554 110.187 175.554 109.6C175.554 109.093 175.694 108.66 175.974 108.3C176.254 107.953 176.601 107.68 177.014 107.48C176.761 107.36 176.554 107.2 176.394 107C176.248 106.787 176.174 106.52 176.174 106.2C176.174 105.827 176.268 105.527 176.454 105.3C176.654 105.06 176.901 104.84 177.194 104.64C176.794 104.333 176.481 103.967 176.254 103.54C176.041 103.1 175.934 102.62 175.934 102.1V101.68C175.934 101.027 176.094 100.453 176.414 99.96C176.748 99.4667 177.208 99.08 177.794 98.8C178.394 98.52 179.081 98.38 179.854 98.38C180.294 98.38 180.708 98.4333 181.094 98.54C181.481 98.6333 181.828 98.7733 182.134 98.96C182.361 98.4267 182.574 98.0667 182.774 97.88C182.974 97.6933 183.168 97.6 183.354 97.6C183.674 97.6 183.921 97.6933 184.094 97.88C184.281 98.0667 184.374 98.24 184.374 98.4C184.374 98.52 184.341 98.6267 184.274 98.72C184.221 98.8133 184.148 98.8933 184.054 98.96C183.921 99.04 183.768 99.14 183.594 99.26C183.421 99.3667 183.261 99.52 183.114 99.72C183.354 99.9867 183.528 100.287 183.634 100.62C183.754 100.94 183.814 101.293 183.814 101.68V102.1C183.814 102.74 183.648 103.313 183.314 103.82C182.981 104.313 182.514 104.707 181.914 105C181.314 105.293 180.628 105.44 179.854 105.44C179.374 105.44 178.941 105.38 178.554 105.26C178.488 105.313 178.428 105.373 178.374 105.44C178.334 105.507 178.314 105.58 178.314 105.66C178.314 105.887 178.461 106.047 178.754 106.14C179.048 106.233 179.421 106.307 179.874 106.36C180.328 106.413 180.808 106.487 181.314 106.58C181.834 106.66 182.321 106.793 182.774 106.98C183.228 107.167 183.601 107.447 183.894 107.82C184.188 108.18 184.334 108.667 184.334 109.28C184.334 110.027 184.121 110.627 183.694 111.08C183.281 111.547 182.741 111.887 182.074 112.1C181.421 112.313 180.721 112.42 179.974 112.42ZM179.934 110.76C180.454 110.76 180.894 110.633 181.254 110.38C181.628 110.127 181.814 109.787 181.814 109.36C181.814 109.08 181.734 108.853 181.574 108.68C181.414 108.507 181.194 108.373 180.914 108.28C180.648 108.2 180.354 108.133 180.034 108.08C179.714 108.04 179.394 108 179.074 107.96C178.754 108.107 178.494 108.293 178.294 108.52C178.094 108.747 177.994 109.02 177.994 109.34C177.994 109.78 178.181 110.127 178.554 110.38C178.941 110.633 179.401 110.76 179.934 110.76ZM179.894 103.88C180.334 103.88 180.681 103.713 180.934 103.38C181.188 103.047 181.314 102.62 181.314 102.1V101.68C181.314 101.187 181.188 100.773 180.934 100.44C180.694 100.107 180.341 99.94 179.874 99.94C179.421 99.94 179.068 100.107 178.814 100.44C178.574 100.773 178.454 101.187 178.454 101.68V102.08C178.454 102.587 178.574 103.013 178.814 103.36C179.068 103.707 179.428 103.88 179.894 103.88ZM190.07 108.18C189.123 108.18 188.283 108.013 187.55 107.68C186.83 107.333 186.263 106.853 185.85 106.24C185.437 105.613 185.23 104.893 185.23 104.08V102.38C185.23 101.66 185.423 101 185.81 100.4C186.21 99.7867 186.737 99.3 187.39 98.94C188.057 98.5667 188.797 98.38 189.61 98.38C190.357 98.38 191.037 98.54 191.65 98.86C192.277 99.18 192.783 99.62 193.17 100.18C193.557 100.74 193.75 101.393 193.75 102.14C193.75 102.713 193.657 103.127 193.47 103.38C193.283 103.62 193.043 103.773 192.75 103.84C192.47 103.893 192.177 103.92 191.87 103.92H187.81V104.22C187.81 104.793 188.023 105.26 188.45 105.62C188.89 105.967 189.457 106.14 190.15 106.14C190.59 106.14 190.957 106.073 191.25 105.94C191.543 105.807 191.797 105.68 192.01 105.56C192.223 105.44 192.423 105.38 192.61 105.38C192.81 105.38 192.983 105.447 193.13 105.58C193.277 105.713 193.39 105.873 193.47 106.06C193.55 106.233 193.59 106.387 193.59 106.52C193.59 106.747 193.443 106.993 193.15 107.26C192.87 107.513 192.463 107.733 191.93 107.92C191.41 108.093 190.79 108.18 190.07 108.18ZM187.81 102.4H190.73C190.957 102.4 191.11 102.367 191.19 102.3C191.283 102.22 191.33 102.073 191.33 101.86C191.33 101.553 191.243 101.28 191.07 101.04C190.91 100.8 190.697 100.613 190.43 100.48C190.177 100.347 189.89 100.28 189.57 100.28C189.263 100.28 188.977 100.347 188.71 100.48C188.443 100.6 188.223 100.78 188.05 101.02C187.89 101.247 187.81 101.52 187.81 101.84V102.4ZM198.397 108.18C197.73 108.18 197.117 108.1 196.557 107.94C196.01 107.767 195.577 107.547 195.257 107.28C194.95 107.013 194.797 106.74 194.797 106.46C194.797 106.313 194.83 106.153 194.897 105.98C194.977 105.807 195.077 105.653 195.197 105.52C195.33 105.387 195.484 105.32 195.657 105.32C195.844 105.32 196.037 105.4 196.237 105.56C196.45 105.707 196.71 105.853 197.017 106C197.337 106.147 197.777 106.22 198.337 106.22C198.937 106.22 199.33 106.127 199.517 105.94C199.717 105.753 199.817 105.56 199.817 105.36C199.817 105.067 199.697 104.84 199.457 104.68C199.23 104.52 198.937 104.393 198.577 104.3C198.217 104.193 197.83 104.08 197.417 103.96C197.017 103.84 196.637 103.687 196.277 103.5C195.917 103.3 195.624 103.033 195.397 102.7C195.17 102.353 195.057 101.907 195.057 101.36C195.057 100.88 195.17 100.413 195.397 99.96C195.624 99.5067 195.997 99.1333 196.517 98.84C197.037 98.5333 197.744 98.38 198.637 98.38C199.184 98.38 199.697 98.44 200.177 98.56C200.67 98.6667 201.07 98.82 201.377 99.02C201.684 99.22 201.837 99.44 201.837 99.68C201.837 99.8 201.797 99.96 201.717 100.16C201.637 100.347 201.524 100.52 201.377 100.68C201.244 100.84 201.077 100.92 200.877 100.92C200.73 100.92 200.55 100.873 200.337 100.78C200.137 100.673 199.904 100.573 199.637 100.48C199.37 100.387 199.05 100.34 198.677 100.34C198.344 100.34 198.077 100.387 197.877 100.48C197.677 100.573 197.53 100.687 197.437 100.82C197.344 100.953 197.297 101.093 197.297 101.24C197.297 101.48 197.41 101.667 197.637 101.8C197.864 101.933 198.157 102.047 198.517 102.14C198.89 102.233 199.277 102.34 199.677 102.46C200.09 102.567 200.477 102.727 200.837 102.94C201.21 103.153 201.51 103.447 201.737 103.82C201.964 104.18 202.077 104.653 202.077 105.24C202.077 106.133 201.757 106.847 201.117 107.38C200.49 107.913 199.584 108.18 198.397 108.18ZM209.681 108.18C208.974 108.18 208.361 107.967 207.841 107.54C207.334 107.1 207.081 106.427 207.081 105.52C207.081 104.76 207.274 104.167 207.661 103.74C208.061 103.313 208.607 103.013 209.301 102.84C210.007 102.667 210.821 102.58 211.741 102.58H212.561V102.32C212.561 102.027 212.501 101.74 212.381 101.46C212.274 101.18 212.094 100.947 211.841 100.76C211.601 100.573 211.254 100.48 210.801 100.48C210.294 100.48 209.901 100.533 209.621 100.64C209.354 100.733 209.147 100.833 209.001 100.94C208.854 101.047 208.694 101.1 208.521 101.1C208.241 101.1 208.021 100.96 207.861 100.68C207.714 100.4 207.641 100.113 207.641 99.82C207.641 99.54 207.807 99.2933 208.141 99.08C208.487 98.8533 208.907 98.68 209.401 98.56C209.894 98.44 210.374 98.38 210.841 98.38C211.881 98.38 212.714 98.5667 213.341 98.94C213.967 99.3133 214.421 99.7933 214.701 100.38C214.994 100.967 215.141 101.6 215.141 102.28V107.16C215.141 107.4 215.021 107.6 214.781 107.76C214.541 107.92 214.241 108 213.881 108C213.547 108 213.267 107.92 213.041 107.76C212.827 107.6 212.721 107.4 212.721 107.16V106.6C212.361 107.013 211.934 107.38 211.441 107.7C210.961 108.02 210.374 108.18 209.681 108.18ZM210.721 106.26C211.001 106.26 211.281 106.167 211.561 105.98C211.841 105.793 212.074 105.553 212.261 105.26C212.461 104.967 212.561 104.66 212.561 104.34V103.92H212.261C211.821 103.92 211.401 103.947 211.001 104C210.601 104.053 210.274 104.173 210.021 104.36C209.781 104.533 209.661 104.807 209.661 105.18C209.661 105.553 209.761 105.827 209.961 106C210.174 106.173 210.427 106.26 210.721 106.26ZM218.335 108C217.961 108 217.655 107.913 217.415 107.74C217.175 107.567 217.055 107.373 217.055 107.16V99.3C217.055 99.06 217.175 98.8667 217.415 98.72C217.655 98.5733 217.961 98.5 218.335 98.5C218.655 98.5 218.921 98.5733 219.135 98.72C219.361 98.8667 219.475 99.06 219.475 99.3V99.9C219.675 99.5133 220.001 99.1667 220.455 98.86C220.921 98.54 221.488 98.38 222.155 98.38C222.781 98.38 223.355 98.5667 223.875 98.94C224.395 99.3 224.808 99.7867 225.115 100.4C225.435 101.013 225.595 101.693 225.595 102.44V107.16C225.595 107.44 225.461 107.653 225.195 107.8C224.928 107.933 224.628 108 224.295 108C224.001 108 223.715 107.933 223.435 107.8C223.155 107.653 223.015 107.44 223.015 107.16V102.44C223.015 102.133 222.935 101.847 222.775 101.58C222.628 101.313 222.421 101.093 222.155 100.92C221.888 100.733 221.595 100.64 221.275 100.64C221.008 100.64 220.748 100.713 220.495 100.86C220.241 101.007 220.035 101.213 219.875 101.48C219.715 101.747 219.635 102.067 219.635 102.44V107.16C219.635 107.373 219.508 107.567 219.255 107.74C219.001 107.913 218.695 108 218.335 108ZM230.683 108.18C230.057 108.18 229.477 107.987 228.943 107.6C228.41 107.213 227.983 106.707 227.663 106.08C227.343 105.453 227.183 104.787 227.183 104.08V102.44C227.183 101.693 227.343 101.013 227.663 100.4C227.983 99.7867 228.41 99.3 228.943 98.94C229.477 98.5667 230.07 98.38 230.723 98.38C231.35 98.38 231.883 98.54 232.323 98.86C232.763 99.1667 233.09 99.5133 233.303 99.9V93.76C233.303 93.52 233.43 93.3267 233.683 93.18C233.937 93.0333 234.25 92.96 234.623 92.96C234.983 92.96 235.283 93.0333 235.523 93.18C235.763 93.3267 235.883 93.52 235.883 93.76V107.16C235.883 107.373 235.763 107.567 235.523 107.74C235.283 107.913 234.983 108 234.623 108C234.303 108 234.03 107.913 233.803 107.74C233.577 107.567 233.463 107.373 233.463 107.16V106.6C233.263 107.013 232.903 107.38 232.383 107.7C231.877 108.02 231.31 108.18 230.683 108.18ZM231.503 105.92C231.85 105.92 232.157 105.827 232.423 105.64C232.69 105.44 232.903 105.227 233.063 105C233.223 104.76 233.303 104.573 233.303 104.44V102.44C233.303 102.067 233.21 101.747 233.023 101.48C232.85 101.213 232.623 101.007 232.343 100.86C232.077 100.713 231.803 100.64 231.523 100.64C231.203 100.64 230.903 100.733 230.623 100.92C230.357 101.093 230.143 101.313 229.983 101.58C229.837 101.847 229.763 102.133 229.763 102.44V104.08C229.763 104.387 229.837 104.68 229.983 104.96C230.143 105.24 230.357 105.473 230.623 105.66C230.89 105.833 231.183 105.92 231.503 105.92ZM33.4914 135.22C33.2247 135.22 32.9781 135.18 32.7514 135.1C32.5247 135.02 32.3781 134.907 32.3114 134.76L28.8914 126.84C28.8647 126.8 28.8381 126.747 28.8114 126.68C28.7981 126.6 28.7914 126.533 28.7914 126.48C28.7914 126.28 28.8847 126.1 29.0714 125.94C29.2714 125.767 29.5047 125.633 29.7714 125.54C30.0381 125.433 30.2847 125.38 30.5114 125.38C30.6714 125.38 30.8181 125.413 30.9514 125.48C31.0981 125.547 31.1981 125.66 31.2514 125.82L33.4914 131.62L35.7114 125.86C35.7647 125.687 35.8581 125.567 35.9914 125.5C36.1247 125.42 36.2781 125.38 36.4514 125.38C36.6247 125.38 36.8447 125.433 37.1114 125.54C37.3914 125.633 37.6381 125.767 37.8514 125.94C38.0647 126.113 38.1714 126.3 38.1714 126.5C38.1714 126.567 38.1647 126.627 38.1514 126.68C38.1381 126.733 38.1181 126.787 38.0914 126.84L34.6514 134.76C34.5847 134.907 34.4381 135.02 34.2114 135.1C33.9847 135.18 33.7447 135.22 33.4914 135.22ZM41.3017 135.18C40.5951 135.18 39.9817 134.967 39.4617 134.54C38.9551 134.1 38.7017 133.427 38.7017 132.52C38.7017 131.76 38.8951 131.167 39.2817 130.74C39.6817 130.313 40.2284 130.013 40.9217 129.84C41.6284 129.667 42.4417 129.58 43.3617 129.58H44.1817V129.32C44.1817 129.027 44.1217 128.74 44.0017 128.46C43.8951 128.18 43.7151 127.947 43.4617 127.76C43.2217 127.573 42.8751 127.48 42.4217 127.48C41.9151 127.48 41.5217 127.533 41.2417 127.64C40.9751 127.733 40.7684 127.833 40.6217 127.94C40.4751 128.047 40.3151 128.1 40.1417 128.1C39.8617 128.1 39.6417 127.96 39.4817 127.68C39.3351 127.4 39.2617 127.113 39.2617 126.82C39.2617 126.54 39.4284 126.293 39.7617 126.08C40.1084 125.853 40.5284 125.68 41.0217 125.56C41.5151 125.44 41.9951 125.38 42.4617 125.38C43.5017 125.38 44.3351 125.567 44.9617 125.94C45.5884 126.313 46.0417 126.793 46.3217 127.38C46.6151 127.967 46.7617 128.6 46.7617 129.28V134.16C46.7617 134.4 46.6417 134.6 46.4017 134.76C46.1617 134.92 45.8617 135 45.5017 135C45.1684 135 44.8884 134.92 44.6617 134.76C44.4484 134.6 44.3417 134.4 44.3417 134.16V133.6C43.9817 134.013 43.5551 134.38 43.0617 134.7C42.5817 135.02 41.9951 135.18 41.3017 135.18ZM42.3417 133.26C42.6217 133.26 42.9017 133.167 43.1817 132.98C43.4617 132.793 43.6951 132.553 43.8817 132.26C44.0817 131.967 44.1817 131.66 44.1817 131.34V130.92H43.8817C43.4417 130.92 43.0217 130.947 42.6217 131C42.2217 131.053 41.8951 131.173 41.6417 131.36C41.4017 131.533 41.2817 131.807 41.2817 132.18C41.2817 132.553 41.3817 132.827 41.5817 133C41.7951 133.173 42.0484 133.26 42.3417 133.26ZM50.1358 135C49.7624 135 49.4558 134.913 49.2158 134.74C48.9758 134.567 48.8558 134.373 48.8558 134.16V120.76C48.8558 120.52 48.9758 120.327 49.2158 120.18C49.4558 120.033 49.7624 119.96 50.1358 119.96C50.4958 119.96 50.8024 120.033 51.0558 120.18C51.3091 120.327 51.4358 120.52 51.4358 120.76V134.16C51.4358 134.373 51.3091 134.567 51.0558 134.74C50.8024 134.913 50.4958 135 50.1358 135ZM57.8772 135.18C57.0772 135.18 56.3439 134.993 55.6772 134.62C55.0239 134.233 54.4972 133.733 54.0972 133.12C53.7105 132.493 53.5172 131.827 53.5172 131.12V126.32C53.5172 126.12 53.6439 125.933 53.8972 125.76C54.1639 125.587 54.4705 125.5 54.8172 125.5C55.1639 125.5 55.4639 125.587 55.7172 125.76C55.9705 125.933 56.0972 126.12 56.0972 126.32V131.12C56.0972 131.427 56.1772 131.713 56.3372 131.98C56.4972 132.247 56.7105 132.473 56.9772 132.66C57.2439 132.833 57.5372 132.92 57.8572 132.92C58.1905 132.92 58.4839 132.833 58.7372 132.66C59.0039 132.487 59.2172 132.26 59.3772 131.98C59.5372 131.7 59.6172 131.413 59.6172 131.12V126.3C59.6172 126.087 59.7439 125.9 59.9972 125.74C60.2639 125.58 60.5639 125.5 60.8972 125.5C61.2839 125.5 61.5972 125.58 61.8372 125.74C62.0772 125.9 62.1972 126.087 62.1972 126.3V131.12C62.1972 131.84 61.9972 132.513 61.5972 133.14C61.2105 133.753 60.6839 134.247 60.0172 134.62C59.3639 134.993 58.6505 135.18 57.8772 135.18ZM68.5855 135.18C67.6388 135.18 66.7988 135.013 66.0655 134.68C65.3455 134.333 64.7788 133.853 64.3655 133.24C63.9521 132.613 63.7455 131.893 63.7455 131.08V129.38C63.7455 128.66 63.9388 128 64.3255 127.4C64.7255 126.787 65.2521 126.3 65.9055 125.94C66.5721 125.567 67.3121 125.38 68.1255 125.38C68.8721 125.38 69.5521 125.54 70.1655 125.86C70.7921 126.18 71.2988 126.62 71.6855 127.18C72.0721 127.74 72.2655 128.393 72.2655 129.14C72.2655 129.713 72.1721 130.127 71.9855 130.38C71.7988 130.62 71.5588 130.773 71.2655 130.84C70.9855 130.893 70.6921 130.92 70.3855 130.92H66.3255V131.22C66.3255 131.793 66.5388 132.26 66.9655 132.62C67.4055 132.967 67.9721 133.14 68.6655 133.14C69.1055 133.14 69.4721 133.073 69.7655 132.94C70.0588 132.807 70.3121 132.68 70.5255 132.56C70.7388 132.44 70.9388 132.38 71.1255 132.38C71.3255 132.38 71.4988 132.447 71.6455 132.58C71.7921 132.713 71.9055 132.873 71.9855 133.06C72.0655 133.233 72.1055 133.387 72.1055 133.52C72.1055 133.747 71.9588 133.993 71.6655 134.26C71.3855 134.513 70.9788 134.733 70.4455 134.92C69.9255 135.093 69.3055 135.18 68.5855 135.18ZM66.3255 129.4H69.2455C69.4721 129.4 69.6255 129.367 69.7055 129.3C69.7988 129.22 69.8455 129.073 69.8455 128.86C69.8455 128.553 69.7588 128.28 69.5855 128.04C69.4255 127.8 69.2121 127.613 68.9455 127.48C68.6921 127.347 68.4055 127.28 68.0855 127.28C67.7788 127.28 67.4921 127.347 67.2255 127.48C66.9588 127.6 66.7388 127.78 66.5655 128.02C66.4055 128.247 66.3255 128.52 66.3255 128.84V129.4ZM76.9725 135.18C76.3458 135.18 75.7658 134.987 75.2325 134.6C74.6992 134.213 74.2725 133.707 73.9525 133.08C73.6325 132.453 73.4725 131.787 73.4725 131.08V129.44C73.4725 128.693 73.6325 128.013 73.9525 127.4C74.2725 126.787 74.6992 126.3 75.2325 125.94C75.7658 125.567 76.3592 125.38 77.0125 125.38C77.6392 125.38 78.1725 125.54 78.6125 125.86C79.0525 126.167 79.3792 126.513 79.5925 126.9V120.76C79.5925 120.52 79.7192 120.327 79.9725 120.18C80.2258 120.033 80.5392 119.96 80.9125 119.96C81.2725 119.96 81.5725 120.033 81.8125 120.18C82.0525 120.327 82.1725 120.52 82.1725 120.76V134.16C82.1725 134.373 82.0525 134.567 81.8125 134.74C81.5725 134.913 81.2725 135 80.9125 135C80.5925 135 80.3192 134.913 80.0925 134.74C79.8658 134.567 79.7525 134.373 79.7525 134.16V133.6C79.5525 134.013 79.1925 134.38 78.6725 134.7C78.1658 135.02 77.5992 135.18 76.9725 135.18ZM77.7925 132.92C78.1392 132.92 78.4458 132.827 78.7125 132.64C78.9792 132.44 79.1925 132.227 79.3525 132C79.5125 131.76 79.5925 131.573 79.5925 131.44V129.44C79.5925 129.067 79.4992 128.747 79.3125 128.48C79.1392 128.213 78.9125 128.007 78.6325 127.86C78.3658 127.713 78.0925 127.64 77.8125 127.64C77.4925 127.64 77.1925 127.733 76.9125 127.92C76.6458 128.093 76.4325 128.313 76.2725 128.58C76.1258 128.847 76.0525 129.133 76.0525 129.44V131.08C76.0525 131.387 76.1258 131.68 76.2725 131.96C76.4325 132.24 76.6458 132.473 76.9125 132.66C77.1792 132.833 77.4725 132.92 77.7925 132.92ZM92.6675 135.18C91.7208 135.18 90.8808 135.013 90.1475 134.68C89.4275 134.333 88.8608 133.853 88.4475 133.24C88.0342 132.613 87.8275 131.893 87.8275 131.08V129.38C87.8275 128.66 88.0208 128 88.4075 127.4C88.8075 126.787 89.3342 126.3 89.9875 125.94C90.6542 125.567 91.3942 125.38 92.2075 125.38C92.9542 125.38 93.6342 125.54 94.2475 125.86C94.8742 126.18 95.3808 126.62 95.7675 127.18C96.1542 127.74 96.3475 128.393 96.3475 129.14C96.3475 129.713 96.2542 130.127 96.0675 130.38C95.8808 130.62 95.6408 130.773 95.3475 130.84C95.0675 130.893 94.7742 130.92 94.4675 130.92H90.4075V131.22C90.4075 131.793 90.6208 132.26 91.0475 132.62C91.4875 132.967 92.0542 133.14 92.7475 133.14C93.1875 133.14 93.5542 133.073 93.8475 132.94C94.1408 132.807 94.3942 132.68 94.6075 132.56C94.8208 132.44 95.0208 132.38 95.2075 132.38C95.4075 132.38 95.5808 132.447 95.7275 132.58C95.8742 132.713 95.9875 132.873 96.0675 133.06C96.1475 133.233 96.1875 133.387 96.1875 133.52C96.1875 133.747 96.0408 133.993 95.7475 134.26C95.4675 134.513 95.0608 134.733 94.5275 134.92C94.0075 135.093 93.3875 135.18 92.6675 135.18ZM90.4075 129.4H93.3275C93.5542 129.4 93.7075 129.367 93.7875 129.3C93.8808 129.22 93.9275 129.073 93.9275 128.86C93.9275 128.553 93.8408 128.28 93.6675 128.04C93.5075 127.8 93.2942 127.613 93.0275 127.48C92.7742 127.347 92.4875 127.28 92.1675 127.28C91.8608 127.28 91.5742 127.347 91.3075 127.48C91.0408 127.6 90.8208 127.78 90.6475 128.02C90.4875 128.247 90.4075 128.52 90.4075 128.84V129.4ZM101.695 135.22C101.428 135.22 101.181 135.18 100.955 135.1C100.728 135.02 100.581 134.907 100.515 134.76L97.0945 126.84C97.0679 126.8 97.0412 126.747 97.0145 126.68C97.0012 126.6 96.9945 126.533 96.9945 126.48C96.9945 126.28 97.0879 126.1 97.2745 125.94C97.4745 125.767 97.7079 125.633 97.9745 125.54C98.2412 125.433 98.4879 125.38 98.7145 125.38C98.8745 125.38 99.0212 125.413 99.1545 125.48C99.3012 125.547 99.4012 125.66 99.4545 125.82L101.695 131.62L103.915 125.86C103.968 125.687 104.061 125.567 104.195 125.5C104.328 125.42 104.481 125.38 104.655 125.38C104.828 125.38 105.048 125.433 105.315 125.54C105.595 125.633 105.841 125.767 106.055 125.94C106.268 126.113 106.375 126.3 106.375 126.5C106.375 126.567 106.368 126.627 106.355 126.68C106.341 126.733 106.321 126.787 106.295 126.84L102.855 134.76C102.788 134.907 102.641 135.02 102.415 135.1C102.188 135.18 101.948 135.22 101.695 135.22ZM111.886 135.18C110.94 135.18 110.1 135.013 109.366 134.68C108.646 134.333 108.08 133.853 107.666 133.24C107.253 132.613 107.046 131.893 107.046 131.08V129.38C107.046 128.66 107.24 128 107.626 127.4C108.026 126.787 108.553 126.3 109.206 125.94C109.873 125.567 110.613 125.38 111.426 125.38C112.173 125.38 112.853 125.54 113.466 125.86C114.093 126.18 114.6 126.62 114.986 127.18C115.373 127.74 115.566 128.393 115.566 129.14C115.566 129.713 115.473 130.127 115.286 130.38C115.1 130.62 114.86 130.773 114.566 130.84C114.286 130.893 113.993 130.92 113.686 130.92H109.626V131.22C109.626 131.793 109.84 132.26 110.266 132.62C110.706 132.967 111.273 133.14 111.966 133.14C112.406 133.14 112.773 133.073 113.066 132.94C113.36 132.807 113.613 132.68 113.826 132.56C114.04 132.44 114.24 132.38 114.426 132.38C114.626 132.38 114.8 132.447 114.946 132.58C115.093 132.713 115.206 132.873 115.286 133.06C115.366 133.233 115.406 133.387 115.406 133.52C115.406 133.747 115.26 133.993 114.966 134.26C114.686 134.513 114.28 134.733 113.746 134.92C113.226 135.093 112.606 135.18 111.886 135.18ZM109.626 129.4H112.546C112.773 129.4 112.926 129.367 113.006 129.3C113.1 129.22 113.146 129.073 113.146 128.86C113.146 128.553 113.06 128.28 112.886 128.04C112.726 127.8 112.513 127.613 112.246 127.48C111.993 127.347 111.706 127.28 111.386 127.28C111.08 127.28 110.793 127.347 110.526 127.48C110.26 127.6 110.04 127.78 109.866 128.02C109.706 128.247 109.626 128.52 109.626 128.84V129.4ZM118.373 135C118.013 135 117.713 134.913 117.473 134.74C117.233 134.567 117.113 134.373 117.113 134.16V126.3C117.113 126.06 117.233 125.867 117.473 125.72C117.713 125.573 118.013 125.5 118.373 125.5C118.707 125.5 118.98 125.573 119.193 125.72C119.42 125.867 119.533 126.06 119.533 126.3V127.12C119.68 126.827 119.873 126.553 120.113 126.3C120.367 126.033 120.653 125.813 120.973 125.64C121.293 125.467 121.633 125.38 121.993 125.38H122.613C122.867 125.38 123.087 125.493 123.273 125.72C123.46 125.933 123.553 126.193 123.553 126.5C123.553 126.82 123.46 127.093 123.273 127.32C123.087 127.533 122.867 127.64 122.613 127.64H121.993C121.62 127.64 121.253 127.767 120.893 128.02C120.547 128.26 120.26 128.6 120.033 129.04C119.807 129.467 119.693 129.987 119.693 130.6V134.16C119.693 134.373 119.567 134.567 119.313 134.74C119.06 134.913 118.747 135 118.373 135ZM124.893 139.42C124.56 139.42 124.28 139.353 124.053 139.22C123.827 139.1 123.713 138.8 123.713 138.32C123.713 138.027 123.76 137.773 123.853 137.56C123.96 137.347 124.133 137.24 124.373 137.24C124.6 137.24 124.86 137.2 125.153 137.12C125.46 137.04 125.767 136.887 126.073 136.66C126.38 136.447 126.64 136.147 126.853 135.76C127.067 135.387 127.193 134.9 127.233 134.3L123.793 126.94C123.74 126.82 123.713 126.707 123.713 126.6C123.713 126.373 123.807 126.167 123.993 125.98C124.193 125.793 124.427 125.647 124.693 125.54C124.96 125.42 125.207 125.36 125.433 125.36C125.593 125.36 125.74 125.393 125.873 125.46C126.02 125.527 126.12 125.64 126.173 125.8L128.573 131.78L130.493 125.8C130.56 125.64 130.66 125.527 130.793 125.46C130.927 125.393 131.06 125.36 131.193 125.36C131.393 125.36 131.633 125.42 131.913 125.54C132.193 125.647 132.433 125.8 132.633 126C132.847 126.187 132.953 126.4 132.953 126.64C132.953 126.76 132.933 126.86 132.893 126.94L129.973 134.4C129.733 135 129.5 135.593 129.273 136.18C129.047 136.78 128.76 137.32 128.413 137.8C128.08 138.293 127.633 138.687 127.073 138.98C126.513 139.273 125.787 139.42 124.893 139.42ZM142.05 135.18C141.277 135.18 140.563 134.993 139.91 134.62C139.257 134.233 138.73 133.727 138.33 133.1C137.93 132.473 137.73 131.8 137.73 131.08V129.44C137.73 128.72 137.923 128.053 138.31 127.44C138.697 126.813 139.217 126.313 139.87 125.94C140.537 125.567 141.263 125.38 142.05 125.38C142.837 125.38 143.557 125.567 144.21 125.94C144.877 126.3 145.403 126.787 145.79 127.4C146.19 128.013 146.39 128.693 146.39 129.44V131.08C146.39 131.787 146.19 132.453 145.79 133.08C145.39 133.707 144.857 134.213 144.19 134.6C143.537 134.987 142.823 135.18 142.05 135.18ZM142.05 132.92C142.37 132.92 142.663 132.833 142.93 132.66C143.197 132.487 143.41 132.26 143.57 131.98C143.73 131.687 143.81 131.387 143.81 131.08V129.44C143.81 129.133 143.73 128.847 143.57 128.58C143.41 128.313 143.197 128.093 142.93 127.92C142.677 127.733 142.383 127.64 142.05 127.64C141.73 127.64 141.437 127.727 141.17 127.9C140.903 128.073 140.69 128.3 140.53 128.58C140.383 128.847 140.31 129.133 140.31 129.44V131.08C140.31 131.387 140.383 131.687 140.53 131.98C140.69 132.26 140.903 132.487 141.17 132.66C141.437 132.833 141.73 132.92 142.05 132.92ZM152.291 135.18C151.491 135.18 150.758 134.993 150.091 134.62C149.438 134.233 148.911 133.733 148.511 133.12C148.125 132.493 147.931 131.827 147.931 131.12V126.32C147.931 126.12 148.058 125.933 148.311 125.76C148.578 125.587 148.885 125.5 149.231 125.5C149.578 125.5 149.878 125.587 150.131 125.76C150.385 125.933 150.511 126.12 150.511 126.32V131.12C150.511 131.427 150.591 131.713 150.751 131.98C150.911 132.247 151.125 132.473 151.391 132.66C151.658 132.833 151.951 132.92 152.271 132.92C152.605 132.92 152.898 132.833 153.151 132.66C153.418 132.487 153.631 132.26 153.791 131.98C153.951 131.7 154.031 131.413 154.031 131.12V126.3C154.031 126.087 154.158 125.9 154.411 125.74C154.678 125.58 154.978 125.5 155.311 125.5C155.698 125.5 156.011 125.58 156.251 125.74C156.491 125.9 156.611 126.087 156.611 126.3V131.12C156.611 131.84 156.411 132.513 156.011 133.14C155.625 133.753 155.098 134.247 154.431 134.62C153.778 134.993 153.065 135.18 152.291 135.18ZM159.8 135C159.426 135 159.12 134.913 158.88 134.74C158.64 134.567 158.52 134.373 158.52 134.16V126.3C158.52 126.06 158.64 125.867 158.88 125.72C159.12 125.573 159.426 125.5 159.8 125.5C160.12 125.5 160.386 125.573 160.6 125.72C160.826 125.867 160.94 126.06 160.94 126.3V126.9C161.14 126.513 161.466 126.167 161.92 125.86C162.386 125.54 162.953 125.38 163.62 125.38C164.246 125.38 164.82 125.567 165.34 125.94C165.86 126.3 166.273 126.787 166.58 127.4C166.9 128.013 167.06 128.693 167.06 129.44V134.16C167.06 134.44 166.926 134.653 166.66 134.8C166.393 134.933 166.093 135 165.76 135C165.466 135 165.18 134.933 164.9 134.8C164.62 134.653 164.48 134.44 164.48 134.16V129.44C164.48 129.133 164.4 128.847 164.24 128.58C164.093 128.313 163.886 128.093 163.62 127.92C163.353 127.733 163.06 127.64 162.74 127.64C162.473 127.64 162.213 127.713 161.96 127.86C161.706 128.007 161.5 128.213 161.34 128.48C161.18 128.747 161.1 129.067 161.1 129.44V134.16C161.1 134.373 160.973 134.567 160.72 134.74C160.466 134.913 160.16 135 159.8 135ZM173.008 135.18C171.995 135.18 171.168 135 170.528 134.64C169.888 134.28 169.415 133.793 169.108 133.18C168.802 132.553 168.648 131.853 168.648 131.08V129.48C168.648 128.707 168.795 128.013 169.088 127.4C169.395 126.773 169.868 126.28 170.508 125.92C171.162 125.56 171.982 125.38 172.968 125.38C173.595 125.38 174.148 125.453 174.628 125.6C175.108 125.747 175.488 125.94 175.768 126.18C176.048 126.42 176.188 126.673 176.188 126.94C176.188 127.1 176.142 127.28 176.048 127.48C175.968 127.667 175.848 127.833 175.688 127.98C175.542 128.127 175.368 128.2 175.168 128.2C175.022 128.2 174.868 128.153 174.708 128.06C174.562 127.967 174.368 127.873 174.128 127.78C173.888 127.687 173.568 127.64 173.168 127.64C172.488 127.64 171.995 127.807 171.688 128.14C171.382 128.46 171.228 128.907 171.228 129.48V131.08C171.228 131.653 171.382 132.107 171.688 132.44C171.995 132.76 172.495 132.92 173.188 132.92C173.602 132.92 173.922 132.867 174.148 132.76C174.375 132.653 174.562 132.553 174.708 132.46C174.868 132.367 175.028 132.32 175.188 132.32C175.428 132.32 175.628 132.387 175.788 132.52C175.962 132.653 176.088 132.82 176.168 133.02C176.262 133.207 176.308 133.38 176.308 133.54C176.308 133.807 176.162 134.067 175.868 134.32C175.588 134.573 175.195 134.78 174.688 134.94C174.195 135.1 173.635 135.18 173.008 135.18ZM182.023 135.18C181.076 135.18 180.236 135.013 179.503 134.68C178.783 134.333 178.216 133.853 177.803 133.24C177.39 132.613 177.183 131.893 177.183 131.08V129.38C177.183 128.66 177.376 128 177.763 127.4C178.163 126.787 178.69 126.3 179.343 125.94C180.01 125.567 180.75 125.38 181.563 125.38C182.31 125.38 182.99 125.54 183.603 125.86C184.23 126.18 184.736 126.62 185.123 127.18C185.51 127.74 185.703 128.393 185.703 129.14C185.703 129.713 185.61 130.127 185.423 130.38C185.236 130.62 184.996 130.773 184.703 130.84C184.423 130.893 184.13 130.92 183.823 130.92H179.763V131.22C179.763 131.793 179.976 132.26 180.403 132.62C180.843 132.967 181.41 133.14 182.103 133.14C182.543 133.14 182.91 133.073 183.203 132.94C183.496 132.807 183.75 132.68 183.963 132.56C184.176 132.44 184.376 132.38 184.563 132.38C184.763 132.38 184.936 132.447 185.083 132.58C185.23 132.713 185.343 132.873 185.423 133.06C185.503 133.233 185.543 133.387 185.543 133.52C185.543 133.747 185.396 133.993 185.103 134.26C184.823 134.513 184.416 134.733 183.883 134.92C183.363 135.093 182.743 135.18 182.023 135.18ZM179.763 129.4H182.683C182.91 129.4 183.063 129.367 183.143 129.3C183.236 129.22 183.283 129.073 183.283 128.86C183.283 128.553 183.196 128.28 183.023 128.04C182.863 127.8 182.65 127.613 182.383 127.48C182.13 127.347 181.843 127.28 181.523 127.28C181.216 127.28 180.93 127.347 180.663 127.48C180.396 127.6 180.176 127.78 180.003 128.02C179.843 128.247 179.763 128.52 179.763 128.84V129.4ZM195.214 135.18C194.441 135.18 193.727 134.993 193.074 134.62C192.421 134.233 191.894 133.727 191.494 133.1C191.094 132.473 190.894 131.8 190.894 131.08V129.44C190.894 128.72 191.087 128.053 191.474 127.44C191.861 126.813 192.381 126.313 193.034 125.94C193.701 125.567 194.427 125.38 195.214 125.38C196.001 125.38 196.721 125.567 197.374 125.94C198.041 126.3 198.567 126.787 198.954 127.4C199.354 128.013 199.554 128.693 199.554 129.44V131.08C199.554 131.787 199.354 132.453 198.954 133.08C198.554 133.707 198.021 134.213 197.354 134.6C196.701 134.987 195.987 135.18 195.214 135.18ZM195.214 132.92C195.534 132.92 195.827 132.833 196.094 132.66C196.361 132.487 196.574 132.26 196.734 131.98C196.894 131.687 196.974 131.387 196.974 131.08V129.44C196.974 129.133 196.894 128.847 196.734 128.58C196.574 128.313 196.361 128.093 196.094 127.92C195.841 127.733 195.547 127.64 195.214 127.64C194.894 127.64 194.601 127.727 194.334 127.9C194.067 128.073 193.854 128.3 193.694 128.58C193.547 128.847 193.474 129.133 193.474 129.44V131.08C193.474 131.387 193.547 131.687 193.694 131.98C193.854 132.26 194.067 132.487 194.334 132.66C194.601 132.833 194.894 132.92 195.214 132.92ZM202.475 135C202.115 135 201.815 134.927 201.575 134.78C201.335 134.62 201.215 134.42 201.215 134.18V123.88C201.215 123.133 201.375 122.467 201.695 121.88C202.015 121.28 202.442 120.813 202.975 120.48C203.509 120.133 204.095 119.96 204.735 119.96H205.915C206.235 119.96 206.475 120.073 206.635 120.3C206.809 120.527 206.895 120.773 206.895 121.04C206.895 121.333 206.809 121.593 206.635 121.82C206.475 122.033 206.235 122.14 205.915 122.14H205.275C204.995 122.14 204.742 122.2 204.515 122.32C204.289 122.44 204.109 122.607 203.975 122.82C203.855 123.033 203.795 123.293 203.795 123.6V125.5H206.235C206.449 125.5 206.609 125.6 206.715 125.8C206.835 125.987 206.895 126.2 206.895 126.44C206.895 126.68 206.835 126.9 206.715 127.1C206.609 127.287 206.449 127.38 206.235 127.38H203.795V134.18C203.795 134.42 203.662 134.62 203.395 134.78C203.142 134.927 202.835 135 202.475 135ZM213.256 135C212.896 135 212.596 134.913 212.356 134.74C212.116 134.567 211.996 134.373 211.996 134.16V126.3C211.996 126.06 212.116 125.867 212.356 125.72C212.596 125.573 212.896 125.5 213.256 125.5C213.589 125.5 213.863 125.573 214.076 125.72C214.303 125.867 214.416 126.06 214.416 126.3V127.12C214.563 126.827 214.756 126.553 214.996 126.3C215.249 126.033 215.536 125.813 215.856 125.64C216.176 125.467 216.516 125.38 216.876 125.38H217.496C217.749 125.38 217.969 125.493 218.156 125.72C218.343 125.933 218.436 126.193 218.436 126.5C218.436 126.82 218.343 127.093 218.156 127.32C217.969 127.533 217.749 127.64 217.496 127.64H216.876C216.503 127.64 216.136 127.767 215.776 128.02C215.429 128.26 215.143 128.6 214.916 129.04C214.689 129.467 214.576 129.987 214.576 130.6V134.16C214.576 134.373 214.449 134.567 214.196 134.74C213.943 134.913 213.629 135 213.256 135ZM220.776 123.38C220.389 123.38 220.056 123.253 219.776 123C219.496 122.733 219.356 122.44 219.356 122.12C219.356 121.773 219.496 121.48 219.776 121.24C220.056 120.987 220.389 120.86 220.776 120.86C221.176 120.86 221.509 120.987 221.776 121.24C222.043 121.48 222.176 121.773 222.176 122.12C222.176 122.44 222.043 122.733 221.776 123C221.509 123.253 221.176 123.38 220.776 123.38ZM220.776 135C220.403 135 220.096 134.913 219.856 134.74C219.616 134.567 219.496 134.373 219.496 134.16V126.3C219.496 126.06 219.616 125.867 219.856 125.72C220.096 125.573 220.403 125.5 220.776 125.5C221.136 125.5 221.443 125.573 221.696 125.72C221.949 125.867 222.076 126.06 222.076 126.3V134.16C222.076 134.373 221.949 134.567 221.696 134.74C221.443 134.913 221.136 135 220.776 135ZM228.067 135.18C227.054 135.18 226.227 135 225.587 134.64C224.947 134.28 224.474 133.793 224.167 133.18C223.86 132.553 223.707 131.853 223.707 131.08V129.48C223.707 128.707 223.854 128.013 224.147 127.4C224.454 126.773 224.927 126.28 225.567 125.92C226.22 125.56 227.04 125.38 228.027 125.38C228.654 125.38 229.207 125.453 229.687 125.6C230.167 125.747 230.547 125.94 230.827 126.18C231.107 126.42 231.247 126.673 231.247 126.94C231.247 127.1 231.2 127.28 231.107 127.48C231.027 127.667 230.907 127.833 230.747 127.98C230.6 128.127 230.427 128.2 230.227 128.2C230.08 128.2 229.927 128.153 229.767 128.06C229.62 127.967 229.427 127.873 229.187 127.78C228.947 127.687 228.627 127.64 228.227 127.64C227.547 127.64 227.054 127.807 226.747 128.14C226.44 128.46 226.287 128.907 226.287 129.48V131.08C226.287 131.653 226.44 132.107 226.747 132.44C227.054 132.76 227.554 132.92 228.247 132.92C228.66 132.92 228.98 132.867 229.207 132.76C229.434 132.653 229.62 132.553 229.767 132.46C229.927 132.367 230.087 132.32 230.247 132.32C230.487 132.32 230.687 132.387 230.847 132.52C231.02 132.653 231.147 132.82 231.227 133.02C231.32 133.207 231.367 133.38 231.367 133.54C231.367 133.807 231.22 134.067 230.927 134.32C230.647 134.573 230.254 134.78 229.747 134.94C229.254 135.1 228.694 135.18 228.067 135.18ZM237.082 135.18C236.135 135.18 235.295 135.013 234.562 134.68C233.842 134.333 233.275 133.853 232.862 133.24C232.448 132.613 232.242 131.893 232.242 131.08V129.38C232.242 128.66 232.435 128 232.822 127.4C233.222 126.787 233.748 126.3 234.402 125.94C235.068 125.567 235.808 125.38 236.622 125.38C237.368 125.38 238.048 125.54 238.662 125.86C239.288 126.18 239.795 126.62 240.182 127.18C240.568 127.74 240.762 128.393 240.762 129.14C240.762 129.713 240.668 130.127 240.482 130.38C240.295 130.62 240.055 130.773 239.762 130.84C239.482 130.893 239.188 130.92 238.882 130.92H234.822V131.22C234.822 131.793 235.035 132.26 235.462 132.62C235.902 132.967 236.468 133.14 237.162 133.14C237.602 133.14 237.968 133.073 238.262 132.94C238.555 132.807 238.808 132.68 239.022 132.56C239.235 132.44 239.435 132.38 239.622 132.38C239.822 132.38 239.995 132.447 240.142 132.58C240.288 132.713 240.402 132.873 240.482 133.06C240.562 133.233 240.602 133.387 240.602 133.52C240.602 133.747 240.455 133.993 240.162 134.26C239.882 134.513 239.475 134.733 238.942 134.92C238.422 135.093 237.802 135.18 237.082 135.18ZM234.822 129.4H237.742C237.968 129.4 238.122 129.367 238.202 129.3C238.295 129.22 238.342 129.073 238.342 128.86C238.342 128.553 238.255 128.28 238.082 128.04C237.922 127.8 237.708 127.613 237.442 127.48C237.188 127.347 236.902 127.28 236.582 127.28C236.275 127.28 235.988 127.347 235.722 127.48C235.455 127.6 235.235 127.78 235.062 128.02C234.902 128.247 234.822 128.52 234.822 128.84V129.4ZM80.3534 162C79.1534 162 78.2334 161.74 77.5934 161.22C76.9667 160.7 76.6534 159.873 76.6534 158.74V149.06C76.6534 148.82 76.7934 148.627 77.0734 148.48C77.3534 148.333 77.64 148.26 77.9334 148.26C78.2534 148.26 78.5467 148.333 78.8134 148.48C79.0934 148.627 79.2334 148.82 79.2334 149.06V152.5H81.5934C81.8067 152.5 81.9667 152.6 82.0734 152.8C82.1934 152.987 82.2534 153.2 82.2534 153.44C82.2534 153.68 82.1934 153.9 82.0734 154.1C81.9667 154.287 81.8067 154.38 81.5934 154.38H79.2334V158.74C79.2334 159.14 79.3134 159.42 79.4734 159.58C79.6467 159.74 79.94 159.82 80.3534 159.82H81.1334C81.5067 159.82 81.78 159.933 81.9534 160.16C82.14 160.387 82.2334 160.633 82.2334 160.9C82.2334 161.18 82.14 161.433 81.9534 161.66C81.78 161.887 81.5067 162 81.1334 162H80.3534ZM84.8684 162C84.495 162 84.1884 161.913 83.9484 161.74C83.7084 161.567 83.5884 161.373 83.5884 161.16V147.76C83.5884 147.52 83.7084 147.327 83.9484 147.18C84.1884 147.033 84.495 146.96 84.8684 146.96C85.2284 146.96 85.535 147.033 85.7884 147.18C86.0417 147.327 86.1684 147.52 86.1684 147.76V153.9C86.3684 153.513 86.6817 153.167 87.1084 152.86C87.535 152.54 88.0617 152.38 88.6884 152.38C89.315 152.38 89.8884 152.567 90.4084 152.94C90.9284 153.3 91.3417 153.787 91.6484 154.4C91.9684 155.013 92.1284 155.693 92.1284 156.44V161.16C92.1284 161.44 91.995 161.653 91.7284 161.8C91.4617 161.933 91.1617 162 90.8284 162C90.535 162 90.2484 161.933 89.9684 161.8C89.6884 161.653 89.5484 161.44 89.5484 161.16V156.44C89.5484 156.133 89.4684 155.847 89.3084 155.58C89.1484 155.313 88.935 155.093 88.6684 154.92C88.415 154.733 88.1284 154.64 87.8084 154.64C87.5417 154.64 87.2817 154.713 87.0284 154.86C86.775 155.007 86.5684 155.213 86.4084 155.48C86.2484 155.747 86.1684 156.067 86.1684 156.44V161.16C86.1684 161.373 86.0417 161.567 85.7884 161.74C85.535 161.913 85.2284 162 84.8684 162ZM98.5366 162.18C97.59 162.18 96.75 162.013 96.0166 161.68C95.2966 161.333 94.73 160.853 94.3166 160.24C93.9033 159.613 93.6966 158.893 93.6966 158.08V156.38C93.6966 155.66 93.89 155 94.2766 154.4C94.6766 153.787 95.2033 153.3 95.8566 152.94C96.5233 152.567 97.2633 152.38 98.0766 152.38C98.8233 152.38 99.5033 152.54 100.117 152.86C100.743 153.18 101.25 153.62 101.637 154.18C102.023 154.74 102.217 155.393 102.217 156.14C102.217 156.713 102.123 157.127 101.937 157.38C101.75 157.62 101.51 157.773 101.217 157.84C100.937 157.893 100.643 157.92 100.337 157.92H96.2766V158.22C96.2766 158.793 96.49 159.26 96.9166 159.62C97.3566 159.967 97.9233 160.14 98.6166 160.14C99.0566 160.14 99.4233 160.073 99.7166 159.94C100.01 159.807 100.263 159.68 100.477 159.56C100.69 159.44 100.89 159.38 101.077 159.38C101.277 159.38 101.45 159.447 101.597 159.58C101.743 159.713 101.857 159.873 101.937 160.06C102.017 160.233 102.057 160.387 102.057 160.52C102.057 160.747 101.91 160.993 101.617 161.26C101.337 161.513 100.93 161.733 100.397 161.92C99.8766 162.093 99.2566 162.18 98.5366 162.18ZM96.2766 156.4H99.1966C99.4233 156.4 99.5766 156.367 99.6566 156.3C99.75 156.22 99.7966 156.073 99.7966 155.86C99.7966 155.553 99.71 155.28 99.5366 155.04C99.3766 154.8 99.1633 154.613 98.8966 154.48C98.6433 154.347 98.3566 154.28 98.0366 154.28C97.73 154.28 97.4433 154.347 97.1766 154.48C96.91 154.6 96.69 154.78 96.5166 155.02C96.3566 155.247 96.2766 155.52 96.2766 155.84V156.4ZM104.044 166.42C103.71 166.42 103.43 166.353 103.204 166.22C102.977 166.1 102.864 165.8 102.864 165.32C102.864 165.027 102.91 164.773 103.004 164.56C103.11 164.347 103.284 164.24 103.524 164.24C103.75 164.24 104.01 164.2 104.304 164.12C104.61 164.04 104.917 163.887 105.224 163.66C105.53 163.447 105.79 163.147 106.004 162.76C106.217 162.387 106.344 161.9 106.384 161.3L102.944 153.94C102.89 153.82 102.864 153.707 102.864 153.6C102.864 153.373 102.957 153.167 103.144 152.98C103.344 152.793 103.577 152.647 103.844 152.54C104.11 152.42 104.357 152.36 104.584 152.36C104.744 152.36 104.89 152.393 105.024 152.46C105.17 152.527 105.27 152.64 105.324 152.8L107.724 158.78L109.644 152.8C109.71 152.64 109.81 152.527 109.944 152.46C110.077 152.393 110.21 152.36 110.344 152.36C110.544 152.36 110.784 152.42 111.064 152.54C111.344 152.647 111.584 152.8 111.784 153C111.997 153.187 112.104 153.4 112.104 153.64C112.104 153.76 112.084 153.86 112.044 153.94L109.124 161.4C108.884 162 108.65 162.593 108.424 163.18C108.197 163.78 107.91 164.32 107.564 164.8C107.23 165.293 106.784 165.687 106.224 165.98C105.664 166.273 104.937 166.42 104.044 166.42ZM121.26 162.18C120.247 162.18 119.42 162 118.78 161.64C118.14 161.28 117.667 160.793 117.36 160.18C117.054 159.553 116.9 158.853 116.9 158.08V156.48C116.9 155.707 117.047 155.013 117.34 154.4C117.647 153.773 118.12 153.28 118.76 152.92C119.414 152.56 120.234 152.38 121.22 152.38C121.847 152.38 122.4 152.453 122.88 152.6C123.36 152.747 123.74 152.94 124.02 153.18C124.3 153.42 124.44 153.673 124.44 153.94C124.44 154.1 124.394 154.28 124.3 154.48C124.22 154.667 124.1 154.833 123.94 154.98C123.794 155.127 123.62 155.2 123.42 155.2C123.274 155.2 123.12 155.153 122.96 155.06C122.814 154.967 122.62 154.873 122.38 154.78C122.14 154.687 121.82 154.64 121.42 154.64C120.74 154.64 120.247 154.807 119.94 155.14C119.634 155.46 119.48 155.907 119.48 156.48V158.08C119.48 158.653 119.634 159.107 119.94 159.44C120.247 159.76 120.747 159.92 121.44 159.92C121.854 159.92 122.174 159.867 122.4 159.76C122.627 159.653 122.814 159.553 122.96 159.46C123.12 159.367 123.28 159.32 123.44 159.32C123.68 159.32 123.88 159.387 124.04 159.52C124.214 159.653 124.34 159.82 124.42 160.02C124.514 160.207 124.56 160.38 124.56 160.54C124.56 160.807 124.414 161.067 124.12 161.32C123.84 161.573 123.447 161.78 122.94 161.94C122.447 162.1 121.887 162.18 121.26 162.18ZM129.755 162.18C128.982 162.18 128.268 161.993 127.615 161.62C126.962 161.233 126.435 160.727 126.035 160.1C125.635 159.473 125.435 158.8 125.435 158.08V156.44C125.435 155.72 125.628 155.053 126.015 154.44C126.402 153.813 126.922 153.313 127.575 152.94C128.242 152.567 128.968 152.38 129.755 152.38C130.542 152.38 131.262 152.567 131.915 152.94C132.582 153.3 133.108 153.787 133.495 154.4C133.895 155.013 134.095 155.693 134.095 156.44V158.08C134.095 158.787 133.895 159.453 133.495 160.08C133.095 160.707 132.562 161.213 131.895 161.6C131.242 161.987 130.528 162.18 129.755 162.18ZM129.755 159.92C130.075 159.92 130.368 159.833 130.635 159.66C130.902 159.487 131.115 159.26 131.275 158.98C131.435 158.687 131.515 158.387 131.515 158.08V156.44C131.515 156.133 131.435 155.847 131.275 155.58C131.115 155.313 130.902 155.093 130.635 154.92C130.382 154.733 130.088 154.64 129.755 154.64C129.435 154.64 129.142 154.727 128.875 154.9C128.608 155.073 128.395 155.3 128.235 155.58C128.088 155.847 128.015 156.133 128.015 156.44V158.08C128.015 158.387 128.088 158.687 128.235 158.98C128.395 159.26 128.608 159.487 128.875 159.66C129.142 159.833 129.435 159.92 129.755 159.92ZM139.996 162.18C139.196 162.18 138.463 161.993 137.796 161.62C137.143 161.233 136.616 160.733 136.216 160.12C135.83 159.493 135.636 158.827 135.636 158.12V153.32C135.636 153.12 135.763 152.933 136.016 152.76C136.283 152.587 136.59 152.5 136.936 152.5C137.283 152.5 137.583 152.587 137.836 152.76C138.09 152.933 138.216 153.12 138.216 153.32V158.12C138.216 158.427 138.296 158.713 138.456 158.98C138.616 159.247 138.83 159.473 139.096 159.66C139.363 159.833 139.656 159.92 139.976 159.92C140.31 159.92 140.603 159.833 140.856 159.66C141.123 159.487 141.336 159.26 141.496 158.98C141.656 158.7 141.736 158.413 141.736 158.12V153.3C141.736 153.087 141.863 152.9 142.116 152.74C142.383 152.58 142.683 152.5 143.016 152.5C143.403 152.5 143.716 152.58 143.956 152.74C144.196 152.9 144.316 153.087 144.316 153.3V158.12C144.316 158.84 144.116 159.513 143.716 160.14C143.33 160.753 142.803 161.247 142.136 161.62C141.483 161.993 140.77 162.18 139.996 162.18ZM147.685 162C147.311 162 147.005 161.913 146.765 161.74C146.525 161.567 146.405 161.373 146.405 161.16V147.76C146.405 147.52 146.525 147.327 146.765 147.18C147.005 147.033 147.311 146.96 147.685 146.96C148.045 146.96 148.351 147.033 148.605 147.18C148.858 147.327 148.985 147.52 148.985 147.76V161.16C148.985 161.373 148.858 161.567 148.605 161.74C148.351 161.913 148.045 162 147.685 162ZM154.326 162.18C153.699 162.18 153.119 161.987 152.586 161.6C152.053 161.213 151.626 160.707 151.306 160.08C150.986 159.453 150.826 158.787 150.826 158.08V156.44C150.826 155.693 150.986 155.013 151.306 154.4C151.626 153.787 152.053 153.3 152.586 152.94C153.119 152.567 153.713 152.38 154.366 152.38C154.993 152.38 155.526 152.54 155.966 152.86C156.406 153.167 156.733 153.513 156.946 153.9V147.76C156.946 147.52 157.073 147.327 157.326 147.18C157.579 147.033 157.893 146.96 158.266 146.96C158.626 146.96 158.926 147.033 159.166 147.18C159.406 147.327 159.526 147.52 159.526 147.76V161.16C159.526 161.373 159.406 161.567 159.166 161.74C158.926 161.913 158.626 162 158.266 162C157.946 162 157.673 161.913 157.446 161.74C157.219 161.567 157.106 161.373 157.106 161.16V160.6C156.906 161.013 156.546 161.38 156.026 161.7C155.519 162.02 154.953 162.18 154.326 162.18ZM155.146 159.92C155.493 159.92 155.799 159.827 156.066 159.64C156.333 159.44 156.546 159.227 156.706 159C156.866 158.76 156.946 158.573 156.946 158.44V156.44C156.946 156.067 156.853 155.747 156.666 155.48C156.493 155.213 156.266 155.007 155.986 154.86C155.719 154.713 155.446 154.64 155.166 154.64C154.846 154.64 154.546 154.733 154.266 154.92C153.999 155.093 153.786 155.313 153.626 155.58C153.479 155.847 153.406 156.133 153.406 156.44V158.08C153.406 158.387 153.479 158.68 153.626 158.96C153.786 159.24 153.999 159.473 154.266 159.66C154.533 159.833 154.826 159.92 155.146 159.92ZM169.281 166.42C168.494 166.42 167.761 166.307 167.081 166.08C166.414 165.867 165.874 165.547 165.461 165.12C165.061 164.693 164.861 164.187 164.861 163.6C164.861 163.093 165.001 162.66 165.281 162.3C165.561 161.953 165.908 161.68 166.321 161.48C166.068 161.36 165.861 161.2 165.701 161C165.554 160.787 165.481 160.52 165.481 160.2C165.481 159.827 165.574 159.527 165.761 159.3C165.961 159.06 166.208 158.84 166.501 158.64C166.101 158.333 165.788 157.967 165.561 157.54C165.348 157.1 165.241 156.62 165.241 156.1V155.68C165.241 155.027 165.401 154.453 165.721 153.96C166.054 153.467 166.514 153.08 167.101 152.8C167.701 152.52 168.388 152.38 169.161 152.38C169.601 152.38 170.014 152.433 170.401 152.54C170.788 152.633 171.134 152.773 171.441 152.96C171.668 152.427 171.881 152.067 172.081 151.88C172.281 151.693 172.474 151.6 172.661 151.6C172.981 151.6 173.228 151.693 173.401 151.88C173.588 152.067 173.681 152.24 173.681 152.4C173.681 152.52 173.648 152.627 173.581 152.72C173.528 152.813 173.454 152.893 173.361 152.96C173.228 153.04 173.074 153.14 172.901 153.26C172.728 153.367 172.568 153.52 172.421 153.72C172.661 153.987 172.834 154.287 172.941 154.62C173.061 154.94 173.121 155.293 173.121 155.68V156.1C173.121 156.74 172.954 157.313 172.621 157.82C172.288 158.313 171.821 158.707 171.221 159C170.621 159.293 169.934 159.44 169.161 159.44C168.681 159.44 168.248 159.38 167.861 159.26C167.794 159.313 167.734 159.373 167.681 159.44C167.641 159.507 167.621 159.58 167.621 159.66C167.621 159.887 167.768 160.047 168.061 160.14C168.354 160.233 168.728 160.307 169.181 160.36C169.634 160.413 170.114 160.487 170.621 160.58C171.141 160.66 171.628 160.793 172.081 160.98C172.534 161.167 172.908 161.447 173.201 161.82C173.494 162.18 173.641 162.667 173.641 163.28C173.641 164.027 173.428 164.627 173.001 165.08C172.588 165.547 172.048 165.887 171.381 166.1C170.728 166.313 170.028 166.42 169.281 166.42ZM169.241 164.76C169.761 164.76 170.201 164.633 170.561 164.38C170.934 164.127 171.121 163.787 171.121 163.36C171.121 163.08 171.041 162.853 170.881 162.68C170.721 162.507 170.501 162.373 170.221 162.28C169.954 162.2 169.661 162.133 169.341 162.08C169.021 162.04 168.701 162 168.381 161.96C168.061 162.107 167.801 162.293 167.601 162.52C167.401 162.747 167.301 163.02 167.301 163.34C167.301 163.78 167.488 164.127 167.861 164.38C168.248 164.633 168.708 164.76 169.241 164.76ZM169.201 157.88C169.641 157.88 169.988 157.713 170.241 157.38C170.494 157.047 170.621 156.62 170.621 156.1V155.68C170.621 155.187 170.494 154.773 170.241 154.44C170.001 154.107 169.648 153.94 169.181 153.94C168.728 153.94 168.374 154.107 168.121 154.44C167.881 154.773 167.761 155.187 167.761 155.68V156.08C167.761 156.587 167.881 157.013 168.121 157.36C168.374 157.707 168.734 157.88 169.201 157.88ZM179.376 162.18C178.43 162.18 177.59 162.013 176.856 161.68C176.136 161.333 175.57 160.853 175.156 160.24C174.743 159.613 174.536 158.893 174.536 158.08V156.38C174.536 155.66 174.73 155 175.116 154.4C175.516 153.787 176.043 153.3 176.696 152.94C177.363 152.567 178.103 152.38 178.916 152.38C179.663 152.38 180.343 152.54 180.956 152.86C181.583 153.18 182.09 153.62 182.476 154.18C182.863 154.74 183.056 155.393 183.056 156.14C183.056 156.713 182.963 157.127 182.776 157.38C182.59 157.62 182.35 157.773 182.056 157.84C181.776 157.893 181.483 157.92 181.176 157.92H177.116V158.22C177.116 158.793 177.33 159.26 177.756 159.62C178.196 159.967 178.763 160.14 179.456 160.14C179.896 160.14 180.263 160.073 180.556 159.94C180.85 159.807 181.103 159.68 181.316 159.56C181.53 159.44 181.73 159.38 181.916 159.38C182.116 159.38 182.29 159.447 182.436 159.58C182.583 159.713 182.696 159.873 182.776 160.06C182.856 160.233 182.896 160.387 182.896 160.52C182.896 160.747 182.75 160.993 182.456 161.26C182.176 161.513 181.77 161.733 181.236 161.92C180.716 162.093 180.096 162.18 179.376 162.18ZM177.116 156.4H180.036C180.263 156.4 180.416 156.367 180.496 156.3C180.59 156.22 180.636 156.073 180.636 155.86C180.636 155.553 180.55 155.28 180.376 155.04C180.216 154.8 180.003 154.613 179.736 154.48C179.483 154.347 179.196 154.28 178.876 154.28C178.57 154.28 178.283 154.347 178.016 154.48C177.75 154.6 177.53 154.78 177.356 155.02C177.196 155.247 177.116 155.52 177.116 155.84V156.4ZM188.264 162C187.064 162 186.144 161.74 185.504 161.22C184.877 160.7 184.564 159.873 184.564 158.74V149.06C184.564 148.82 184.704 148.627 184.984 148.48C185.264 148.333 185.55 148.26 185.844 148.26C186.164 148.26 186.457 148.333 186.724 148.48C187.004 148.627 187.144 148.82 187.144 149.06V152.5H189.504C189.717 152.5 189.877 152.6 189.984 152.8C190.104 152.987 190.164 153.2 190.164 153.44C190.164 153.68 190.104 153.9 189.984 154.1C189.877 154.287 189.717 154.38 189.504 154.38H187.144V158.74C187.144 159.14 187.224 159.42 187.384 159.58C187.557 159.74 187.85 159.82 188.264 159.82H189.044C189.417 159.82 189.69 159.933 189.864 160.16C190.05 160.387 190.144 160.633 190.144 160.9C190.144 161.18 190.05 161.433 189.864 161.66C189.69 161.887 189.417 162 189.044 162H188.264ZM192.399 162.12C192.012 162.12 191.685 161.987 191.419 161.72C191.165 161.44 191.039 161.12 191.039 160.76C191.039 160.387 191.165 160.067 191.419 159.8C191.685 159.533 192.012 159.4 192.399 159.4C192.759 159.4 193.072 159.533 193.339 159.8C193.605 160.067 193.739 160.387 193.739 160.76C193.739 161.12 193.605 161.44 193.339 161.72C193.072 161.987 192.759 162.12 192.399 162.12Z" fill="#578FFE"/>
</g>
<defs>
<filter id="filter0_d_1930_38" x="0" y="0" width="275" height="275" filterUnits="userSpaceOnUse" color-interpolation-filters="sRGB">
<feFlood flood-opacity="0" result="BackgroundImageFix"/>
<feColorMatrix in="SourceAlpha" type="matrix" values="0 0 0 0 0 0 0 0 0 0 0 0 0 0 0 0 0 0 127 0" result="hardAlpha"/>
<feOffset dx="5" dy="5"/>
<feComposite in2="hardAlpha" operator="out"/>
<feColorMatrix type="matrix" values="0 0 0 0 0.956863 0 0 0 0 0.490196 0 0 0 0 0.380392 0 0 0 1 0"/>
<feBlend mode="normal" in2="BackgroundImageFix" result="effect1_dropShadow_1930_38"/>
<feBlend mode="normal" in="SourceGraphic" in2="effect1_dropShadow_1930_38" result="shape"/>
</filter>
<filter id="filter1_d_1930_38" x="98" y="217" width="75" height="31" filterUnits="userSpaceOnUse" color-interpolation-filters="sRGB">
<feFlood flood-opacity="0" result="BackgroundImageFix"/>
<feColorMatrix in="SourceAlpha" type="matrix" values="0 0 0 0 0 0 0 0 0 0 0 0 0 0 0 0 0 0 127 0" result="hardAlpha"/>
<feOffset dx="2" dy="2"/>
<feComposite in2="hardAlpha" operator="out"/>
<feColorMatrix type="matrix" values="0 0 0 0 1 0 0 0 0 0 0 0 0 0 0.509804 0 0 0 1 0"/>
<feBlend mode="normal" in2="BackgroundImageFix" result="effect1_dropShadow_1930_38"/>
<feBlend mode="normal" in="SourceGraphic" in2="effect1_dropShadow_1930_38" result="shape"/>
</filter>
</defs>
</svg>
