<svg width="275" height="275" viewBox="0 0 275 275" fill="none" xmlns="http://www.w3.org/2000/svg">
<g filter="url(#filter0_d_1930_38)">
<rect width="270" height="270" rx="50" fill="#F9E6E0"/>
<rect x="0.5" y="0.5" width="269" height="269" rx="49.5" stroke="#FFD208"/>
<g filter="url(#filter1_d_1930_38)">
<path d="M98 217H161C166.523 217 171 221.477 171 227V246H108C102.477 246 98 241.523 98 236V217Z" fill="white"/>
<path d="M98.5 217.5H161C166.247 217.5 170.5 221.753 170.5 227V245.5H108C102.753 245.5 98.5 241.247 98.5 236V217.5Z" stroke="#F7CFE5"/>
<path d="M120.219 237C119.995 237 119.785 236.953 119.589 236.86C119.402 236.757 119.309 236.608 119.309 236.412V227.34C119.309 227.144 119.402 226.999 119.589 226.906C119.785 226.813 119.995 226.766 120.219 226.766C120.443 226.766 120.625 226.789 120.765 226.836C120.914 226.883 121.049 226.976 121.171 227.116C121.301 227.247 121.437 227.452 121.577 227.732L124.279 232.954V227.34C124.279 227.135 124.372 226.99 124.559 226.906C124.755 226.813 124.965 226.766 125.189 226.766C125.422 226.766 125.632 226.813 125.819 226.906C126.005 226.99 126.099 227.135 126.099 227.34V236.412C126.099 236.608 126.005 236.757 125.819 236.86C125.632 236.953 125.422 237 125.189 237C124.974 237 124.773 236.958 124.587 236.874C124.409 236.79 124.265 236.641 124.153 236.426L121.129 230.798V236.412C121.129 236.608 121.035 236.757 120.849 236.86C120.662 236.953 120.452 237 120.219 237ZM128.597 237C128.401 237 128.219 236.953 128.051 236.86C127.883 236.757 127.799 236.608 127.799 236.412V227.354C127.799 227.158 127.883 227.013 128.051 226.92C128.219 226.817 128.401 226.766 128.597 226.766H133.581C133.786 226.766 133.931 226.85 134.015 227.018C134.108 227.186 134.155 227.363 134.155 227.55C134.155 227.774 134.104 227.965 134.001 228.124C133.908 228.283 133.768 228.362 133.581 228.362H129.619V231.162H131.747C131.934 231.162 132.074 231.237 132.167 231.386C132.27 231.526 132.321 231.694 132.321 231.89C132.321 232.049 132.274 232.207 132.181 232.366C132.097 232.515 131.952 232.59 131.747 232.59H129.619V235.404H133.581C133.768 235.404 133.908 235.483 134.001 235.642C134.104 235.801 134.155 235.992 134.155 236.216C134.155 236.403 134.108 236.58 134.015 236.748C133.931 236.916 133.786 237 133.581 237H128.597ZM135.755 237.07C135.587 237.07 135.409 237.028 135.223 236.944C135.036 236.86 134.877 236.753 134.747 236.622C134.616 236.482 134.551 236.328 134.551 236.16C134.551 236.057 134.588 235.945 134.663 235.824L137.085 231.876L134.747 227.942C134.663 227.811 134.621 227.681 134.621 227.55C134.621 227.391 134.681 227.247 134.803 227.116C134.924 226.985 135.073 226.883 135.251 226.808C135.437 226.733 135.615 226.696 135.783 226.696C135.932 226.696 136.053 226.733 136.147 226.808C136.249 226.873 136.329 226.967 136.385 227.088L138.289 230.518L140.207 227.088C140.272 226.967 140.351 226.873 140.445 226.808C140.547 226.733 140.669 226.696 140.809 226.696C140.986 226.696 141.163 226.733 141.341 226.808C141.518 226.883 141.667 226.985 141.789 227.116C141.91 227.247 141.971 227.391 141.971 227.55C141.971 227.681 141.929 227.811 141.845 227.942L139.507 231.876L141.929 235.824C142.003 235.945 142.041 236.057 142.041 236.16C142.041 236.328 141.975 236.482 141.845 236.622C141.714 236.753 141.555 236.86 141.369 236.944C141.191 237.028 141.014 237.07 140.837 237.07C140.734 237.07 140.636 237.042 140.543 236.986C140.459 236.93 140.393 236.86 140.347 236.776L138.289 233.178L136.245 236.776C136.198 236.86 136.128 236.93 136.035 236.986C135.951 237.042 135.857 237.07 135.755 237.07ZM145.871 237C145.638 237 145.428 236.953 145.241 236.86C145.054 236.757 144.961 236.608 144.961 236.412V228.404H142.903C142.726 228.404 142.586 228.32 142.483 228.152C142.38 227.984 142.329 227.793 142.329 227.578C142.329 227.382 142.376 227.2 142.469 227.032C142.562 226.855 142.707 226.766 142.903 226.766H148.825C149.03 226.766 149.175 226.855 149.259 227.032C149.352 227.2 149.399 227.382 149.399 227.578C149.399 227.793 149.348 227.984 149.245 228.152C149.152 228.32 149.012 228.404 148.825 228.404H146.781V236.412C146.781 236.608 146.683 236.757 146.487 236.86C146.3 236.953 146.095 237 145.871 237Z" fill="#FF0082"/>
</g>
<path d="M46.4416 68C46.0949 68 45.8149 67.92 45.6016 67.76C45.4016 67.6 45.3016 67.4067 45.3016 67.18V54.2C45.3016 53.9733 45.4016 53.78 45.6016 53.62C45.8149 53.46 46.0949 53.38 46.4416 53.38H49.9816C50.8749 53.38 51.6749 53.5333 52.3816 53.84C53.0882 54.1333 53.6482 54.62 54.0616 55.3C54.4882 55.9667 54.7016 56.86 54.7016 57.98V63.4C54.7016 64.52 54.4882 65.42 54.0616 66.1C53.6482 66.7667 53.0882 67.2533 52.3816 67.56C51.6749 67.8533 50.8749 68 49.9816 68H46.4416ZM47.9016 65.72H49.9816C50.6482 65.72 51.1682 65.5333 51.5416 65.16C51.9149 64.7733 52.1016 64.1867 52.1016 63.4V57.98C52.1016 57.1933 51.9149 56.6133 51.5416 56.24C51.1682 55.8533 50.6549 55.66 50.0016 55.66H47.9016V65.72ZM60.9631 68.18C60.1631 68.18 59.4298 67.9933 58.7631 67.62C58.1098 67.2333 57.5831 66.7333 57.1831 66.12C56.7965 65.4933 56.6031 64.8267 56.6031 64.12V59.32C56.6031 59.12 56.7298 58.9333 56.9831 58.76C57.2498 58.5867 57.5565 58.5 57.9031 58.5C58.2498 58.5 58.5498 58.5867 58.8031 58.76C59.0565 58.9333 59.1831 59.12 59.1831 59.32V64.12C59.1831 64.4267 59.2631 64.7133 59.4231 64.98C59.5831 65.2467 59.7965 65.4733 60.0631 65.66C60.3298 65.8333 60.6231 65.92 60.9431 65.92C61.2765 65.92 61.5698 65.8333 61.8231 65.66C62.0898 65.4867 62.3031 65.26 62.4631 64.98C62.6231 64.7 62.7031 64.4133 62.7031 64.12V59.3C62.7031 59.0867 62.8298 58.9 63.0831 58.74C63.3498 58.58 63.6498 58.5 63.9831 58.5C64.3698 58.5 64.6831 58.58 64.9231 58.74C65.1631 58.9 65.2831 59.0867 65.2831 59.3V64.12C65.2831 64.84 65.0831 65.5133 64.6831 66.14C64.2965 66.7533 63.7698 67.2467 63.1031 67.62C62.4498 67.9933 61.7365 68.18 60.9631 68.18ZM68.4514 68C68.0914 68 67.7914 67.9133 67.5514 67.74C67.3114 67.5667 67.1914 67.3733 67.1914 67.16V59.3C67.1914 59.06 67.3114 58.8667 67.5514 58.72C67.7914 58.5733 68.0914 58.5 68.4514 58.5C68.7847 58.5 69.0581 58.5733 69.2714 58.72C69.4981 58.8667 69.6114 59.06 69.6114 59.3V60.12C69.7581 59.8267 69.9514 59.5533 70.1914 59.3C70.4447 59.0333 70.7314 58.8133 71.0514 58.64C71.3714 58.4667 71.7114 58.38 72.0714 58.38H72.6914C72.9447 58.38 73.1647 58.4933 73.3514 58.72C73.5381 58.9333 73.6314 59.1933 73.6314 59.5C73.6314 59.82 73.5381 60.0933 73.3514 60.32C73.1647 60.5333 72.9447 60.64 72.6914 60.64H72.0714C71.6981 60.64 71.3314 60.7667 70.9714 61.02C70.6247 61.26 70.3381 61.6 70.1114 62.04C69.8847 62.4667 69.7714 62.9867 69.7714 63.6V67.16C69.7714 67.3733 69.6447 67.5667 69.3914 67.74C69.1381 67.9133 68.8247 68 68.4514 68ZM75.9714 56.38C75.5847 56.38 75.2514 56.2533 74.9714 56C74.6914 55.7333 74.5514 55.44 74.5514 55.12C74.5514 54.7733 74.6914 54.48 74.9714 54.24C75.2514 53.9867 75.5847 53.86 75.9714 53.86C76.3714 53.86 76.7047 53.9867 76.9714 54.24C77.2381 54.48 77.3714 54.7733 77.3714 55.12C77.3714 55.44 77.2381 55.7333 76.9714 56C76.7047 56.2533 76.3714 56.38 75.9714 56.38ZM75.9714 68C75.5981 68 75.2914 67.9133 75.0514 67.74C74.8114 67.5667 74.6914 67.3733 74.6914 67.16V59.3C74.6914 59.06 74.8114 58.8667 75.0514 58.72C75.2914 58.5733 75.5981 58.5 75.9714 58.5C76.3314 58.5 76.6381 58.5733 76.8914 58.72C77.1447 58.8667 77.2714 59.06 77.2714 59.3V67.16C77.2714 67.3733 77.1447 67.5667 76.8914 67.74C76.6381 67.9133 76.3314 68 75.9714 68ZM80.5222 68C80.1489 68 79.8422 67.9133 79.6022 67.74C79.3622 67.5667 79.2422 67.3733 79.2422 67.16V59.3C79.2422 59.06 79.3622 58.8667 79.6022 58.72C79.8422 58.5733 80.1489 58.5 80.5222 58.5C80.8422 58.5 81.1089 58.5733 81.3222 58.72C81.5489 58.8667 81.6622 59.06 81.6622 59.3V59.9C81.8622 59.5133 82.1889 59.1667 82.6422 58.86C83.1089 58.54 83.6755 58.38 84.3422 58.38C84.9689 58.38 85.5422 58.5667 86.0622 58.94C86.5822 59.3 86.9955 59.7867 87.3022 60.4C87.6222 61.0133 87.7822 61.6933 87.7822 62.44V67.16C87.7822 67.44 87.6489 67.6533 87.3822 67.8C87.1155 67.9333 86.8155 68 86.4822 68C86.1889 68 85.9022 67.9333 85.6222 67.8C85.3422 67.6533 85.2022 67.44 85.2022 67.16V62.44C85.2022 62.1333 85.1222 61.8467 84.9622 61.58C84.8155 61.3133 84.6089 61.0933 84.3422 60.92C84.0755 60.7333 83.7822 60.64 83.4622 60.64C83.1955 60.64 82.9355 60.7133 82.6822 60.86C82.4289 61.0067 82.2222 61.2133 82.0622 61.48C81.9022 61.7467 81.8222 62.0667 81.8222 62.44V67.16C81.8222 67.3733 81.6955 67.5667 81.4422 67.74C81.1889 67.9133 80.8822 68 80.5222 68ZM93.4509 72.42C92.6643 72.42 91.9309 72.3067 91.2509 72.08C90.5843 71.8667 90.0443 71.5467 89.6309 71.12C89.2309 70.6933 89.0309 70.1867 89.0309 69.6C89.0309 69.0933 89.1709 68.66 89.4509 68.3C89.7309 67.9533 90.0776 67.68 90.4909 67.48C90.2376 67.36 90.0309 67.2 89.8709 67C89.7243 66.7867 89.6509 66.52 89.6509 66.2C89.6509 65.8267 89.7443 65.5267 89.9309 65.3C90.1309 65.06 90.3776 64.84 90.6709 64.64C90.2709 64.3333 89.9576 63.9667 89.7309 63.54C89.5176 63.1 89.4109 62.62 89.4109 62.1V61.68C89.4109 61.0267 89.5709 60.4533 89.8909 59.96C90.2243 59.4667 90.6843 59.08 91.2709 58.8C91.8709 58.52 92.5576 58.38 93.3309 58.38C93.7709 58.38 94.1843 58.4333 94.5709 58.54C94.9576 58.6333 95.3043 58.7733 95.6109 58.96C95.8376 58.4267 96.0509 58.0667 96.2509 57.88C96.4509 57.6933 96.6443 57.6 96.8309 57.6C97.1509 57.6 97.3976 57.6933 97.5709 57.88C97.7576 58.0667 97.8509 58.24 97.8509 58.4C97.8509 58.52 97.8176 58.6267 97.7509 58.72C97.6976 58.8133 97.6243 58.8933 97.5309 58.96C97.3976 59.04 97.2443 59.14 97.0709 59.26C96.8976 59.3667 96.7376 59.52 96.5909 59.72C96.8309 59.9867 97.0043 60.2867 97.1109 60.62C97.2309 60.94 97.2909 61.2933 97.2909 61.68V62.1C97.2909 62.74 97.1243 63.3133 96.7909 63.82C96.4576 64.3133 95.9909 64.7067 95.3909 65C94.7909 65.2933 94.1043 65.44 93.3309 65.44C92.8509 65.44 92.4176 65.38 92.0309 65.26C91.9643 65.3133 91.9043 65.3733 91.8509 65.44C91.8109 65.5067 91.7909 65.58 91.7909 65.66C91.7909 65.8867 91.9376 66.0467 92.2309 66.14C92.5243 66.2333 92.8976 66.3067 93.3509 66.36C93.8043 66.4133 94.2843 66.4867 94.7909 66.58C95.3109 66.66 95.7976 66.7933 96.2509 66.98C96.7043 67.1667 97.0776 67.4467 97.3709 67.82C97.6643 68.18 97.8109 68.6667 97.8109 69.28C97.8109 70.0267 97.5976 70.6267 97.1709 71.08C96.7576 71.5467 96.2176 71.8867 95.5509 72.1C94.8976 72.3133 94.1976 72.42 93.4509 72.42ZM93.4109 70.76C93.9309 70.76 94.3709 70.6333 94.7309 70.38C95.1043 70.1267 95.2909 69.7867 95.2909 69.36C95.2909 69.08 95.2109 68.8533 95.0509 68.68C94.8909 68.5067 94.6709 68.3733 94.3909 68.28C94.1243 68.2 93.8309 68.1333 93.5109 68.08C93.1909 68.04 92.8709 68 92.5509 67.96C92.2309 68.1067 91.9709 68.2933 91.7709 68.52C91.5709 68.7467 91.4709 69.02 91.4709 69.34C91.4709 69.78 91.6576 70.1267 92.0309 70.38C92.4176 70.6333 92.8776 70.76 93.4109 70.76ZM93.3709 63.88C93.8109 63.88 94.1576 63.7133 94.4109 63.38C94.6643 63.0467 94.7909 62.62 94.7909 62.1V61.68C94.7909 61.1867 94.6643 60.7733 94.4109 60.44C94.1709 60.1067 93.8176 59.94 93.3509 59.94C92.8976 59.94 92.5443 60.1067 92.2909 60.44C92.0509 60.7733 91.9309 61.1867 91.9309 61.68V62.08C91.9309 62.5867 92.0509 63.0133 92.2909 63.36C92.5443 63.7067 92.9043 63.88 93.3709 63.88ZM106.789 68C105.589 68 104.669 67.74 104.029 67.22C103.402 66.7 103.089 65.8733 103.089 64.74V55.06C103.089 54.82 103.229 54.6267 103.509 54.48C103.789 54.3333 104.076 54.26 104.369 54.26C104.689 54.26 104.982 54.3333 105.249 54.48C105.529 54.6267 105.669 54.82 105.669 55.06V58.5H108.029C108.242 58.5 108.402 58.6 108.509 58.8C108.629 58.9867 108.689 59.2 108.689 59.44C108.689 59.68 108.629 59.9 108.509 60.1C108.402 60.2867 108.242 60.38 108.029 60.38H105.669V64.74C105.669 65.14 105.749 65.42 105.909 65.58C106.082 65.74 106.376 65.82 106.789 65.82H107.569C107.942 65.82 108.216 65.9333 108.389 66.16C108.576 66.3867 108.669 66.6333 108.669 66.9C108.669 67.18 108.576 67.4333 108.389 67.66C108.216 67.8867 107.942 68 107.569 68H106.789ZM111.304 68C110.931 68 110.624 67.9133 110.384 67.74C110.144 67.5667 110.024 67.3733 110.024 67.16V53.76C110.024 53.52 110.144 53.3267 110.384 53.18C110.624 53.0333 110.931 52.96 111.304 52.96C111.664 52.96 111.971 53.0333 112.224 53.18C112.477 53.3267 112.604 53.52 112.604 53.76V59.9C112.804 59.5133 113.117 59.1667 113.544 58.86C113.971 58.54 114.497 58.38 115.124 58.38C115.751 58.38 116.324 58.5667 116.844 58.94C117.364 59.3 117.777 59.7867 118.084 60.4C118.404 61.0133 118.564 61.6933 118.564 62.44V67.16C118.564 67.44 118.431 67.6533 118.164 67.8C117.897 67.9333 117.597 68 117.264 68C116.971 68 116.684 67.9333 116.404 67.8C116.124 67.6533 115.984 67.44 115.984 67.16V62.44C115.984 62.1333 115.904 61.8467 115.744 61.58C115.584 61.3133 115.371 61.0933 115.104 60.92C114.851 60.7333 114.564 60.64 114.244 60.64C113.977 60.64 113.717 60.7133 113.464 60.86C113.211 61.0067 113.004 61.2133 112.844 61.48C112.684 61.7467 112.604 62.0667 112.604 62.44V67.16C112.604 67.3733 112.477 67.5667 112.224 67.74C111.971 67.9133 111.664 68 111.304 68ZM124.972 68.18C124.026 68.18 123.186 68.0133 122.452 67.68C121.732 67.3333 121.166 66.8533 120.752 66.24C120.339 65.6133 120.132 64.8933 120.132 64.08V62.38C120.132 61.66 120.326 61 120.712 60.4C121.112 59.7867 121.639 59.3 122.292 58.94C122.959 58.5667 123.699 58.38 124.512 58.38C125.259 58.38 125.939 58.54 126.552 58.86C127.179 59.18 127.686 59.62 128.072 60.18C128.459 60.74 128.652 61.3933 128.652 62.14C128.652 62.7133 128.559 63.1267 128.372 63.38C128.186 63.62 127.946 63.7733 127.652 63.84C127.372 63.8933 127.079 63.92 126.772 63.92H122.712V64.22C122.712 64.7933 122.926 65.26 123.352 65.62C123.792 65.9667 124.359 66.14 125.052 66.14C125.492 66.14 125.859 66.0733 126.152 65.94C126.446 65.8067 126.699 65.68 126.912 65.56C127.126 65.44 127.326 65.38 127.512 65.38C127.712 65.38 127.886 65.4467 128.032 65.58C128.179 65.7133 128.292 65.8733 128.372 66.06C128.452 66.2333 128.492 66.3867 128.492 66.52C128.492 66.7467 128.346 66.9933 128.052 67.26C127.772 67.5133 127.366 67.7333 126.832 67.92C126.312 68.0933 125.692 68.18 124.972 68.18ZM122.712 62.4H125.632C125.859 62.4 126.012 62.3667 126.092 62.3C126.186 62.22 126.232 62.0733 126.232 61.86C126.232 61.5533 126.146 61.28 125.972 61.04C125.812 60.8 125.599 60.6133 125.332 60.48C125.079 60.3467 124.792 60.28 124.472 60.28C124.166 60.28 123.879 60.3467 123.612 60.48C123.346 60.6 123.126 60.78 122.952 61.02C122.792 61.2467 122.712 61.52 122.712 61.84V62.4ZM137.503 68.22C137.276 68.22 137.07 68.1867 136.883 68.12C136.696 68.0533 136.57 67.9267 136.503 67.74L133.403 59.84C133.376 59.7467 133.356 59.6733 133.343 59.62C133.33 59.5533 133.323 59.5 133.323 59.46C133.323 59.2467 133.41 59.0667 133.583 58.92C133.77 58.76 133.996 58.6333 134.263 58.54C134.53 58.4467 134.77 58.4 134.983 58.4C135.156 58.4 135.31 58.4333 135.443 58.5C135.59 58.5667 135.69 58.6733 135.743 58.82L137.743 64.5L139.243 59.56C139.31 59.3333 139.423 59.1933 139.583 59.14C139.743 59.0733 139.923 59.04 140.123 59.04C140.323 59.04 140.503 59.0733 140.663 59.14C140.823 59.1933 140.936 59.3333 141.003 59.56L142.483 64.52L144.503 58.82C144.596 58.54 144.836 58.4 145.223 58.4C145.436 58.4 145.676 58.4467 145.943 58.54C146.21 58.6333 146.436 58.76 146.623 58.92C146.81 59.08 146.903 59.2667 146.903 59.48C146.903 59.5333 146.896 59.5933 146.883 59.66C146.87 59.7267 146.85 59.7867 146.823 59.84L143.723 67.76C143.656 67.9333 143.53 68.0533 143.343 68.12C143.156 68.1867 142.95 68.22 142.723 68.22C142.483 68.22 142.263 68.18 142.063 68.1C141.863 68.02 141.73 67.9067 141.663 67.76L140.123 63.4L138.583 67.74C138.543 67.9 138.416 68.02 138.203 68.1C137.99 68.18 137.756 68.22 137.503 68.22ZM150.091 68.18C149.384 68.18 148.771 67.9667 148.251 67.54C147.744 67.1 147.491 66.4267 147.491 65.52C147.491 64.76 147.684 64.1667 148.071 63.74C148.471 63.3133 149.017 63.0133 149.711 62.84C150.417 62.6667 151.231 62.58 152.151 62.58H152.971V62.32C152.971 62.0267 152.911 61.74 152.791 61.46C152.684 61.18 152.504 60.9467 152.251 60.76C152.011 60.5733 151.664 60.48 151.211 60.48C150.704 60.48 150.311 60.5333 150.031 60.64C149.764 60.7333 149.557 60.8333 149.411 60.94C149.264 61.0467 149.104 61.1 148.931 61.1C148.651 61.1 148.431 60.96 148.271 60.68C148.124 60.4 148.051 60.1133 148.051 59.82C148.051 59.54 148.217 59.2933 148.551 59.08C148.897 58.8533 149.317 58.68 149.811 58.56C150.304 58.44 150.784 58.38 151.251 58.38C152.291 58.38 153.124 58.5667 153.751 58.94C154.377 59.3133 154.831 59.7933 155.111 60.38C155.404 60.9667 155.551 61.6 155.551 62.28V67.16C155.551 67.4 155.431 67.6 155.191 67.76C154.951 67.92 154.651 68 154.291 68C153.957 68 153.677 67.92 153.451 67.76C153.237 67.6 153.131 67.4 153.131 67.16V66.6C152.771 67.0133 152.344 67.38 151.851 67.7C151.371 68.02 150.784 68.18 150.091 68.18ZM151.131 66.26C151.411 66.26 151.691 66.1667 151.971 65.98C152.251 65.7933 152.484 65.5533 152.671 65.26C152.871 64.9667 152.971 64.66 152.971 64.34V63.92H152.671C152.231 63.92 151.811 63.9467 151.411 64C151.011 64.0533 150.684 64.1733 150.431 64.36C150.191 64.5333 150.071 64.8067 150.071 65.18C150.071 65.5533 150.171 65.8267 150.371 66C150.584 66.1733 150.837 66.26 151.131 66.26ZM158.725 68C158.365 68 158.065 67.9133 157.825 67.74C157.585 67.5667 157.465 67.3733 157.465 67.16V59.3C157.465 59.06 157.585 58.8667 157.825 58.72C158.065 58.5733 158.365 58.5 158.725 58.5C159.058 58.5 159.332 58.5733 159.545 58.72C159.772 58.8667 159.885 59.06 159.885 59.3V60.12C160.032 59.8267 160.225 59.5533 160.465 59.3C160.718 59.0333 161.005 58.8133 161.325 58.64C161.645 58.4667 161.985 58.38 162.345 58.38H162.965C163.218 58.38 163.438 58.4933 163.625 58.72C163.812 58.9333 163.905 59.1933 163.905 59.5C163.905 59.82 163.812 60.0933 163.625 60.32C163.438 60.5333 163.218 60.64 162.965 60.64H162.345C161.972 60.64 161.605 60.7667 161.245 61.02C160.898 61.26 160.612 61.6 160.385 62.04C160.158 62.4667 160.045 62.9867 160.045 63.6V67.16C160.045 67.3733 159.918 67.5667 159.665 67.74C159.412 67.9133 159.098 68 158.725 68ZM164.647 70C164.461 70 164.267 69.94 164.067 69.82C163.881 69.7133 163.787 69.5467 163.787 69.32C163.787 69.2267 163.807 69.1333 163.847 69.04L164.327 67.98C164.101 67.8467 163.921 67.68 163.787 67.48C163.654 67.2667 163.587 67.0267 163.587 66.76C163.587 66.3867 163.714 66.0667 163.967 65.8C164.234 65.5333 164.554 65.4 164.927 65.4C165.301 65.4 165.621 65.5333 165.887 65.8C166.154 66.0533 166.287 66.3667 166.287 66.74C166.287 66.7933 166.274 66.8667 166.247 66.96C166.234 67.04 166.194 67.1733 166.127 67.36C166.061 67.5467 165.947 67.82 165.787 68.18C165.641 68.5533 165.441 69.0467 165.187 69.66C165.134 69.78 165.054 69.8667 164.947 69.92C164.841 69.9733 164.741 70 164.647 70ZM173.139 72.42C172.779 72.42 172.479 72.3333 172.239 72.16C171.999 71.9867 171.879 71.8 171.879 71.6V59.3C171.879 59.06 171.999 58.8667 172.239 58.72C172.479 58.5733 172.773 58.5 173.119 58.5C173.466 58.5 173.746 58.5733 173.959 58.72C174.186 58.8667 174.299 59.06 174.299 59.3V59.9C174.526 59.5133 174.873 59.1667 175.339 58.86C175.806 58.54 176.359 58.38 176.999 58.38C177.679 58.38 178.286 58.5667 178.819 58.94C179.366 59.3 179.793 59.7867 180.099 60.4C180.419 61.0133 180.579 61.6933 180.579 62.44V64.08C180.579 64.7867 180.419 65.4533 180.099 66.08C179.779 66.7067 179.353 67.2133 178.819 67.6C178.299 67.9867 177.719 68.18 177.079 68.18C176.493 68.18 175.959 68.02 175.479 67.7C174.999 67.38 174.659 67.0133 174.459 66.6V71.6C174.459 71.8 174.333 71.9867 174.079 72.16C173.826 72.3333 173.513 72.42 173.139 72.42ZM176.239 65.92C176.559 65.92 176.846 65.8333 177.099 65.66C177.366 65.4733 177.579 65.24 177.739 64.96C177.913 64.68 177.999 64.3867 177.999 64.08V62.44C177.999 62.1333 177.919 61.8467 177.759 61.58C177.599 61.3133 177.379 61.0933 177.099 60.92C176.833 60.7333 176.533 60.64 176.199 60.64C175.906 60.64 175.626 60.7133 175.359 60.86C175.106 61.0067 174.893 61.2133 174.719 61.48C174.546 61.7467 174.459 62.0667 174.459 62.44V64.44C174.459 64.5733 174.533 64.76 174.679 65C174.839 65.2267 175.053 65.44 175.319 65.64C175.586 65.8267 175.893 65.92 176.239 65.92ZM186.71 68.18C185.764 68.18 184.924 68.0133 184.19 67.68C183.47 67.3333 182.904 66.8533 182.49 66.24C182.077 65.6133 181.87 64.8933 181.87 64.08V62.38C181.87 61.66 182.064 61 182.45 60.4C182.85 59.7867 183.377 59.3 184.03 58.94C184.697 58.5667 185.437 58.38 186.25 58.38C186.997 58.38 187.677 58.54 188.29 58.86C188.917 59.18 189.424 59.62 189.81 60.18C190.197 60.74 190.39 61.3933 190.39 62.14C190.39 62.7133 190.297 63.1267 190.11 63.38C189.924 63.62 189.684 63.7733 189.39 63.84C189.11 63.8933 188.817 63.92 188.51 63.92H184.45V64.22C184.45 64.7933 184.664 65.26 185.09 65.62C185.53 65.9667 186.097 66.14 186.79 66.14C187.23 66.14 187.597 66.0733 187.89 65.94C188.184 65.8067 188.437 65.68 188.65 65.56C188.864 65.44 189.064 65.38 189.25 65.38C189.45 65.38 189.624 65.4467 189.77 65.58C189.917 65.7133 190.03 65.8733 190.11 66.06C190.19 66.2333 190.23 66.3867 190.23 66.52C190.23 66.7467 190.084 66.9933 189.79 67.26C189.51 67.5133 189.104 67.7333 188.57 67.92C188.05 68.0933 187.43 68.18 186.71 68.18ZM184.45 62.4H187.37C187.597 62.4 187.75 62.3667 187.83 62.3C187.924 62.22 187.97 62.0733 187.97 61.86C187.97 61.5533 187.884 61.28 187.71 61.04C187.55 60.8 187.337 60.6133 187.07 60.48C186.817 60.3467 186.53 60.28 186.21 60.28C185.904 60.28 185.617 60.3467 185.35 60.48C185.084 60.6 184.864 60.78 184.69 61.02C184.53 61.2467 184.45 61.52 184.45 61.84V62.4ZM195.898 68.18C195.124 68.18 194.411 67.9933 193.758 67.62C193.104 67.2333 192.578 66.7267 192.178 66.1C191.778 65.4733 191.578 64.8 191.578 64.08V62.44C191.578 61.72 191.771 61.0533 192.158 60.44C192.544 59.8133 193.064 59.3133 193.718 58.94C194.384 58.5667 195.111 58.38 195.898 58.38C196.684 58.38 197.404 58.5667 198.058 58.94C198.724 59.3 199.251 59.7867 199.638 60.4C200.038 61.0133 200.238 61.6933 200.238 62.44V64.08C200.238 64.7867 200.038 65.4533 199.638 66.08C199.238 66.7067 198.704 67.2133 198.038 67.6C197.384 67.9867 196.671 68.18 195.898 68.18ZM195.898 65.92C196.218 65.92 196.511 65.8333 196.778 65.66C197.044 65.4867 197.258 65.26 197.418 64.98C197.578 64.6867 197.658 64.3867 197.658 64.08V62.44C197.658 62.1333 197.578 61.8467 197.418 61.58C197.258 61.3133 197.044 61.0933 196.778 60.92C196.524 60.7333 196.231 60.64 195.898 60.64C195.578 60.64 195.284 60.7267 195.018 60.9C194.751 61.0733 194.538 61.3 194.378 61.58C194.231 61.8467 194.158 62.1333 194.158 62.44V64.08C194.158 64.3867 194.231 64.6867 194.378 64.98C194.538 65.26 194.751 65.4867 195.018 65.66C195.284 65.8333 195.578 65.92 195.898 65.92ZM203.159 72.42C202.799 72.42 202.499 72.3333 202.259 72.16C202.019 71.9867 201.899 71.8 201.899 71.6V59.3C201.899 59.06 202.019 58.8667 202.259 58.72C202.499 58.5733 202.792 58.5 203.139 58.5C203.486 58.5 203.766 58.5733 203.979 58.72C204.206 58.8667 204.319 59.06 204.319 59.3V59.9C204.546 59.5133 204.892 59.1667 205.359 58.86C205.826 58.54 206.379 58.38 207.019 58.38C207.699 58.38 208.306 58.5667 208.839 58.94C209.386 59.3 209.812 59.7867 210.119 60.4C210.439 61.0133 210.599 61.6933 210.599 62.44V64.08C210.599 64.7867 210.439 65.4533 210.119 66.08C209.799 66.7067 209.372 67.2133 208.839 67.6C208.319 67.9867 207.739 68.18 207.099 68.18C206.512 68.18 205.979 68.02 205.499 67.7C205.019 67.38 204.679 67.0133 204.479 66.6V71.6C204.479 71.8 204.352 71.9867 204.099 72.16C203.846 72.3333 203.532 72.42 203.159 72.42ZM206.259 65.92C206.579 65.92 206.866 65.8333 207.119 65.66C207.386 65.4733 207.599 65.24 207.759 64.96C207.932 64.68 208.019 64.3867 208.019 64.08V62.44C208.019 62.1333 207.939 61.8467 207.779 61.58C207.619 61.3133 207.399 61.0933 207.119 60.92C206.852 60.7333 206.552 60.64 206.219 60.64C205.926 60.64 205.646 60.7133 205.379 60.86C205.126 61.0067 204.912 61.2133 204.739 61.48C204.566 61.7467 204.479 62.0667 204.479 62.44V64.44C204.479 64.5733 204.552 64.76 204.699 65C204.859 65.2267 205.072 65.44 205.339 65.64C205.606 65.8267 205.912 65.92 206.259 65.92ZM213.71 68C213.337 68 213.03 67.9133 212.79 67.74C212.55 67.5667 212.43 67.3733 212.43 67.16V53.76C212.43 53.52 212.55 53.3267 212.79 53.18C213.03 53.0333 213.337 52.96 213.71 52.96C214.07 52.96 214.377 53.0333 214.63 53.18C214.883 53.3267 215.01 53.52 215.01 53.76V67.16C215.01 67.3733 214.883 67.5667 214.63 67.74C214.377 67.9133 214.07 68 213.71 68ZM221.671 68.18C220.725 68.18 219.885 68.0133 219.151 67.68C218.431 67.3333 217.865 66.8533 217.451 66.24C217.038 65.6133 216.831 64.8933 216.831 64.08V62.38C216.831 61.66 217.025 61 217.411 60.4C217.811 59.7867 218.338 59.3 218.991 58.94C219.658 58.5667 220.398 58.38 221.211 58.38C221.958 58.38 222.638 58.54 223.251 58.86C223.878 59.18 224.385 59.62 224.771 60.18C225.158 60.74 225.351 61.3933 225.351 62.14C225.351 62.7133 225.258 63.1267 225.071 63.38C224.885 63.62 224.645 63.7733 224.351 63.84C224.071 63.8933 223.778 63.92 223.471 63.92H219.411V64.22C219.411 64.7933 219.625 65.26 220.051 65.62C220.491 65.9667 221.058 66.14 221.751 66.14C222.191 66.14 222.558 66.0733 222.851 65.94C223.145 65.8067 223.398 65.68 223.611 65.56C223.825 65.44 224.025 65.38 224.211 65.38C224.411 65.38 224.585 65.4467 224.731 65.58C224.878 65.7133 224.991 65.8733 225.071 66.06C225.151 66.2333 225.191 66.3867 225.191 66.52C225.191 66.7467 225.045 66.9933 224.751 67.26C224.471 67.5133 224.065 67.7333 223.531 67.92C223.011 68.0933 222.391 68.18 221.671 68.18ZM219.411 62.4H222.331C222.558 62.4 222.711 62.3667 222.791 62.3C222.885 62.22 222.931 62.0733 222.931 61.86C222.931 61.5533 222.845 61.28 222.671 61.04C222.511 60.8 222.298 60.6133 222.031 60.48C221.778 60.3467 221.491 60.28 221.171 60.28C220.865 60.28 220.578 60.3467 220.311 60.48C220.045 60.6 219.825 60.78 219.651 61.02C219.491 61.2467 219.411 61.52 219.411 61.84V62.4ZM114.907 95C114.547 95 114.247 94.9267 114.007 94.78C113.767 94.62 113.647 94.42 113.647 94.18V83.88C113.647 83.1333 113.807 82.4667 114.127 81.88C114.447 81.28 114.874 80.8133 115.407 80.48C115.94 80.1333 116.527 79.96 117.167 79.96H118.347C118.667 79.96 118.907 80.0733 119.067 80.3C119.24 80.5267 119.327 80.7733 119.327 81.04C119.327 81.3333 119.24 81.5933 119.067 81.82C118.907 82.0333 118.667 82.14 118.347 82.14H117.707C117.427 82.14 117.174 82.2 116.947 82.32C116.72 82.44 116.54 82.6067 116.407 82.82C116.287 83.0333 116.227 83.2933 116.227 83.6V85.5H118.667C118.88 85.5 119.04 85.6 119.147 85.8C119.267 85.9867 119.327 86.2 119.327 86.44C119.327 86.68 119.267 86.9 119.147 87.1C119.04 87.2867 118.88 87.38 118.667 87.38H116.227V94.18C116.227 94.42 116.094 94.62 115.827 94.78C115.574 94.9267 115.267 95 114.907 95ZM122.366 95.18C121.66 95.18 121.046 94.9667 120.526 94.54C120.02 94.1 119.766 93.4267 119.766 92.52C119.766 91.76 119.96 91.1667 120.346 90.74C120.746 90.3133 121.293 90.0133 121.986 89.84C122.693 89.6667 123.506 89.58 124.426 89.58H125.246V89.32C125.246 89.0267 125.186 88.74 125.066 88.46C124.96 88.18 124.78 87.9467 124.526 87.76C124.286 87.5733 123.94 87.48 123.486 87.48C122.98 87.48 122.586 87.5333 122.306 87.64C122.04 87.7333 121.833 87.8333 121.686 87.94C121.54 88.0467 121.38 88.1 121.206 88.1C120.926 88.1 120.706 87.96 120.546 87.68C120.4 87.4 120.326 87.1133 120.326 86.82C120.326 86.54 120.493 86.2933 120.826 86.08C121.173 85.8533 121.593 85.68 122.086 85.56C122.58 85.44 123.06 85.38 123.526 85.38C124.566 85.38 125.4 85.5667 126.026 85.94C126.653 86.3133 127.106 86.7933 127.386 87.38C127.68 87.9667 127.826 88.6 127.826 89.28V94.16C127.826 94.4 127.706 94.6 127.466 94.76C127.226 94.92 126.926 95 126.566 95C126.233 95 125.953 94.92 125.726 94.76C125.513 94.6 125.406 94.4 125.406 94.16V93.6C125.046 94.0133 124.62 94.38 124.126 94.7C123.646 95.02 123.06 95.18 122.366 95.18ZM123.406 93.26C123.686 93.26 123.966 93.1667 124.246 92.98C124.526 92.7933 124.76 92.5533 124.946 92.26C125.146 91.9667 125.246 91.66 125.246 91.34V90.92H124.946C124.506 90.92 124.086 90.9467 123.686 91C123.286 91.0533 122.96 91.1733 122.706 91.36C122.466 91.5333 122.346 91.8067 122.346 92.18C122.346 92.5533 122.446 92.8267 122.646 93C122.86 93.1733 123.113 93.26 123.406 93.26ZM133.76 95.18C132.747 95.18 131.92 95 131.28 94.64C130.64 94.28 130.167 93.7933 129.86 93.18C129.554 92.5533 129.4 91.8533 129.4 91.08V89.48C129.4 88.7067 129.547 88.0133 129.84 87.4C130.147 86.7733 130.62 86.28 131.26 85.92C131.914 85.56 132.734 85.38 133.72 85.38C134.347 85.38 134.9 85.4533 135.38 85.6C135.86 85.7467 136.24 85.94 136.52 86.18C136.8 86.42 136.94 86.6733 136.94 86.94C136.94 87.1 136.894 87.28 136.8 87.48C136.72 87.6667 136.6 87.8333 136.44 87.98C136.294 88.1267 136.12 88.2 135.92 88.2C135.774 88.2 135.62 88.1533 135.46 88.06C135.314 87.9667 135.12 87.8733 134.88 87.78C134.64 87.6867 134.32 87.64 133.92 87.64C133.24 87.64 132.747 87.8067 132.44 88.14C132.134 88.46 131.98 88.9067 131.98 89.48V91.08C131.98 91.6533 132.134 92.1067 132.44 92.44C132.747 92.76 133.247 92.92 133.94 92.92C134.354 92.92 134.674 92.8667 134.9 92.76C135.127 92.6533 135.314 92.5533 135.46 92.46C135.62 92.3667 135.78 92.32 135.94 92.32C136.18 92.32 136.38 92.3867 136.54 92.52C136.714 92.6533 136.84 92.82 136.92 93.02C137.014 93.2067 137.06 93.38 137.06 93.54C137.06 93.8067 136.914 94.0667 136.62 94.32C136.34 94.5733 135.947 94.78 135.44 94.94C134.947 95.1 134.387 95.18 133.76 95.18ZM142.775 95.18C141.828 95.18 140.988 95.0133 140.255 94.68C139.535 94.3333 138.968 93.8533 138.555 93.24C138.142 92.6133 137.935 91.8933 137.935 91.08V89.38C137.935 88.66 138.128 88 138.515 87.4C138.915 86.7867 139.442 86.3 140.095 85.94C140.762 85.5667 141.502 85.38 142.315 85.38C143.062 85.38 143.742 85.54 144.355 85.86C144.982 86.18 145.488 86.62 145.875 87.18C146.262 87.74 146.455 88.3933 146.455 89.14C146.455 89.7133 146.362 90.1267 146.175 90.38C145.988 90.62 145.748 90.7733 145.455 90.84C145.175 90.8933 144.882 90.92 144.575 90.92H140.515V91.22C140.515 91.7933 140.728 92.26 141.155 92.62C141.595 92.9667 142.162 93.14 142.855 93.14C143.295 93.14 143.662 93.0733 143.955 92.94C144.248 92.8067 144.502 92.68 144.715 92.56C144.928 92.44 145.128 92.38 145.315 92.38C145.515 92.38 145.688 92.4467 145.835 92.58C145.982 92.7133 146.095 92.8733 146.175 93.06C146.255 93.2333 146.295 93.3867 146.295 93.52C146.295 93.7467 146.148 93.9933 145.855 94.26C145.575 94.5133 145.168 94.7333 144.635 94.92C144.115 95.0933 143.495 95.18 142.775 95.18ZM140.515 89.4H143.435C143.662 89.4 143.815 89.3667 143.895 89.3C143.988 89.22 144.035 89.0733 144.035 88.86C144.035 88.5533 143.948 88.28 143.775 88.04C143.615 87.8 143.402 87.6133 143.135 87.48C142.882 87.3467 142.595 87.28 142.275 87.28C141.968 87.28 141.682 87.3467 141.415 87.48C141.148 87.6 140.928 87.78 140.755 88.02C140.595 88.2467 140.515 88.52 140.515 88.84V89.4ZM151.162 95.18C150.535 95.18 149.955 94.9867 149.422 94.6C148.889 94.2133 148.462 93.7067 148.142 93.08C147.822 92.4533 147.662 91.7867 147.662 91.08V89.44C147.662 88.6933 147.822 88.0133 148.142 87.4C148.462 86.7867 148.889 86.3 149.422 85.94C149.955 85.5667 150.549 85.38 151.202 85.38C151.829 85.38 152.362 85.54 152.802 85.86C153.242 86.1667 153.569 86.5133 153.782 86.9V80.76C153.782 80.52 153.909 80.3267 154.162 80.18C154.415 80.0333 154.729 79.96 155.102 79.96C155.462 79.96 155.762 80.0333 156.002 80.18C156.242 80.3267 156.362 80.52 156.362 80.76V94.16C156.362 94.3733 156.242 94.5667 156.002 94.74C155.762 94.9133 155.462 95 155.102 95C154.782 95 154.509 94.9133 154.282 94.74C154.055 94.5667 153.942 94.3733 153.942 94.16V93.6C153.742 94.0133 153.382 94.38 152.862 94.7C152.355 95.02 151.789 95.18 151.162 95.18ZM151.982 92.92C152.329 92.92 152.635 92.8267 152.902 92.64C153.169 92.44 153.382 92.2267 153.542 92C153.702 91.76 153.782 91.5733 153.782 91.44V89.44C153.782 89.0667 153.689 88.7467 153.502 88.48C153.329 88.2133 153.102 88.0067 152.822 87.86C152.555 87.7133 152.282 87.64 152.002 87.64C151.682 87.64 151.382 87.7333 151.102 87.92C150.835 88.0933 150.622 88.3133 150.462 88.58C150.315 88.8467 150.242 89.1333 150.242 89.44V91.08C150.242 91.3867 150.315 91.68 150.462 91.96C150.622 92.24 150.835 92.4733 151.102 92.66C151.369 92.8333 151.662 92.92 151.982 92.92ZM30.5124 122C30.1524 122 29.8524 121.927 29.6124 121.78C29.3724 121.62 29.2524 121.42 29.2524 121.18V110.88C29.2524 110.133 29.4124 109.467 29.7324 108.88C30.0524 108.28 30.4791 107.813 31.0124 107.48C31.5458 107.133 32.1324 106.96 32.7724 106.96H33.9524C34.2724 106.96 34.5124 107.073 34.6724 107.3C34.8458 107.527 34.9324 107.773 34.9324 108.04C34.9324 108.333 34.8458 108.593 34.6724 108.82C34.5124 109.033 34.2724 109.14 33.9524 109.14H33.3124C33.0324 109.14 32.7791 109.2 32.5524 109.32C32.3258 109.44 32.1458 109.607 32.0124 109.82C31.8924 110.033 31.8324 110.293 31.8324 110.6V112.5H34.2724C34.4858 112.5 34.6458 112.6 34.7524 112.8C34.8724 112.987 34.9324 113.2 34.9324 113.44C34.9324 113.68 34.8724 113.9 34.7524 114.1C34.6458 114.287 34.4858 114.38 34.2724 114.38H31.8324V121.18C31.8324 121.42 31.6991 121.62 31.4324 121.78C31.1791 121.927 30.8724 122 30.5124 122ZM39.7549 122.18C38.9816 122.18 38.2683 121.993 37.6149 121.62C36.9616 121.233 36.4349 120.727 36.0349 120.1C35.6349 119.473 35.4349 118.8 35.4349 118.08V116.44C35.4349 115.72 35.6283 115.053 36.0149 114.44C36.4016 113.813 36.9216 113.313 37.5749 112.94C38.2416 112.567 38.9683 112.38 39.7549 112.38C40.5416 112.38 41.2616 112.567 41.9149 112.94C42.5816 113.3 43.1083 113.787 43.4949 114.4C43.8949 115.013 44.0949 115.693 44.0949 116.44V118.08C44.0949 118.787 43.8949 119.453 43.4949 120.08C43.0949 120.707 42.5616 121.213 41.8949 121.6C41.2416 121.987 40.5283 122.18 39.7549 122.18ZM39.7549 119.92C40.0749 119.92 40.3683 119.833 40.6349 119.66C40.9016 119.487 41.1149 119.26 41.2749 118.98C41.4349 118.687 41.5149 118.387 41.5149 118.08V116.44C41.5149 116.133 41.4349 115.847 41.2749 115.58C41.1149 115.313 40.9016 115.093 40.6349 114.92C40.3816 114.733 40.0883 114.64 39.7549 114.64C39.4349 114.64 39.1416 114.727 38.8749 114.9C38.6083 115.073 38.3949 115.3 38.2349 115.58C38.0883 115.847 38.0149 116.133 38.0149 116.44V118.08C38.0149 118.387 38.0883 118.687 38.2349 118.98C38.3949 119.26 38.6083 119.487 38.8749 119.66C39.1416 119.833 39.4349 119.92 39.7549 119.92ZM49.6963 122.18C48.923 122.18 48.2097 121.993 47.5563 121.62C46.903 121.233 46.3763 120.727 45.9763 120.1C45.5763 119.473 45.3763 118.8 45.3763 118.08V116.44C45.3763 115.72 45.5697 115.053 45.9563 114.44C46.343 113.813 46.863 113.313 47.5163 112.94C48.183 112.567 48.9097 112.38 49.6963 112.38C50.483 112.38 51.203 112.567 51.8563 112.94C52.523 113.3 53.0497 113.787 53.4363 114.4C53.8363 115.013 54.0363 115.693 54.0363 116.44V118.08C54.0363 118.787 53.8363 119.453 53.4363 120.08C53.0363 120.707 52.503 121.213 51.8363 121.6C51.183 121.987 50.4697 122.18 49.6963 122.18ZM49.6963 119.92C50.0163 119.92 50.3097 119.833 50.5763 119.66C50.843 119.487 51.0563 119.26 51.2163 118.98C51.3763 118.687 51.4563 118.387 51.4563 118.08V116.44C51.4563 116.133 51.3763 115.847 51.2163 115.58C51.0563 115.313 50.843 115.093 50.5763 114.92C50.323 114.733 50.0297 114.64 49.6963 114.64C49.3763 114.64 49.083 114.727 48.8163 114.9C48.5497 115.073 48.3363 115.3 48.1763 115.58C48.0297 115.847 47.9563 116.133 47.9563 116.44V118.08C47.9563 118.387 48.0297 118.687 48.1763 118.98C48.3363 119.26 48.5497 119.487 48.8163 119.66C49.083 119.833 49.3763 119.92 49.6963 119.92ZM58.8377 122.18C58.2111 122.18 57.6311 121.987 57.0977 121.6C56.5644 121.213 56.1377 120.707 55.8177 120.08C55.4977 119.453 55.3377 118.787 55.3377 118.08V116.44C55.3377 115.693 55.4977 115.013 55.8177 114.4C56.1377 113.787 56.5644 113.3 57.0977 112.94C57.6311 112.567 58.2244 112.38 58.8777 112.38C59.5044 112.38 60.0377 112.54 60.4777 112.86C60.9177 113.167 61.2444 113.513 61.4577 113.9V107.76C61.4577 107.52 61.5844 107.327 61.8377 107.18C62.0911 107.033 62.4044 106.96 62.7777 106.96C63.1377 106.96 63.4377 107.033 63.6777 107.18C63.9177 107.327 64.0377 107.52 64.0377 107.76V121.16C64.0377 121.373 63.9177 121.567 63.6777 121.74C63.4377 121.913 63.1377 122 62.7777 122C62.4577 122 62.1844 121.913 61.9577 121.74C61.7311 121.567 61.6177 121.373 61.6177 121.16V120.6C61.4177 121.013 61.0577 121.38 60.5377 121.7C60.0311 122.02 59.4644 122.18 58.8377 122.18ZM59.6577 119.92C60.0044 119.92 60.3111 119.827 60.5777 119.64C60.8444 119.44 61.0577 119.227 61.2177 119C61.3777 118.76 61.4577 118.573 61.4577 118.44V116.44C61.4577 116.067 61.3644 115.747 61.1777 115.48C61.0044 115.213 60.7777 115.007 60.4977 114.86C60.2311 114.713 59.9577 114.64 59.6777 114.64C59.3577 114.64 59.0577 114.733 58.7777 114.92C58.5111 115.093 58.2977 115.313 58.1377 115.58C57.9911 115.847 57.9177 116.133 57.9177 116.44V118.08C57.9177 118.387 57.9911 118.68 58.1377 118.96C58.2977 119.24 58.5111 119.473 58.7777 119.66C59.0444 119.833 59.3377 119.92 59.6577 119.92ZM73.1527 122.18C72.4861 122.18 71.8727 122.1 71.3127 121.94C70.7661 121.767 70.3327 121.547 70.0127 121.28C69.7061 121.013 69.5527 120.74 69.5527 120.46C69.5527 120.313 69.5861 120.153 69.6527 119.98C69.7327 119.807 69.8327 119.653 69.9527 119.52C70.0861 119.387 70.2394 119.32 70.4127 119.32C70.5994 119.32 70.7927 119.4 70.9927 119.56C71.2061 119.707 71.4661 119.853 71.7727 120C72.0927 120.147 72.5327 120.22 73.0927 120.22C73.6927 120.22 74.0861 120.127 74.2727 119.94C74.4727 119.753 74.5727 119.56 74.5727 119.36C74.5727 119.067 74.4527 118.84 74.2127 118.68C73.9861 118.52 73.6927 118.393 73.3327 118.3C72.9727 118.193 72.5861 118.08 72.1727 117.96C71.7727 117.84 71.3927 117.687 71.0327 117.5C70.6727 117.3 70.3794 117.033 70.1527 116.7C69.9261 116.353 69.8127 115.907 69.8127 115.36C69.8127 114.88 69.9261 114.413 70.1527 113.96C70.3794 113.507 70.7527 113.133 71.2727 112.84C71.7927 112.533 72.4994 112.38 73.3927 112.38C73.9394 112.38 74.4527 112.44 74.9327 112.56C75.4261 112.667 75.8261 112.82 76.1327 113.02C76.4394 113.22 76.5927 113.44 76.5927 113.68C76.5927 113.8 76.5527 113.96 76.4727 114.16C76.3927 114.347 76.2794 114.52 76.1327 114.68C75.9994 114.84 75.8327 114.92 75.6327 114.92C75.4861 114.92 75.3061 114.873 75.0927 114.78C74.8927 114.673 74.6594 114.573 74.3927 114.48C74.1261 114.387 73.8061 114.34 73.4327 114.34C73.0994 114.34 72.8327 114.387 72.6327 114.48C72.4327 114.573 72.2861 114.687 72.1927 114.82C72.0994 114.953 72.0527 115.093 72.0527 115.24C72.0527 115.48 72.1661 115.667 72.3927 115.8C72.6194 115.933 72.9127 116.047 73.2727 116.14C73.6461 116.233 74.0327 116.34 74.4327 116.46C74.8461 116.567 75.2327 116.727 75.5927 116.94C75.9661 117.153 76.2661 117.447 76.4927 117.82C76.7194 118.18 76.8327 118.653 76.8327 119.24C76.8327 120.133 76.5127 120.847 75.8727 121.38C75.2461 121.913 74.3394 122.18 73.1527 122.18ZM79.6926 122C79.3192 122 79.0126 121.913 78.7726 121.74C78.5326 121.567 78.4126 121.373 78.4126 121.16V107.76C78.4126 107.52 78.5326 107.327 78.7726 107.18C79.0126 107.033 79.3192 106.96 79.6926 106.96C80.0526 106.96 80.3592 107.033 80.6126 107.18C80.8659 107.327 80.9926 107.52 80.9926 107.76V113.9C81.1926 113.513 81.5059 113.167 81.9326 112.86C82.3592 112.54 82.8859 112.38 83.5126 112.38C84.1392 112.38 84.7126 112.567 85.2326 112.94C85.7526 113.3 86.1659 113.787 86.4726 114.4C86.7926 115.013 86.9526 115.693 86.9526 116.44V121.16C86.9526 121.44 86.8192 121.653 86.5526 121.8C86.2859 121.933 85.9859 122 85.6526 122C85.3592 122 85.0726 121.933 84.7926 121.8C84.5126 121.653 84.3726 121.44 84.3726 121.16V116.44C84.3726 116.133 84.2926 115.847 84.1326 115.58C83.9726 115.313 83.7592 115.093 83.4926 114.92C83.2392 114.733 82.9526 114.64 82.6326 114.64C82.3659 114.64 82.1059 114.713 81.8526 114.86C81.5992 115.007 81.3926 115.213 81.2326 115.48C81.0726 115.747 80.9926 116.067 80.9926 116.44V121.16C80.9926 121.373 80.8659 121.567 80.6126 121.74C80.3592 121.913 80.0526 122 79.6926 122ZM92.8409 122.18C92.0675 122.18 91.3542 121.993 90.7009 121.62C90.0475 121.233 89.5209 120.727 89.1209 120.1C88.7209 119.473 88.5209 118.8 88.5209 118.08V116.44C88.5209 115.72 88.7142 115.053 89.1009 114.44C89.4875 113.813 90.0075 113.313 90.6609 112.94C91.3275 112.567 92.0542 112.38 92.8409 112.38C93.6275 112.38 94.3475 112.567 95.0009 112.94C95.6675 113.3 96.1942 113.787 96.5809 114.4C96.9809 115.013 97.1809 115.693 97.1809 116.44V118.08C97.1809 118.787 96.9809 119.453 96.5809 120.08C96.1809 120.707 95.6475 121.213 94.9809 121.6C94.3275 121.987 93.6142 122.18 92.8409 122.18ZM92.8409 119.92C93.1609 119.92 93.4542 119.833 93.7209 119.66C93.9875 119.487 94.2009 119.26 94.3609 118.98C94.5209 118.687 94.6009 118.387 94.6009 118.08V116.44C94.6009 116.133 94.5209 115.847 94.3609 115.58C94.2009 115.313 93.9875 115.093 93.7209 114.92C93.4675 114.733 93.1742 114.64 92.8409 114.64C92.5209 114.64 92.2275 114.727 91.9609 114.9C91.6942 115.073 91.4809 115.3 91.3209 115.58C91.1742 115.847 91.1009 116.133 91.1009 116.44V118.08C91.1009 118.387 91.1742 118.687 91.3209 118.98C91.4809 119.26 91.6942 119.487 91.9609 119.66C92.2275 119.833 92.5209 119.92 92.8409 119.92ZM100.082 122C99.7223 122 99.4223 121.913 99.1823 121.74C98.9423 121.567 98.8223 121.373 98.8223 121.16V113.3C98.8223 113.06 98.9423 112.867 99.1823 112.72C99.4223 112.573 99.7223 112.5 100.082 112.5C100.416 112.5 100.689 112.573 100.902 112.72C101.129 112.867 101.242 113.06 101.242 113.3V114.12C101.389 113.827 101.582 113.553 101.822 113.3C102.076 113.033 102.362 112.813 102.682 112.64C103.002 112.467 103.342 112.38 103.702 112.38H104.322C104.576 112.38 104.796 112.493 104.982 112.72C105.169 112.933 105.262 113.193 105.262 113.5C105.262 113.82 105.169 114.093 104.982 114.32C104.796 114.533 104.576 114.64 104.322 114.64H103.702C103.329 114.64 102.962 114.767 102.602 115.02C102.256 115.26 101.969 115.6 101.742 116.04C101.516 116.467 101.402 116.987 101.402 117.6V121.16C101.402 121.373 101.276 121.567 101.022 121.74C100.769 121.913 100.456 122 100.082 122ZM109.982 122C108.782 122 107.862 121.74 107.222 121.22C106.596 120.7 106.282 119.873 106.282 118.74V109.06C106.282 108.82 106.422 108.627 106.702 108.48C106.982 108.333 107.269 108.26 107.562 108.26C107.882 108.26 108.176 108.333 108.442 108.48C108.722 108.627 108.862 108.82 108.862 109.06V112.5H111.222C111.436 112.5 111.596 112.6 111.702 112.8C111.822 112.987 111.882 113.2 111.882 113.44C111.882 113.68 111.822 113.9 111.702 114.1C111.596 114.287 111.436 114.38 111.222 114.38H108.862V118.74C108.862 119.14 108.942 119.42 109.102 119.58C109.276 119.74 109.569 119.82 109.982 119.82H110.762C111.136 119.82 111.409 119.933 111.582 120.16C111.769 120.387 111.862 120.633 111.862 120.9C111.862 121.18 111.769 121.433 111.582 121.66C111.409 121.887 111.136 122 110.762 122H109.982ZM115.237 122.18C114.531 122.18 113.917 121.967 113.397 121.54C112.891 121.1 112.637 120.427 112.637 119.52C112.637 118.76 112.831 118.167 113.217 117.74C113.617 117.313 114.164 117.013 114.857 116.84C115.564 116.667 116.377 116.58 117.297 116.58H118.117V116.32C118.117 116.027 118.057 115.74 117.937 115.46C117.831 115.18 117.651 114.947 117.397 114.76C117.157 114.573 116.811 114.48 116.357 114.48C115.851 114.48 115.457 114.533 115.177 114.64C114.911 114.733 114.704 114.833 114.557 114.94C114.411 115.047 114.251 115.1 114.077 115.1C113.797 115.1 113.577 114.96 113.417 114.68C113.271 114.4 113.197 114.113 113.197 113.82C113.197 113.54 113.364 113.293 113.697 113.08C114.044 112.853 114.464 112.68 114.957 112.56C115.451 112.44 115.931 112.38 116.397 112.38C117.437 112.38 118.271 112.567 118.897 112.94C119.524 113.313 119.977 113.793 120.257 114.38C120.551 114.967 120.697 115.6 120.697 116.28V121.16C120.697 121.4 120.577 121.6 120.337 121.76C120.097 121.92 119.797 122 119.437 122C119.104 122 118.824 121.92 118.597 121.76C118.384 121.6 118.277 121.4 118.277 121.16V120.6C117.917 121.013 117.491 121.38 116.997 121.7C116.517 122.02 115.931 122.18 115.237 122.18ZM116.277 120.26C116.557 120.26 116.837 120.167 117.117 119.98C117.397 119.793 117.631 119.553 117.817 119.26C118.017 118.967 118.117 118.66 118.117 118.34V117.92H117.817C117.377 117.92 116.957 117.947 116.557 118C116.157 118.053 115.831 118.173 115.577 118.36C115.337 118.533 115.217 118.807 115.217 119.18C115.217 119.553 115.317 119.827 115.517 120C115.731 120.173 115.984 120.26 116.277 120.26ZM126.351 126.42C125.565 126.42 124.831 126.307 124.151 126.08C123.485 125.867 122.945 125.547 122.531 125.12C122.131 124.693 121.931 124.187 121.931 123.6C121.931 123.093 122.071 122.66 122.351 122.3C122.631 121.953 122.978 121.68 123.391 121.48C123.138 121.36 122.931 121.2 122.771 121C122.625 120.787 122.551 120.52 122.551 120.2C122.551 119.827 122.645 119.527 122.831 119.3C123.031 119.06 123.278 118.84 123.571 118.64C123.171 118.333 122.858 117.967 122.631 117.54C122.418 117.1 122.311 116.62 122.311 116.1V115.68C122.311 115.027 122.471 114.453 122.791 113.96C123.125 113.467 123.585 113.08 124.171 112.8C124.771 112.52 125.458 112.38 126.231 112.38C126.671 112.38 127.085 112.433 127.471 112.54C127.858 112.633 128.205 112.773 128.511 112.96C128.738 112.427 128.951 112.067 129.151 111.88C129.351 111.693 129.545 111.6 129.731 111.6C130.051 111.6 130.298 111.693 130.471 111.88C130.658 112.067 130.751 112.24 130.751 112.4C130.751 112.52 130.718 112.627 130.651 112.72C130.598 112.813 130.525 112.893 130.431 112.96C130.298 113.04 130.145 113.14 129.971 113.26C129.798 113.367 129.638 113.52 129.491 113.72C129.731 113.987 129.905 114.287 130.011 114.62C130.131 114.94 130.191 115.293 130.191 115.68V116.1C130.191 116.74 130.025 117.313 129.691 117.82C129.358 118.313 128.891 118.707 128.291 119C127.691 119.293 127.005 119.44 126.231 119.44C125.751 119.44 125.318 119.38 124.931 119.26C124.865 119.313 124.805 119.373 124.751 119.44C124.711 119.507 124.691 119.58 124.691 119.66C124.691 119.887 124.838 120.047 125.131 120.14C125.425 120.233 125.798 120.307 126.251 120.36C126.705 120.413 127.185 120.487 127.691 120.58C128.211 120.66 128.698 120.793 129.151 120.98C129.605 121.167 129.978 121.447 130.271 121.82C130.565 122.18 130.711 122.667 130.711 123.28C130.711 124.027 130.498 124.627 130.071 125.08C129.658 125.547 129.118 125.887 128.451 126.1C127.798 126.313 127.098 126.42 126.351 126.42ZM126.311 124.76C126.831 124.76 127.271 124.633 127.631 124.38C128.005 124.127 128.191 123.787 128.191 123.36C128.191 123.08 128.111 122.853 127.951 122.68C127.791 122.507 127.571 122.373 127.291 122.28C127.025 122.2 126.731 122.133 126.411 122.08C126.091 122.04 125.771 122 125.451 121.96C125.131 122.107 124.871 122.293 124.671 122.52C124.471 122.747 124.371 123.02 124.371 123.34C124.371 123.78 124.558 124.127 124.931 124.38C125.318 124.633 125.778 124.76 126.311 124.76ZM126.271 117.88C126.711 117.88 127.058 117.713 127.311 117.38C127.565 117.047 127.691 116.62 127.691 116.1V115.68C127.691 115.187 127.565 114.773 127.311 114.44C127.071 114.107 126.718 113.94 126.251 113.94C125.798 113.94 125.445 114.107 125.191 114.44C124.951 114.773 124.831 115.187 124.831 115.68V116.08C124.831 116.587 124.951 117.013 125.191 117.36C125.445 117.707 125.805 117.88 126.271 117.88ZM136.447 122.18C135.5 122.18 134.66 122.013 133.927 121.68C133.207 121.333 132.64 120.853 132.227 120.24C131.813 119.613 131.607 118.893 131.607 118.08V116.38C131.607 115.66 131.8 115 132.187 114.4C132.587 113.787 133.113 113.3 133.767 112.94C134.433 112.567 135.173 112.38 135.987 112.38C136.733 112.38 137.413 112.54 138.027 112.86C138.653 113.18 139.16 113.62 139.547 114.18C139.933 114.74 140.127 115.393 140.127 116.14C140.127 116.713 140.033 117.127 139.847 117.38C139.66 117.62 139.42 117.773 139.127 117.84C138.847 117.893 138.553 117.92 138.247 117.92H134.187V118.22C134.187 118.793 134.4 119.26 134.827 119.62C135.267 119.967 135.833 120.14 136.527 120.14C136.967 120.14 137.333 120.073 137.627 119.94C137.92 119.807 138.173 119.68 138.387 119.56C138.6 119.44 138.8 119.38 138.987 119.38C139.187 119.38 139.36 119.447 139.507 119.58C139.653 119.713 139.767 119.873 139.847 120.06C139.927 120.233 139.967 120.387 139.967 120.52C139.967 120.747 139.82 120.993 139.527 121.26C139.247 121.513 138.84 121.733 138.307 121.92C137.787 122.093 137.167 122.18 136.447 122.18ZM134.187 116.4H137.107C137.333 116.4 137.487 116.367 137.567 116.3C137.66 116.22 137.707 116.073 137.707 115.86C137.707 115.553 137.62 115.28 137.447 115.04C137.287 114.8 137.073 114.613 136.807 114.48C136.553 114.347 136.267 114.28 135.947 114.28C135.64 114.28 135.353 114.347 135.087 114.48C134.82 114.6 134.6 114.78 134.427 115.02C134.267 115.247 134.187 115.52 134.187 115.84V116.4ZM144.774 122.18C144.107 122.18 143.494 122.1 142.934 121.94C142.387 121.767 141.954 121.547 141.634 121.28C141.327 121.013 141.174 120.74 141.174 120.46C141.174 120.313 141.207 120.153 141.274 119.98C141.354 119.807 141.454 119.653 141.574 119.52C141.707 119.387 141.86 119.32 142.034 119.32C142.22 119.32 142.414 119.4 142.614 119.56C142.827 119.707 143.087 119.853 143.394 120C143.714 120.147 144.154 120.22 144.714 120.22C145.314 120.22 145.707 120.127 145.894 119.94C146.094 119.753 146.194 119.56 146.194 119.36C146.194 119.067 146.074 118.84 145.834 118.68C145.607 118.52 145.314 118.393 144.954 118.3C144.594 118.193 144.207 118.08 143.794 117.96C143.394 117.84 143.014 117.687 142.654 117.5C142.294 117.3 142 117.033 141.774 116.7C141.547 116.353 141.434 115.907 141.434 115.36C141.434 114.88 141.547 114.413 141.774 113.96C142 113.507 142.374 113.133 142.894 112.84C143.414 112.533 144.12 112.38 145.014 112.38C145.56 112.38 146.074 112.44 146.554 112.56C147.047 112.667 147.447 112.82 147.754 113.02C148.06 113.22 148.214 113.44 148.214 113.68C148.214 113.8 148.174 113.96 148.094 114.16C148.014 114.347 147.9 114.52 147.754 114.68C147.62 114.84 147.454 114.92 147.254 114.92C147.107 114.92 146.927 114.873 146.714 114.78C146.514 114.673 146.28 114.573 146.014 114.48C145.747 114.387 145.427 114.34 145.054 114.34C144.72 114.34 144.454 114.387 144.254 114.48C144.054 114.573 143.907 114.687 143.814 114.82C143.72 114.953 143.674 115.093 143.674 115.24C143.674 115.48 143.787 115.667 144.014 115.8C144.24 115.933 144.534 116.047 144.894 116.14C145.267 116.233 145.654 116.34 146.054 116.46C146.467 116.567 146.854 116.727 147.214 116.94C147.587 117.153 147.887 117.447 148.114 117.82C148.34 118.18 148.454 118.653 148.454 119.24C148.454 120.133 148.134 120.847 147.494 121.38C146.867 121.913 145.96 122.18 144.774 122.18ZM156.058 122.18C155.351 122.18 154.738 121.967 154.218 121.54C153.711 121.1 153.458 120.427 153.458 119.52C153.458 118.76 153.651 118.167 154.038 117.74C154.438 117.313 154.984 117.013 155.678 116.84C156.384 116.667 157.198 116.58 158.118 116.58H158.938V116.32C158.938 116.027 158.878 115.74 158.758 115.46C158.651 115.18 158.471 114.947 158.218 114.76C157.978 114.573 157.631 114.48 157.178 114.48C156.671 114.48 156.278 114.533 155.998 114.64C155.731 114.733 155.524 114.833 155.378 114.94C155.231 115.047 155.071 115.1 154.898 115.1C154.618 115.1 154.398 114.96 154.238 114.68C154.091 114.4 154.018 114.113 154.018 113.82C154.018 113.54 154.184 113.293 154.518 113.08C154.864 112.853 155.284 112.68 155.778 112.56C156.271 112.44 156.751 112.38 157.218 112.38C158.258 112.38 159.091 112.567 159.718 112.94C160.344 113.313 160.798 113.793 161.078 114.38C161.371 114.967 161.518 115.6 161.518 116.28V121.16C161.518 121.4 161.398 121.6 161.158 121.76C160.918 121.92 160.618 122 160.258 122C159.924 122 159.644 121.92 159.418 121.76C159.204 121.6 159.098 121.4 159.098 121.16V120.6C158.738 121.013 158.311 121.38 157.818 121.7C157.338 122.02 156.751 122.18 156.058 122.18ZM157.098 120.26C157.378 120.26 157.658 120.167 157.938 119.98C158.218 119.793 158.451 119.553 158.638 119.26C158.838 118.967 158.938 118.66 158.938 118.34V117.92H158.638C158.198 117.92 157.778 117.947 157.378 118C156.978 118.053 156.651 118.173 156.398 118.36C156.158 118.533 156.038 118.807 156.038 119.18C156.038 119.553 156.138 119.827 156.338 120C156.551 120.173 156.804 120.26 157.098 120.26ZM164.712 122C164.338 122 164.032 121.913 163.792 121.74C163.552 121.567 163.432 121.373 163.432 121.16V113.3C163.432 113.06 163.552 112.867 163.792 112.72C164.032 112.573 164.338 112.5 164.712 112.5C165.032 112.5 165.298 112.573 165.512 112.72C165.738 112.867 165.852 113.06 165.852 113.3V113.9C166.052 113.513 166.378 113.167 166.832 112.86C167.298 112.54 167.865 112.38 168.532 112.38C169.158 112.38 169.732 112.567 170.252 112.94C170.772 113.3 171.185 113.787 171.492 114.4C171.812 115.013 171.972 115.693 171.972 116.44V121.16C171.972 121.44 171.838 121.653 171.572 121.8C171.305 121.933 171.005 122 170.672 122C170.378 122 170.092 121.933 169.812 121.8C169.532 121.653 169.392 121.44 169.392 121.16V116.44C169.392 116.133 169.312 115.847 169.152 115.58C169.005 115.313 168.798 115.093 168.532 114.92C168.265 114.733 167.972 114.64 167.652 114.64C167.385 114.64 167.125 114.713 166.872 114.86C166.618 115.007 166.412 115.213 166.252 115.48C166.092 115.747 166.012 116.067 166.012 116.44V121.16C166.012 121.373 165.885 121.567 165.632 121.74C165.378 121.913 165.072 122 164.712 122ZM177.06 122.18C176.434 122.18 175.854 121.987 175.32 121.6C174.787 121.213 174.36 120.707 174.04 120.08C173.72 119.453 173.56 118.787 173.56 118.08V116.44C173.56 115.693 173.72 115.013 174.04 114.4C174.36 113.787 174.787 113.3 175.32 112.94C175.854 112.567 176.447 112.38 177.1 112.38C177.727 112.38 178.26 112.54 178.7 112.86C179.14 113.167 179.467 113.513 179.68 113.9V107.76C179.68 107.52 179.807 107.327 180.06 107.18C180.314 107.033 180.627 106.96 181 106.96C181.36 106.96 181.66 107.033 181.9 107.18C182.14 107.327 182.26 107.52 182.26 107.76V121.16C182.26 121.373 182.14 121.567 181.9 121.74C181.66 121.913 181.36 122 181 122C180.68 122 180.407 121.913 180.18 121.74C179.954 121.567 179.84 121.373 179.84 121.16V120.6C179.64 121.013 179.28 121.38 178.76 121.7C178.254 122.02 177.687 122.18 177.06 122.18ZM177.88 119.92C178.227 119.92 178.534 119.827 178.8 119.64C179.067 119.44 179.28 119.227 179.44 119C179.6 118.76 179.68 118.573 179.68 118.44V116.44C179.68 116.067 179.587 115.747 179.4 115.48C179.227 115.213 179 115.007 178.72 114.86C178.454 114.713 178.18 114.64 177.9 114.64C177.58 114.64 177.28 114.733 177 114.92C176.734 115.093 176.52 115.313 176.36 115.58C176.214 115.847 176.14 116.133 176.14 116.44V118.08C176.14 118.387 176.214 118.68 176.36 118.96C176.52 119.24 176.734 119.473 177 119.66C177.267 119.833 177.56 119.92 177.88 119.92ZM192.075 122.22C191.809 122.22 191.562 122.18 191.335 122.1C191.109 122.02 190.962 121.907 190.895 121.76L187.475 113.84C187.449 113.8 187.422 113.747 187.395 113.68C187.382 113.6 187.375 113.533 187.375 113.48C187.375 113.28 187.469 113.1 187.655 112.94C187.855 112.767 188.089 112.633 188.355 112.54C188.622 112.433 188.869 112.38 189.095 112.38C189.255 112.38 189.402 112.413 189.535 112.48C189.682 112.547 189.782 112.66 189.835 112.82L192.075 118.62L194.295 112.86C194.349 112.687 194.442 112.567 194.575 112.5C194.709 112.42 194.862 112.38 195.035 112.38C195.209 112.38 195.429 112.433 195.695 112.54C195.975 112.633 196.222 112.767 196.435 112.94C196.649 113.113 196.755 113.3 196.755 113.5C196.755 113.567 196.749 113.627 196.735 113.68C196.722 113.733 196.702 113.787 196.675 113.84L193.235 121.76C193.169 121.907 193.022 122.02 192.795 122.1C192.569 122.18 192.329 122.22 192.075 122.22ZM199.886 122.18C199.179 122.18 198.566 121.967 198.046 121.54C197.539 121.1 197.286 120.427 197.286 119.52C197.286 118.76 197.479 118.167 197.866 117.74C198.266 117.313 198.812 117.013 199.506 116.84C200.212 116.667 201.026 116.58 201.946 116.58H202.766V116.32C202.766 116.027 202.706 115.74 202.586 115.46C202.479 115.18 202.299 114.947 202.046 114.76C201.806 114.573 201.459 114.48 201.006 114.48C200.499 114.48 200.106 114.533 199.826 114.64C199.559 114.733 199.352 114.833 199.206 114.94C199.059 115.047 198.899 115.1 198.726 115.1C198.446 115.1 198.226 114.96 198.066 114.68C197.919 114.4 197.846 114.113 197.846 113.82C197.846 113.54 198.012 113.293 198.346 113.08C198.692 112.853 199.112 112.68 199.606 112.56C200.099 112.44 200.579 112.38 201.046 112.38C202.086 112.38 202.919 112.567 203.546 112.94C204.172 113.313 204.626 113.793 204.906 114.38C205.199 114.967 205.346 115.6 205.346 116.28V121.16C205.346 121.4 205.226 121.6 204.986 121.76C204.746 121.92 204.446 122 204.086 122C203.752 122 203.472 121.92 203.246 121.76C203.032 121.6 202.926 121.4 202.926 121.16V120.6C202.566 121.013 202.139 121.38 201.646 121.7C201.166 122.02 200.579 122.18 199.886 122.18ZM200.926 120.26C201.206 120.26 201.486 120.167 201.766 119.98C202.046 119.793 202.279 119.553 202.466 119.26C202.666 118.967 202.766 118.66 202.766 118.34V117.92H202.466C202.026 117.92 201.606 117.947 201.206 118C200.806 118.053 200.479 118.173 200.226 118.36C199.986 118.533 199.866 118.807 199.866 119.18C199.866 119.553 199.966 119.827 200.166 120C200.379 120.173 200.632 120.26 200.926 120.26ZM208.72 122C208.346 122 208.04 121.913 207.8 121.74C207.56 121.567 207.44 121.373 207.44 121.16V107.76C207.44 107.52 207.56 107.327 207.8 107.18C208.04 107.033 208.346 106.96 208.72 106.96C209.08 106.96 209.386 107.033 209.64 107.18C209.893 107.327 210.02 107.52 210.02 107.76V121.16C210.02 121.373 209.893 121.567 209.64 121.74C209.386 121.913 209.08 122 208.72 122ZM216.461 122.18C215.661 122.18 214.928 121.993 214.261 121.62C213.608 121.233 213.081 120.733 212.681 120.12C212.295 119.493 212.101 118.827 212.101 118.12V113.32C212.101 113.12 212.228 112.933 212.481 112.76C212.748 112.587 213.055 112.5 213.401 112.5C213.748 112.5 214.048 112.587 214.301 112.76C214.555 112.933 214.681 113.12 214.681 113.32V118.12C214.681 118.427 214.761 118.713 214.921 118.98C215.081 119.247 215.295 119.473 215.561 119.66C215.828 119.833 216.121 119.92 216.441 119.92C216.775 119.92 217.068 119.833 217.321 119.66C217.588 119.487 217.801 119.26 217.961 118.98C218.121 118.7 218.201 118.413 218.201 118.12V113.3C218.201 113.087 218.328 112.9 218.581 112.74C218.848 112.58 219.148 112.5 219.481 112.5C219.868 112.5 220.181 112.58 220.421 112.74C220.661 112.9 220.781 113.087 220.781 113.3V118.12C220.781 118.84 220.581 119.513 220.181 120.14C219.795 120.753 219.268 121.247 218.601 121.62C217.948 121.993 217.235 122.18 216.461 122.18ZM227.169 122.18C226.223 122.18 225.383 122.013 224.649 121.68C223.929 121.333 223.363 120.853 222.949 120.24C222.536 119.613 222.329 118.893 222.329 118.08V116.38C222.329 115.66 222.523 115 222.909 114.4C223.309 113.787 223.836 113.3 224.489 112.94C225.156 112.567 225.896 112.38 226.709 112.38C227.456 112.38 228.136 112.54 228.749 112.86C229.376 113.18 229.883 113.62 230.269 114.18C230.656 114.74 230.849 115.393 230.849 116.14C230.849 116.713 230.756 117.127 230.569 117.38C230.383 117.62 230.143 117.773 229.849 117.84C229.569 117.893 229.276 117.92 228.969 117.92H224.909V118.22C224.909 118.793 225.123 119.26 225.549 119.62C225.989 119.967 226.556 120.14 227.249 120.14C227.689 120.14 228.056 120.073 228.349 119.94C228.643 119.807 228.896 119.68 229.109 119.56C229.323 119.44 229.523 119.38 229.709 119.38C229.909 119.38 230.083 119.447 230.229 119.58C230.376 119.713 230.489 119.873 230.569 120.06C230.649 120.233 230.689 120.387 230.689 120.52C230.689 120.747 230.543 120.993 230.249 121.26C229.969 121.513 229.563 121.733 229.029 121.92C228.509 122.093 227.889 122.18 227.169 122.18ZM224.909 116.4H227.829C228.056 116.4 228.209 116.367 228.289 116.3C228.383 116.22 228.429 116.073 228.429 115.86C228.429 115.553 228.343 115.28 228.169 115.04C228.009 114.8 227.796 114.613 227.529 114.48C227.276 114.347 226.989 114.28 226.669 114.28C226.363 114.28 226.076 114.347 225.809 114.48C225.543 114.6 225.323 114.78 225.149 115.02C224.989 115.247 224.909 115.52 224.909 115.84V116.4ZM235.556 122.18C234.93 122.18 234.35 121.987 233.816 121.6C233.283 121.213 232.856 120.707 232.536 120.08C232.216 119.453 232.056 118.787 232.056 118.08V116.44C232.056 115.693 232.216 115.013 232.536 114.4C232.856 113.787 233.283 113.3 233.816 112.94C234.35 112.567 234.943 112.38 235.596 112.38C236.223 112.38 236.756 112.54 237.196 112.86C237.636 113.167 237.963 113.513 238.176 113.9V107.76C238.176 107.52 238.303 107.327 238.556 107.18C238.81 107.033 239.123 106.96 239.496 106.96C239.856 106.96 240.156 107.033 240.396 107.18C240.636 107.327 240.756 107.52 240.756 107.76V121.16C240.756 121.373 240.636 121.567 240.396 121.74C240.156 121.913 239.856 122 239.496 122C239.176 122 238.903 121.913 238.676 121.74C238.45 121.567 238.336 121.373 238.336 121.16V120.6C238.136 121.013 237.776 121.38 237.256 121.7C236.75 122.02 236.183 122.18 235.556 122.18ZM236.376 119.92C236.723 119.92 237.03 119.827 237.296 119.64C237.563 119.44 237.776 119.227 237.936 119C238.096 118.76 238.176 118.573 238.176 118.44V116.44C238.176 116.067 238.083 115.747 237.896 115.48C237.723 115.213 237.496 115.007 237.216 114.86C236.95 114.713 236.676 114.64 236.396 114.64C236.076 114.64 235.776 114.733 235.496 114.92C235.23 115.093 235.016 115.313 234.856 115.58C234.71 115.847 234.636 116.133 234.636 116.44V118.08C234.636 118.387 234.71 118.68 234.856 118.96C235.016 119.24 235.23 119.473 235.496 119.66C235.763 119.833 236.056 119.92 236.376 119.92ZM43.146 149.18C42.1993 149.18 41.3593 149.013 40.626 148.68C39.906 148.333 39.3393 147.853 38.926 147.24C38.5127 146.613 38.306 145.893 38.306 145.08V143.38C38.306 142.66 38.4993 142 38.886 141.4C39.286 140.787 39.8127 140.3 40.466 139.94C41.1327 139.567 41.8727 139.38 42.686 139.38C43.4327 139.38 44.1127 139.54 44.726 139.86C45.3527 140.18 45.8593 140.62 46.246 141.18C46.6327 141.74 46.826 142.393 46.826 143.14C46.826 143.713 46.7327 144.127 46.546 144.38C46.3593 144.62 46.1193 144.773 45.826 144.84C45.546 144.893 45.2527 144.92 44.946 144.92H40.886V145.22C40.886 145.793 41.0993 146.26 41.526 146.62C41.966 146.967 42.5327 147.14 43.226 147.14C43.666 147.14 44.0327 147.073 44.326 146.94C44.6193 146.807 44.8727 146.68 45.086 146.56C45.2993 146.44 45.4993 146.38 45.686 146.38C45.886 146.38 46.0593 146.447 46.206 146.58C46.3527 146.713 46.466 146.873 46.546 147.06C46.626 147.233 46.666 147.387 46.666 147.52C46.666 147.747 46.5193 147.993 46.226 148.26C45.946 148.513 45.5393 148.733 45.006 148.92C44.486 149.093 43.866 149.18 43.146 149.18ZM40.886 143.4H43.806C44.0327 143.4 44.186 143.367 44.266 143.3C44.3593 143.22 44.406 143.073 44.406 142.86C44.406 142.553 44.3193 142.28 44.146 142.04C43.986 141.8 43.7727 141.613 43.506 141.48C43.2527 141.347 42.966 141.28 42.646 141.28C42.3393 141.28 42.0527 141.347 41.786 141.48C41.5193 141.6 41.2993 141.78 41.126 142.02C40.966 142.247 40.886 142.52 40.886 142.84V143.4ZM52.173 149.22C51.9064 149.22 51.6597 149.18 51.433 149.1C51.2064 149.02 51.0597 148.907 50.993 148.76L47.573 140.84C47.5464 140.8 47.5197 140.747 47.493 140.68C47.4797 140.6 47.473 140.533 47.473 140.48C47.473 140.28 47.5664 140.1 47.753 139.94C47.953 139.767 48.1864 139.633 48.453 139.54C48.7197 139.433 48.9664 139.38 49.193 139.38C49.353 139.38 49.4997 139.413 49.633 139.48C49.7797 139.547 49.8797 139.66 49.933 139.82L52.173 145.62L54.393 139.86C54.4464 139.687 54.5397 139.567 54.673 139.5C54.8064 139.42 54.9597 139.38 55.133 139.38C55.3064 139.38 55.5264 139.433 55.793 139.54C56.073 139.633 56.3197 139.767 56.533 139.94C56.7464 140.113 56.853 140.3 56.853 140.5C56.853 140.567 56.8464 140.627 56.833 140.68C56.8197 140.733 56.7997 140.787 56.773 140.84L53.333 148.76C53.2664 148.907 53.1197 149.02 52.893 149.1C52.6664 149.18 52.4264 149.22 52.173 149.22ZM62.3648 149.18C61.4181 149.18 60.5781 149.013 59.8448 148.68C59.1248 148.333 58.5581 147.853 58.1448 147.24C57.7314 146.613 57.5248 145.893 57.5248 145.08V143.38C57.5248 142.66 57.7181 142 58.1048 141.4C58.5048 140.787 59.0314 140.3 59.6848 139.94C60.3514 139.567 61.0914 139.38 61.9048 139.38C62.6514 139.38 63.3314 139.54 63.9448 139.86C64.5714 140.18 65.0781 140.62 65.4648 141.18C65.8514 141.74 66.0448 142.393 66.0448 143.14C66.0448 143.713 65.9514 144.127 65.7648 144.38C65.5781 144.62 65.3381 144.773 65.0448 144.84C64.7648 144.893 64.4714 144.92 64.1648 144.92H60.1048V145.22C60.1048 145.793 60.3181 146.26 60.7448 146.62C61.1848 146.967 61.7514 147.14 62.4448 147.14C62.8848 147.14 63.2514 147.073 63.5448 146.94C63.8381 146.807 64.0914 146.68 64.3048 146.56C64.5181 146.44 64.7181 146.38 64.9048 146.38C65.1048 146.38 65.2781 146.447 65.4248 146.58C65.5714 146.713 65.6848 146.873 65.7648 147.06C65.8448 147.233 65.8848 147.387 65.8848 147.52C65.8848 147.747 65.7381 147.993 65.4448 148.26C65.1648 148.513 64.7581 148.733 64.2248 148.92C63.7048 149.093 63.0848 149.18 62.3648 149.18ZM60.1048 143.4H63.0248C63.2514 143.4 63.4048 143.367 63.4848 143.3C63.5781 143.22 63.6248 143.073 63.6248 142.86C63.6248 142.553 63.5381 142.28 63.3648 142.04C63.2048 141.8 62.9914 141.613 62.7248 141.48C62.4714 141.347 62.1848 141.28 61.8648 141.28C61.5581 141.28 61.2714 141.347 61.0048 141.48C60.7381 141.6 60.5181 141.78 60.3448 142.02C60.1848 142.247 60.1048 142.52 60.1048 142.84V143.4ZM68.8518 149C68.4918 149 68.1918 148.913 67.9518 148.74C67.7118 148.567 67.5918 148.373 67.5918 148.16V140.3C67.5918 140.06 67.7118 139.867 67.9518 139.72C68.1918 139.573 68.4918 139.5 68.8518 139.5C69.1851 139.5 69.4585 139.573 69.6718 139.72C69.8985 139.867 70.0118 140.06 70.0118 140.3V141.12C70.1585 140.827 70.3518 140.553 70.5918 140.3C70.8451 140.033 71.1318 139.813 71.4518 139.64C71.7718 139.467 72.1118 139.38 72.4718 139.38H73.0918C73.3451 139.38 73.5651 139.493 73.7518 139.72C73.9385 139.933 74.0318 140.193 74.0318 140.5C74.0318 140.82 73.9385 141.093 73.7518 141.32C73.5651 141.533 73.3451 141.64 73.0918 141.64H72.4718C72.0985 141.64 71.7318 141.767 71.3718 142.02C71.0251 142.26 70.7385 142.6 70.5118 143.04C70.2851 143.467 70.1718 143.987 70.1718 144.6V148.16C70.1718 148.373 70.0451 148.567 69.7918 148.74C69.5385 148.913 69.2251 149 68.8518 149ZM75.3718 153.42C75.0385 153.42 74.7585 153.353 74.5318 153.22C74.3051 153.1 74.1918 152.8 74.1918 152.32C74.1918 152.027 74.2385 151.773 74.3318 151.56C74.4385 151.347 74.6118 151.24 74.8518 151.24C75.0785 151.24 75.3385 151.2 75.6318 151.12C75.9385 151.04 76.2451 150.887 76.5518 150.66C76.8585 150.447 77.1185 150.147 77.3318 149.76C77.5451 149.387 77.6718 148.9 77.7118 148.3L74.2718 140.94C74.2185 140.82 74.1918 140.707 74.1918 140.6C74.1918 140.373 74.2851 140.167 74.4718 139.98C74.6718 139.793 74.9051 139.647 75.1718 139.54C75.4385 139.42 75.6851 139.36 75.9118 139.36C76.0718 139.36 76.2185 139.393 76.3518 139.46C76.4985 139.527 76.5985 139.64 76.6518 139.8L79.0518 145.78L80.9718 139.8C81.0385 139.64 81.1385 139.527 81.2718 139.46C81.4051 139.393 81.5385 139.36 81.6718 139.36C81.8718 139.36 82.1118 139.42 82.3918 139.54C82.6718 139.647 82.9118 139.8 83.1118 140C83.3251 140.187 83.4318 140.4 83.4318 140.64C83.4318 140.76 83.4118 140.86 83.3718 140.94L80.4518 148.4C80.2118 149 79.9785 149.593 79.7518 150.18C79.5251 150.78 79.2385 151.32 78.8918 151.8C78.5585 152.293 78.1118 152.687 77.5518 152.98C76.9918 153.273 76.2651 153.42 75.3718 153.42ZM92.5284 149.18C91.755 149.18 91.0417 148.993 90.3884 148.62C89.735 148.233 89.2084 147.727 88.8084 147.1C88.4084 146.473 88.2084 145.8 88.2084 145.08V143.44C88.2084 142.72 88.4017 142.053 88.7884 141.44C89.175 140.813 89.695 140.313 90.3484 139.94C91.015 139.567 91.7417 139.38 92.5284 139.38C93.315 139.38 94.035 139.567 94.6884 139.94C95.355 140.3 95.8817 140.787 96.2684 141.4C96.6684 142.013 96.8684 142.693 96.8684 143.44V145.08C96.8684 145.787 96.6684 146.453 96.2684 147.08C95.8684 147.707 95.335 148.213 94.6684 148.6C94.015 148.987 93.3017 149.18 92.5284 149.18ZM92.5284 146.92C92.8484 146.92 93.1417 146.833 93.4084 146.66C93.675 146.487 93.8884 146.26 94.0484 145.98C94.2084 145.687 94.2884 145.387 94.2884 145.08V143.44C94.2884 143.133 94.2084 142.847 94.0484 142.58C93.8884 142.313 93.675 142.093 93.4084 141.92C93.155 141.733 92.8617 141.64 92.5284 141.64C92.2084 141.64 91.915 141.727 91.6484 141.9C91.3817 142.073 91.1684 142.3 91.0084 142.58C90.8617 142.847 90.7884 143.133 90.7884 143.44V145.08C90.7884 145.387 90.8617 145.687 91.0084 145.98C91.1684 146.26 91.3817 146.487 91.6484 146.66C91.915 146.833 92.2084 146.92 92.5284 146.92ZM102.77 149.18C101.97 149.18 101.236 148.993 100.57 148.62C99.9164 148.233 99.3898 147.733 98.9898 147.12C98.6031 146.493 98.4098 145.827 98.4098 145.12V140.32C98.4098 140.12 98.5364 139.933 98.7898 139.76C99.0564 139.587 99.3631 139.5 99.7098 139.5C100.056 139.5 100.356 139.587 100.61 139.76C100.863 139.933 100.99 140.12 100.99 140.32V145.12C100.99 145.427 101.07 145.713 101.23 145.98C101.39 146.247 101.603 146.473 101.87 146.66C102.136 146.833 102.43 146.92 102.75 146.92C103.083 146.92 103.376 146.833 103.63 146.66C103.896 146.487 104.11 146.26 104.27 145.98C104.43 145.7 104.51 145.413 104.51 145.12V140.3C104.51 140.087 104.636 139.9 104.89 139.74C105.156 139.58 105.456 139.5 105.79 139.5C106.176 139.5 106.49 139.58 106.73 139.74C106.97 139.9 107.09 140.087 107.09 140.3V145.12C107.09 145.84 106.89 146.513 106.49 147.14C106.103 147.753 105.576 148.247 104.91 148.62C104.256 148.993 103.543 149.18 102.77 149.18ZM110.278 149C109.905 149 109.598 148.913 109.358 148.74C109.118 148.567 108.998 148.373 108.998 148.16V140.3C108.998 140.06 109.118 139.867 109.358 139.72C109.598 139.573 109.905 139.5 110.278 139.5C110.598 139.5 110.865 139.573 111.078 139.72C111.305 139.867 111.418 140.06 111.418 140.3V140.9C111.618 140.513 111.945 140.167 112.398 139.86C112.865 139.54 113.431 139.38 114.098 139.38C114.725 139.38 115.298 139.567 115.818 139.94C116.338 140.3 116.751 140.787 117.058 141.4C117.378 142.013 117.538 142.693 117.538 143.44V148.16C117.538 148.44 117.405 148.653 117.138 148.8C116.871 148.933 116.571 149 116.238 149C115.945 149 115.658 148.933 115.378 148.8C115.098 148.653 114.958 148.44 114.958 148.16V143.44C114.958 143.133 114.878 142.847 114.718 142.58C114.571 142.313 114.365 142.093 114.098 141.92C113.831 141.733 113.538 141.64 113.218 141.64C112.951 141.64 112.691 141.713 112.438 141.86C112.185 142.007 111.978 142.213 111.818 142.48C111.658 142.747 111.578 143.067 111.578 143.44V148.16C111.578 148.373 111.451 148.567 111.198 148.74C110.945 148.913 110.638 149 110.278 149ZM123.487 149.18C122.473 149.18 121.647 149 121.007 148.64C120.367 148.28 119.893 147.793 119.587 147.18C119.28 146.553 119.127 145.853 119.127 145.08V143.48C119.127 142.707 119.273 142.013 119.567 141.4C119.873 140.773 120.347 140.28 120.987 139.92C121.64 139.56 122.46 139.38 123.447 139.38C124.073 139.38 124.627 139.453 125.107 139.6C125.587 139.747 125.967 139.94 126.247 140.18C126.527 140.42 126.667 140.673 126.667 140.94C126.667 141.1 126.62 141.28 126.527 141.48C126.447 141.667 126.327 141.833 126.167 141.98C126.02 142.127 125.847 142.2 125.647 142.2C125.5 142.2 125.347 142.153 125.187 142.06C125.04 141.967 124.847 141.873 124.607 141.78C124.367 141.687 124.047 141.64 123.647 141.64C122.967 141.64 122.473 141.807 122.167 142.14C121.86 142.46 121.707 142.907 121.707 143.48V145.08C121.707 145.653 121.86 146.107 122.167 146.44C122.473 146.76 122.973 146.92 123.667 146.92C124.08 146.92 124.4 146.867 124.627 146.76C124.853 146.653 125.04 146.553 125.187 146.46C125.347 146.367 125.507 146.32 125.667 146.32C125.907 146.32 126.107 146.387 126.267 146.52C126.44 146.653 126.567 146.82 126.647 147.02C126.74 147.207 126.787 147.38 126.787 147.54C126.787 147.807 126.64 148.067 126.347 148.32C126.067 148.573 125.673 148.78 125.167 148.94C124.673 149.1 124.113 149.18 123.487 149.18ZM132.501 149.18C131.555 149.18 130.715 149.013 129.981 148.68C129.261 148.333 128.695 147.853 128.281 147.24C127.868 146.613 127.661 145.893 127.661 145.08V143.38C127.661 142.66 127.855 142 128.241 141.4C128.641 140.787 129.168 140.3 129.821 139.94C130.488 139.567 131.228 139.38 132.041 139.38C132.788 139.38 133.468 139.54 134.081 139.86C134.708 140.18 135.215 140.62 135.601 141.18C135.988 141.74 136.181 142.393 136.181 143.14C136.181 143.713 136.088 144.127 135.901 144.38C135.715 144.62 135.475 144.773 135.181 144.84C134.901 144.893 134.608 144.92 134.301 144.92H130.241V145.22C130.241 145.793 130.455 146.26 130.881 146.62C131.321 146.967 131.888 147.14 132.581 147.14C133.021 147.14 133.388 147.073 133.681 146.94C133.975 146.807 134.228 146.68 134.441 146.56C134.655 146.44 134.855 146.38 135.041 146.38C135.241 146.38 135.415 146.447 135.561 146.58C135.708 146.713 135.821 146.873 135.901 147.06C135.981 147.233 136.021 147.387 136.021 147.52C136.021 147.747 135.875 147.993 135.581 148.26C135.301 148.513 134.895 148.733 134.361 148.92C133.841 149.093 133.221 149.18 132.501 149.18ZM130.241 143.4H133.161C133.388 143.4 133.541 143.367 133.621 143.3C133.715 143.22 133.761 143.073 133.761 142.86C133.761 142.553 133.675 142.28 133.501 142.04C133.341 141.8 133.128 141.613 132.861 141.48C132.608 141.347 132.321 141.28 132.001 141.28C131.695 141.28 131.408 141.347 131.141 141.48C130.875 141.6 130.655 141.78 130.481 142.02C130.321 142.247 130.241 142.52 130.241 142.84V143.4ZM145.692 149.18C144.919 149.18 144.206 148.993 143.552 148.62C142.899 148.233 142.372 147.727 141.972 147.1C141.572 146.473 141.372 145.8 141.372 145.08V143.44C141.372 142.72 141.566 142.053 141.952 141.44C142.339 140.813 142.859 140.313 143.512 139.94C144.179 139.567 144.906 139.38 145.692 139.38C146.479 139.38 147.199 139.567 147.852 139.94C148.519 140.3 149.046 140.787 149.432 141.4C149.832 142.013 150.032 142.693 150.032 143.44V145.08C150.032 145.787 149.832 146.453 149.432 147.08C149.032 147.707 148.499 148.213 147.832 148.6C147.179 148.987 146.466 149.18 145.692 149.18ZM145.692 146.92C146.012 146.92 146.306 146.833 146.572 146.66C146.839 146.487 147.052 146.26 147.212 145.98C147.372 145.687 147.452 145.387 147.452 145.08V143.44C147.452 143.133 147.372 142.847 147.212 142.58C147.052 142.313 146.839 142.093 146.572 141.92C146.319 141.733 146.026 141.64 145.692 141.64C145.372 141.64 145.079 141.727 144.812 141.9C144.546 142.073 144.332 142.3 144.172 142.58C144.026 142.847 143.952 143.133 143.952 143.44V145.08C143.952 145.387 144.026 145.687 144.172 145.98C144.332 146.26 144.546 146.487 144.812 146.66C145.079 146.833 145.372 146.92 145.692 146.92ZM152.954 149C152.594 149 152.294 148.927 152.054 148.78C151.814 148.62 151.694 148.42 151.694 148.18V137.88C151.694 137.133 151.854 136.467 152.174 135.88C152.494 135.28 152.92 134.813 153.454 134.48C153.987 134.133 154.574 133.96 155.214 133.96H156.394C156.714 133.96 156.954 134.073 157.114 134.3C157.287 134.527 157.374 134.773 157.374 135.04C157.374 135.333 157.287 135.593 157.114 135.82C156.954 136.033 156.714 136.14 156.394 136.14H155.754C155.474 136.14 155.22 136.2 154.994 136.32C154.767 136.44 154.587 136.607 154.454 136.82C154.334 137.033 154.274 137.293 154.274 137.6V139.5H156.714C156.927 139.5 157.087 139.6 157.194 139.8C157.314 139.987 157.374 140.2 157.374 140.44C157.374 140.68 157.314 140.9 157.194 141.1C157.087 141.287 156.927 141.38 156.714 141.38H154.274V148.18C154.274 148.42 154.14 148.62 153.874 148.78C153.62 148.927 153.314 149 152.954 149ZM163.735 149C163.375 149 163.075 148.913 162.835 148.74C162.595 148.567 162.475 148.373 162.475 148.16V140.3C162.475 140.06 162.595 139.867 162.835 139.72C163.075 139.573 163.375 139.5 163.735 139.5C164.068 139.5 164.341 139.573 164.555 139.72C164.781 139.867 164.895 140.06 164.895 140.3V141.12C165.041 140.827 165.235 140.553 165.475 140.3C165.728 140.033 166.015 139.813 166.335 139.64C166.655 139.467 166.995 139.38 167.355 139.38H167.975C168.228 139.38 168.448 139.493 168.635 139.72C168.821 139.933 168.915 140.193 168.915 140.5C168.915 140.82 168.821 141.093 168.635 141.32C168.448 141.533 168.228 141.64 167.975 141.64H167.355C166.981 141.64 166.615 141.767 166.255 142.02C165.908 142.26 165.621 142.6 165.395 143.04C165.168 143.467 165.055 143.987 165.055 144.6V148.16C165.055 148.373 164.928 148.567 164.675 148.74C164.421 148.913 164.108 149 163.735 149ZM171.255 137.38C170.868 137.38 170.535 137.253 170.255 137C169.975 136.733 169.835 136.44 169.835 136.12C169.835 135.773 169.975 135.48 170.255 135.24C170.535 134.987 170.868 134.86 171.255 134.86C171.655 134.86 171.988 134.987 172.255 135.24C172.521 135.48 172.655 135.773 172.655 136.12C172.655 136.44 172.521 136.733 172.255 137C171.988 137.253 171.655 137.38 171.255 137.38ZM171.255 149C170.881 149 170.575 148.913 170.335 148.74C170.095 148.567 169.975 148.373 169.975 148.16V140.3C169.975 140.06 170.095 139.867 170.335 139.72C170.575 139.573 170.881 139.5 171.255 139.5C171.615 139.5 171.921 139.573 172.175 139.72C172.428 139.867 172.555 140.06 172.555 140.3V148.16C172.555 148.373 172.428 148.567 172.175 148.74C171.921 148.913 171.615 149 171.255 149ZM178.545 149.18C177.532 149.18 176.705 149 176.065 148.64C175.425 148.28 174.952 147.793 174.645 147.18C174.339 146.553 174.185 145.853 174.185 145.08V143.48C174.185 142.707 174.332 142.013 174.625 141.4C174.932 140.773 175.405 140.28 176.045 139.92C176.699 139.56 177.519 139.38 178.505 139.38C179.132 139.38 179.685 139.453 180.165 139.6C180.645 139.747 181.025 139.94 181.305 140.18C181.585 140.42 181.725 140.673 181.725 140.94C181.725 141.1 181.679 141.28 181.585 141.48C181.505 141.667 181.385 141.833 181.225 141.98C181.079 142.127 180.905 142.2 180.705 142.2C180.559 142.2 180.405 142.153 180.245 142.06C180.099 141.967 179.905 141.873 179.665 141.78C179.425 141.687 179.105 141.64 178.705 141.64C178.025 141.64 177.532 141.807 177.225 142.14C176.919 142.46 176.765 142.907 176.765 143.48V145.08C176.765 145.653 176.919 146.107 177.225 146.44C177.532 146.76 178.032 146.92 178.725 146.92C179.139 146.92 179.459 146.867 179.685 146.76C179.912 146.653 180.099 146.553 180.245 146.46C180.405 146.367 180.565 146.32 180.725 146.32C180.965 146.32 181.165 146.387 181.325 146.52C181.499 146.653 181.625 146.82 181.705 147.02C181.799 147.207 181.845 147.38 181.845 147.54C181.845 147.807 181.699 148.067 181.405 148.32C181.125 148.573 180.732 148.78 180.225 148.94C179.732 149.1 179.172 149.18 178.545 149.18ZM187.56 149.18C186.613 149.18 185.773 149.013 185.04 148.68C184.32 148.333 183.753 147.853 183.34 147.24C182.927 146.613 182.72 145.893 182.72 145.08V143.38C182.72 142.66 182.913 142 183.3 141.4C183.7 140.787 184.227 140.3 184.88 139.94C185.547 139.567 186.287 139.38 187.1 139.38C187.847 139.38 188.527 139.54 189.14 139.86C189.767 140.18 190.273 140.62 190.66 141.18C191.047 141.74 191.24 142.393 191.24 143.14C191.24 143.713 191.147 144.127 190.96 144.38C190.773 144.62 190.533 144.773 190.24 144.84C189.96 144.893 189.667 144.92 189.36 144.92H185.3V145.22C185.3 145.793 185.513 146.26 185.94 146.62C186.38 146.967 186.947 147.14 187.64 147.14C188.08 147.14 188.447 147.073 188.74 146.94C189.033 146.807 189.287 146.68 189.5 146.56C189.713 146.44 189.913 146.38 190.1 146.38C190.3 146.38 190.473 146.447 190.62 146.58C190.767 146.713 190.88 146.873 190.96 147.06C191.04 147.233 191.08 147.387 191.08 147.52C191.08 147.747 190.933 147.993 190.64 148.26C190.36 148.513 189.953 148.733 189.42 148.92C188.9 149.093 188.28 149.18 187.56 149.18ZM185.3 143.4H188.22C188.447 143.4 188.6 143.367 188.68 143.3C188.773 143.22 188.82 143.073 188.82 142.86C188.82 142.553 188.733 142.28 188.56 142.04C188.4 141.8 188.187 141.613 187.92 141.48C187.667 141.347 187.38 141.28 187.06 141.28C186.753 141.28 186.467 141.347 186.2 141.48C185.933 141.6 185.713 141.78 185.54 142.02C185.38 142.247 185.3 142.52 185.3 142.84V143.4ZM200.451 149C199.251 149 198.331 148.74 197.691 148.22C197.064 147.7 196.751 146.873 196.751 145.74V136.06C196.751 135.82 196.891 135.627 197.171 135.48C197.451 135.333 197.738 135.26 198.031 135.26C198.351 135.26 198.644 135.333 198.911 135.48C199.191 135.627 199.331 135.82 199.331 136.06V139.5H201.691C201.904 139.5 202.064 139.6 202.171 139.8C202.291 139.987 202.351 140.2 202.351 140.44C202.351 140.68 202.291 140.9 202.171 141.1C202.064 141.287 201.904 141.38 201.691 141.38H199.331V145.74C199.331 146.14 199.411 146.42 199.571 146.58C199.744 146.74 200.038 146.82 200.451 146.82H201.231C201.604 146.82 201.878 146.933 202.051 147.16C202.238 147.387 202.331 147.633 202.331 147.9C202.331 148.18 202.238 148.433 202.051 148.66C201.878 148.887 201.604 149 201.231 149H200.451ZM204.966 149C204.593 149 204.286 148.913 204.046 148.74C203.806 148.567 203.686 148.373 203.686 148.16V134.76C203.686 134.52 203.806 134.327 204.046 134.18C204.286 134.033 204.593 133.96 204.966 133.96C205.326 133.96 205.633 134.033 205.886 134.18C206.139 134.327 206.266 134.52 206.266 134.76V140.9C206.466 140.513 206.779 140.167 207.206 139.86C207.633 139.54 208.159 139.38 208.786 139.38C209.413 139.38 209.986 139.567 210.506 139.94C211.026 140.3 211.439 140.787 211.746 141.4C212.066 142.013 212.226 142.693 212.226 143.44V148.16C212.226 148.44 212.093 148.653 211.826 148.8C211.559 148.933 211.259 149 210.926 149C210.633 149 210.346 148.933 210.066 148.8C209.786 148.653 209.646 148.44 209.646 148.16V143.44C209.646 143.133 209.566 142.847 209.406 142.58C209.246 142.313 209.033 142.093 208.766 141.92C208.513 141.733 208.226 141.64 207.906 141.64C207.639 141.64 207.379 141.713 207.126 141.86C206.873 142.007 206.666 142.213 206.506 142.48C206.346 142.747 206.266 143.067 206.266 143.44V148.16C206.266 148.373 206.139 148.567 205.886 148.74C205.633 148.913 205.326 149 204.966 149ZM218.634 149.18C217.688 149.18 216.848 149.013 216.114 148.68C215.394 148.333 214.828 147.853 214.414 147.24C214.001 146.613 213.794 145.893 213.794 145.08V143.38C213.794 142.66 213.988 142 214.374 141.4C214.774 140.787 215.301 140.3 215.954 139.94C216.621 139.567 217.361 139.38 218.174 139.38C218.921 139.38 219.601 139.54 220.214 139.86C220.841 140.18 221.348 140.62 221.734 141.18C222.121 141.74 222.314 142.393 222.314 143.14C222.314 143.713 222.221 144.127 222.034 144.38C221.848 144.62 221.608 144.773 221.314 144.84C221.034 144.893 220.741 144.92 220.434 144.92H216.374V145.22C216.374 145.793 216.588 146.26 217.014 146.62C217.454 146.967 218.021 147.14 218.714 147.14C219.154 147.14 219.521 147.073 219.814 146.94C220.108 146.807 220.361 146.68 220.574 146.56C220.788 146.44 220.988 146.38 221.174 146.38C221.374 146.38 221.548 146.447 221.694 146.58C221.841 146.713 221.954 146.873 222.034 147.06C222.114 147.233 222.154 147.387 222.154 147.52C222.154 147.747 222.008 147.993 221.714 148.26C221.434 148.513 221.028 148.733 220.494 148.92C219.974 149.093 219.354 149.18 218.634 149.18ZM216.374 143.4H219.294C219.521 143.4 219.674 143.367 219.754 143.3C219.848 143.22 219.894 143.073 219.894 142.86C219.894 142.553 219.808 142.28 219.634 142.04C219.474 141.8 219.261 141.613 218.994 141.48C218.741 141.347 218.454 141.28 218.134 141.28C217.828 141.28 217.541 141.347 217.274 141.48C217.008 141.6 216.788 141.78 216.614 142.02C216.454 142.247 216.374 142.52 216.374 142.84V143.4ZM224.141 153.42C223.808 153.42 223.528 153.353 223.301 153.22C223.075 153.1 222.961 152.8 222.961 152.32C222.961 152.027 223.008 151.773 223.101 151.56C223.208 151.347 223.381 151.24 223.621 151.24C223.848 151.24 224.108 151.2 224.401 151.12C224.708 151.04 225.015 150.887 225.321 150.66C225.628 150.447 225.888 150.147 226.101 149.76C226.315 149.387 226.441 148.9 226.481 148.3L223.041 140.94C222.988 140.82 222.961 140.707 222.961 140.6C222.961 140.373 223.055 140.167 223.241 139.98C223.441 139.793 223.675 139.647 223.941 139.54C224.208 139.42 224.455 139.36 224.681 139.36C224.841 139.36 224.988 139.393 225.121 139.46C225.268 139.527 225.368 139.64 225.421 139.8L227.821 145.78L229.741 139.8C229.808 139.64 229.908 139.527 230.041 139.46C230.175 139.393 230.308 139.36 230.441 139.36C230.641 139.36 230.881 139.42 231.161 139.54C231.441 139.647 231.681 139.8 231.881 140C232.095 140.187 232.201 140.4 232.201 140.64C232.201 140.76 232.181 140.86 232.141 140.94L229.221 148.4C228.981 149 228.748 149.593 228.521 150.18C228.295 150.78 228.008 151.32 227.661 151.8C227.328 152.293 226.881 152.687 226.321 152.98C225.761 153.273 225.035 153.42 224.141 153.42ZM100.987 176.18C99.9735 176.18 99.1468 176 98.5068 175.64C97.8668 175.28 97.3935 174.793 97.0868 174.18C96.7801 173.553 96.6268 172.853 96.6268 172.08V170.48C96.6268 169.707 96.7735 169.013 97.0668 168.4C97.3735 167.773 97.8468 167.28 98.4868 166.92C99.1401 166.56 99.9601 166.38 100.947 166.38C101.573 166.38 102.127 166.453 102.607 166.6C103.087 166.747 103.467 166.94 103.747 167.18C104.027 167.42 104.167 167.673 104.167 167.94C104.167 168.1 104.12 168.28 104.027 168.48C103.947 168.667 103.827 168.833 103.667 168.98C103.52 169.127 103.347 169.2 103.147 169.2C103 169.2 102.847 169.153 102.687 169.06C102.54 168.967 102.347 168.873 102.107 168.78C101.867 168.687 101.547 168.64 101.147 168.64C100.467 168.64 99.9735 168.807 99.6668 169.14C99.3601 169.46 99.2068 169.907 99.2068 170.48V172.08C99.2068 172.653 99.3601 173.107 99.6668 173.44C99.9735 173.76 100.473 173.92 101.167 173.92C101.58 173.92 101.9 173.867 102.127 173.76C102.353 173.653 102.54 173.553 102.687 173.46C102.847 173.367 103.007 173.32 103.167 173.32C103.407 173.32 103.607 173.387 103.767 173.52C103.94 173.653 104.067 173.82 104.147 174.02C104.24 174.207 104.287 174.38 104.287 174.54C104.287 174.807 104.14 175.067 103.847 175.32C103.567 175.573 103.173 175.78 102.667 175.94C102.173 176.1 101.613 176.18 100.987 176.18ZM109.481 176.18C108.708 176.18 107.995 175.993 107.341 175.62C106.688 175.233 106.161 174.727 105.761 174.1C105.361 173.473 105.161 172.8 105.161 172.08V170.44C105.161 169.72 105.355 169.053 105.741 168.44C106.128 167.813 106.648 167.313 107.301 166.94C107.968 166.567 108.695 166.38 109.481 166.38C110.268 166.38 110.988 166.567 111.641 166.94C112.308 167.3 112.835 167.787 113.221 168.4C113.621 169.013 113.821 169.693 113.821 170.44V172.08C113.821 172.787 113.621 173.453 113.221 174.08C112.821 174.707 112.288 175.213 111.621 175.6C110.968 175.987 110.255 176.18 109.481 176.18ZM109.481 173.92C109.801 173.92 110.095 173.833 110.361 173.66C110.628 173.487 110.841 173.26 111.001 172.98C111.161 172.687 111.241 172.387 111.241 172.08V170.44C111.241 170.133 111.161 169.847 111.001 169.58C110.841 169.313 110.628 169.093 110.361 168.92C110.108 168.733 109.815 168.64 109.481 168.64C109.161 168.64 108.868 168.727 108.601 168.9C108.335 169.073 108.121 169.3 107.961 169.58C107.815 169.847 107.741 170.133 107.741 170.44V172.08C107.741 172.387 107.815 172.687 107.961 172.98C108.121 173.26 108.335 173.487 108.601 173.66C108.868 173.833 109.161 173.92 109.481 173.92ZM119.723 176.18C118.923 176.18 118.19 175.993 117.523 175.62C116.87 175.233 116.343 174.733 115.943 174.12C115.556 173.493 115.363 172.827 115.363 172.12V167.32C115.363 167.12 115.49 166.933 115.743 166.76C116.01 166.587 116.316 166.5 116.663 166.5C117.01 166.5 117.31 166.587 117.563 166.76C117.816 166.933 117.943 167.12 117.943 167.32V172.12C117.943 172.427 118.023 172.713 118.183 172.98C118.343 173.247 118.556 173.473 118.823 173.66C119.09 173.833 119.383 173.92 119.703 173.92C120.036 173.92 120.33 173.833 120.583 173.66C120.85 173.487 121.063 173.26 121.223 172.98C121.383 172.7 121.463 172.413 121.463 172.12V167.3C121.463 167.087 121.59 166.9 121.843 166.74C122.11 166.58 122.41 166.5 122.743 166.5C123.13 166.5 123.443 166.58 123.683 166.74C123.923 166.9 124.043 167.087 124.043 167.3V172.12C124.043 172.84 123.843 173.513 123.443 174.14C123.056 174.753 122.53 175.247 121.863 175.62C121.21 175.993 120.496 176.18 119.723 176.18ZM127.411 176C127.038 176 126.731 175.913 126.491 175.74C126.251 175.567 126.131 175.373 126.131 175.16V161.76C126.131 161.52 126.251 161.327 126.491 161.18C126.731 161.033 127.038 160.96 127.411 160.96C127.771 160.96 128.078 161.033 128.331 161.18C128.585 161.327 128.711 161.52 128.711 161.76V175.16C128.711 175.373 128.585 175.567 128.331 175.74C128.078 175.913 127.771 176 127.411 176ZM134.053 176.18C133.426 176.18 132.846 175.987 132.313 175.6C131.779 175.213 131.353 174.707 131.033 174.08C130.713 173.453 130.553 172.787 130.553 172.08V170.44C130.553 169.693 130.713 169.013 131.033 168.4C131.353 167.787 131.779 167.3 132.313 166.94C132.846 166.567 133.439 166.38 134.093 166.38C134.719 166.38 135.253 166.54 135.693 166.86C136.133 167.167 136.459 167.513 136.673 167.9V161.76C136.673 161.52 136.799 161.327 137.053 161.18C137.306 161.033 137.619 160.96 137.993 160.96C138.353 160.96 138.653 161.033 138.893 161.18C139.133 161.327 139.253 161.52 139.253 161.76V175.16C139.253 175.373 139.133 175.567 138.893 175.74C138.653 175.913 138.353 176 137.993 176C137.673 176 137.399 175.913 137.173 175.74C136.946 175.567 136.833 175.373 136.833 175.16V174.6C136.633 175.013 136.273 175.38 135.753 175.7C135.246 176.02 134.679 176.18 134.053 176.18ZM134.873 173.92C135.219 173.92 135.526 173.827 135.793 173.64C136.059 173.44 136.273 173.227 136.433 173C136.593 172.76 136.673 172.573 136.673 172.44V170.44C136.673 170.067 136.579 169.747 136.393 169.48C136.219 169.213 135.993 169.007 135.713 168.86C135.446 168.713 135.173 168.64 134.893 168.64C134.573 168.64 134.273 168.733 133.993 168.92C133.726 169.093 133.513 169.313 133.353 169.58C133.206 169.847 133.133 170.133 133.133 170.44V172.08C133.133 172.387 133.206 172.68 133.353 172.96C133.513 173.24 133.726 173.473 133.993 173.66C134.259 173.833 134.553 173.92 134.873 173.92ZM149.008 180.42C148.221 180.42 147.488 180.307 146.808 180.08C146.141 179.867 145.601 179.547 145.188 179.12C144.788 178.693 144.588 178.187 144.588 177.6C144.588 177.093 144.728 176.66 145.008 176.3C145.288 175.953 145.634 175.68 146.048 175.48C145.794 175.36 145.588 175.2 145.428 175C145.281 174.787 145.208 174.52 145.208 174.2C145.208 173.827 145.301 173.527 145.488 173.3C145.688 173.06 145.934 172.84 146.228 172.64C145.828 172.333 145.514 171.967 145.288 171.54C145.074 171.1 144.968 170.62 144.968 170.1V169.68C144.968 169.027 145.128 168.453 145.448 167.96C145.781 167.467 146.241 167.08 146.828 166.8C147.428 166.52 148.114 166.38 148.888 166.38C149.328 166.38 149.741 166.433 150.128 166.54C150.514 166.633 150.861 166.773 151.168 166.96C151.394 166.427 151.608 166.067 151.808 165.88C152.008 165.693 152.201 165.6 152.388 165.6C152.708 165.6 152.954 165.693 153.128 165.88C153.314 166.067 153.408 166.24 153.408 166.4C153.408 166.52 153.374 166.627 153.308 166.72C153.254 166.813 153.181 166.893 153.088 166.96C152.954 167.04 152.801 167.14 152.628 167.26C152.454 167.367 152.294 167.52 152.148 167.72C152.388 167.987 152.561 168.287 152.668 168.62C152.788 168.94 152.848 169.293 152.848 169.68V170.1C152.848 170.74 152.681 171.313 152.348 171.82C152.014 172.313 151.548 172.707 150.948 173C150.348 173.293 149.661 173.44 148.888 173.44C148.408 173.44 147.974 173.38 147.588 173.26C147.521 173.313 147.461 173.373 147.408 173.44C147.368 173.507 147.348 173.58 147.348 173.66C147.348 173.887 147.494 174.047 147.788 174.14C148.081 174.233 148.454 174.307 148.908 174.36C149.361 174.413 149.841 174.487 150.348 174.58C150.868 174.66 151.354 174.793 151.808 174.98C152.261 175.167 152.634 175.447 152.928 175.82C153.221 176.18 153.368 176.667 153.368 177.28C153.368 178.027 153.154 178.627 152.728 179.08C152.314 179.547 151.774 179.887 151.108 180.1C150.454 180.313 149.754 180.42 149.008 180.42ZM148.968 178.76C149.488 178.76 149.928 178.633 150.288 178.38C150.661 178.127 150.848 177.787 150.848 177.36C150.848 177.08 150.768 176.853 150.608 176.68C150.448 176.507 150.228 176.373 149.948 176.28C149.681 176.2 149.388 176.133 149.068 176.08C148.748 176.04 148.428 176 148.108 175.96C147.788 176.107 147.528 176.293 147.328 176.52C147.128 176.747 147.028 177.02 147.028 177.34C147.028 177.78 147.214 178.127 147.588 178.38C147.974 178.633 148.434 178.76 148.968 178.76ZM148.928 171.88C149.368 171.88 149.714 171.713 149.968 171.38C150.221 171.047 150.348 170.62 150.348 170.1V169.68C150.348 169.187 150.221 168.773 149.968 168.44C149.728 168.107 149.374 167.94 148.908 167.94C148.454 167.94 148.101 168.107 147.848 168.44C147.608 168.773 147.488 169.187 147.488 169.68V170.08C147.488 170.587 147.608 171.013 147.848 171.36C148.101 171.707 148.461 171.88 148.928 171.88ZM159.103 176.18C158.156 176.18 157.316 176.013 156.583 175.68C155.863 175.333 155.296 174.853 154.883 174.24C154.47 173.613 154.263 172.893 154.263 172.08V170.38C154.263 169.66 154.456 169 154.843 168.4C155.243 167.787 155.77 167.3 156.423 166.94C157.09 166.567 157.83 166.38 158.643 166.38C159.39 166.38 160.07 166.54 160.683 166.86C161.31 167.18 161.816 167.62 162.203 168.18C162.59 168.74 162.783 169.393 162.783 170.14C162.783 170.713 162.69 171.127 162.503 171.38C162.316 171.62 162.076 171.773 161.783 171.84C161.503 171.893 161.21 171.92 160.903 171.92H156.843V172.22C156.843 172.793 157.056 173.26 157.483 173.62C157.923 173.967 158.49 174.14 159.183 174.14C159.623 174.14 159.99 174.073 160.283 173.94C160.576 173.807 160.83 173.68 161.043 173.56C161.256 173.44 161.456 173.38 161.643 173.38C161.843 173.38 162.016 173.447 162.163 173.58C162.31 173.713 162.423 173.873 162.503 174.06C162.583 174.233 162.623 174.387 162.623 174.52C162.623 174.747 162.476 174.993 162.183 175.26C161.903 175.513 161.496 175.733 160.963 175.92C160.443 176.093 159.823 176.18 159.103 176.18ZM156.843 170.4H159.763C159.99 170.4 160.143 170.367 160.223 170.3C160.316 170.22 160.363 170.073 160.363 169.86C160.363 169.553 160.276 169.28 160.103 169.04C159.943 168.8 159.73 168.613 159.463 168.48C159.21 168.347 158.923 168.28 158.603 168.28C158.296 168.28 158.01 168.347 157.743 168.48C157.476 168.6 157.256 168.78 157.083 169.02C156.923 169.247 156.843 169.52 156.843 169.84V170.4ZM167.99 176C166.79 176 165.87 175.74 165.23 175.22C164.603 174.7 164.29 173.873 164.29 172.74V163.06C164.29 162.82 164.43 162.627 164.71 162.48C164.99 162.333 165.277 162.26 165.57 162.26C165.89 162.26 166.183 162.333 166.45 162.48C166.73 162.627 166.87 162.82 166.87 163.06V166.5H169.23C169.443 166.5 169.603 166.6 169.71 166.8C169.83 166.987 169.89 167.2 169.89 167.44C169.89 167.68 169.83 167.9 169.71 168.1C169.603 168.287 169.443 168.38 169.23 168.38H166.87V172.74C166.87 173.14 166.95 173.42 167.11 173.58C167.283 173.74 167.577 173.82 167.99 173.82H168.77C169.143 173.82 169.417 173.933 169.59 174.16C169.777 174.387 169.87 174.633 169.87 174.9C169.87 175.18 169.777 175.433 169.59 175.66C169.417 175.887 169.143 176 168.77 176H167.99ZM172.125 176.12C171.738 176.12 171.412 175.987 171.145 175.72C170.892 175.44 170.765 175.12 170.765 174.76C170.765 174.387 170.892 174.067 171.145 173.8C171.412 173.533 171.738 173.4 172.125 173.4C172.485 173.4 172.798 173.533 173.065 173.8C173.332 174.067 173.465 174.387 173.465 174.76C173.465 175.12 173.332 175.44 173.065 175.72C172.798 175.987 172.485 176.12 172.125 176.12Z" fill="#578FFE"/>
</g>
<defs>
<filter id="filter0_d_1930_38" x="0" y="0" width="275" height="275" filterUnits="userSpaceOnUse" color-interpolation-filters="sRGB">
<feFlood flood-opacity="0" result="BackgroundImageFix"/>
<feColorMatrix in="SourceAlpha" type="matrix" values="0 0 0 0 0 0 0 0 0 0 0 0 0 0 0 0 0 0 127 0" result="hardAlpha"/>
<feOffset dx="5" dy="5"/>
<feComposite in2="hardAlpha" operator="out"/>
<feColorMatrix type="matrix" values="0 0 0 0 0.956863 0 0 0 0 0.490196 0 0 0 0 0.380392 0 0 0 1 0"/>
<feBlend mode="normal" in2="BackgroundImageFix" result="effect1_dropShadow_1930_38"/>
<feBlend mode="normal" in="SourceGraphic" in2="effect1_dropShadow_1930_38" result="shape"/>
</filter>
<filter id="filter1_d_1930_38" x="98" y="217" width="75" height="31" filterUnits="userSpaceOnUse" color-interpolation-filters="sRGB">
<feFlood flood-opacity="0" result="BackgroundImageFix"/>
<feColorMatrix in="SourceAlpha" type="matrix" values="0 0 0 0 0 0 0 0 0 0 0 0 0 0 0 0 0 0 127 0" result="hardAlpha"/>
<feOffset dx="2" dy="2"/>
<feComposite in2="hardAlpha" operator="out"/>
<feColorMatrix type="matrix" values="0 0 0 0 1 0 0 0 0 0 0 0 0 0 0.509804 0 0 0 1 0"/>
<feBlend mode="normal" in2="BackgroundImageFix" result="effect1_dropShadow_1930_38"/>
<feBlend mode="normal" in="SourceGraphic" in2="effect1_dropShadow_1930_38" result="shape"/>
</filter>
</defs>
</svg>
