<svg width="275" height="275" viewBox="0 0 275 275" fill="none" xmlns="http://www.w3.org/2000/svg">
<g filter="url(#filter0_d_1960_13)">
<rect width="270" height="270" rx="50" fill="#F9E6E0"/>
<rect x="0.5" y="0.5" width="269" height="269" rx="49.5" stroke="#FFD208"/>
<path d="M62.0188 118C61.6988 118 61.3988 117.933 61.1188 117.8C60.8522 117.653 60.7188 117.44 60.7188 117.16V112.14C60.7188 112.033 60.6988 111.947 60.6588 111.88L56.5188 104.72C56.4922 104.667 56.4722 104.62 56.4588 104.58C56.4588 104.527 56.4588 104.487 56.4588 104.46C56.4588 104.247 56.5522 104.06 56.7388 103.9C56.9255 103.74 57.1522 103.613 57.4188 103.52C57.6855 103.427 57.9388 103.38 58.1788 103.38C58.3922 103.38 58.5522 103.427 58.6588 103.52C58.7655 103.6 58.8655 103.727 58.9588 103.9L62.0188 109.68L65.0588 103.9C65.1655 103.727 65.2722 103.6 65.3788 103.52C65.4855 103.427 65.6455 103.38 65.8588 103.38C66.0988 103.38 66.3455 103.427 66.5988 103.52C66.8655 103.613 67.0922 103.74 67.2788 103.9C67.4788 104.06 67.5788 104.247 67.5788 104.46C67.5788 104.487 67.5722 104.527 67.5588 104.58C67.5588 104.62 67.5455 104.667 67.5188 104.72L63.3788 111.88C63.3388 111.947 63.3188 112.033 63.3188 112.14V117.16C63.3188 117.44 63.1788 117.653 62.8988 117.8C62.6322 117.933 62.3388 118 62.0188 118ZM70.6729 118.18C69.8996 118.18 69.1862 117.993 68.5329 117.62C67.8796 117.233 67.3529 116.727 66.9529 116.1C66.5529 115.473 66.3529 114.8 66.3529 114.08V112.44C66.3529 111.72 66.5462 111.053 66.9329 110.44C67.3196 109.813 67.8396 109.313 68.4929 108.94C69.1596 108.567 69.8862 108.38 70.6729 108.38C71.4596 108.38 72.1796 108.567 72.8329 108.94C73.4996 109.3 74.0262 109.787 74.4129 110.4C74.8129 111.013 75.0129 111.693 75.0129 112.44V114.08C75.0129 114.787 74.8129 115.453 74.4129 116.08C74.0129 116.707 73.4796 117.213 72.8129 117.6C72.1596 117.987 71.4462 118.18 70.6729 118.18ZM70.6729 115.92C70.9929 115.92 71.2862 115.833 71.5529 115.66C71.8196 115.487 72.0329 115.26 72.1929 114.98C72.3529 114.687 72.4329 114.387 72.4329 114.08V112.44C72.4329 112.133 72.3529 111.847 72.1929 111.58C72.0329 111.313 71.8196 111.093 71.5529 110.92C71.2996 110.733 71.0062 110.64 70.6729 110.64C70.3529 110.64 70.0596 110.727 69.7929 110.9C69.5262 111.073 69.3129 111.3 69.1529 111.58C69.0062 111.847 68.9329 112.133 68.9329 112.44V114.08C68.9329 114.387 69.0062 114.687 69.1529 114.98C69.3129 115.26 69.5262 115.487 69.7929 115.66C70.0596 115.833 70.3529 115.92 70.6729 115.92ZM80.9143 118.18C80.1143 118.18 79.381 117.993 78.7143 117.62C78.061 117.233 77.5343 116.733 77.1343 116.12C76.7476 115.493 76.5543 114.827 76.5543 114.12V109.32C76.5543 109.12 76.681 108.933 76.9343 108.76C77.201 108.587 77.5076 108.5 77.8543 108.5C78.201 108.5 78.501 108.587 78.7543 108.76C79.0076 108.933 79.1343 109.12 79.1343 109.32V114.12C79.1343 114.427 79.2143 114.713 79.3743 114.98C79.5343 115.247 79.7476 115.473 80.0143 115.66C80.281 115.833 80.5743 115.92 80.8943 115.92C81.2276 115.92 81.521 115.833 81.7743 115.66C82.041 115.487 82.2543 115.26 82.4143 114.98C82.5743 114.7 82.6543 114.413 82.6543 114.12V109.3C82.6543 109.087 82.781 108.9 83.0343 108.74C83.301 108.58 83.601 108.5 83.9343 108.5C84.321 108.5 84.6343 108.58 84.8743 108.74C85.1143 108.9 85.2343 109.087 85.2343 109.3V114.12C85.2343 114.84 85.0343 115.513 84.6343 116.14C84.2476 116.753 83.721 117.247 83.0543 117.62C82.401 117.993 81.6876 118.18 80.9143 118.18ZM87.684 107.78C87.4973 107.78 87.304 107.727 87.104 107.62C86.9173 107.5 86.824 107.327 86.824 107.1C86.824 107.007 86.8507 106.913 86.904 106.82L87.364 105.76C87.1373 105.64 86.9573 105.473 86.824 105.26C86.6907 105.047 86.624 104.807 86.624 104.54C86.624 104.167 86.7507 103.847 87.004 103.58C87.2707 103.313 87.5907 103.18 87.964 103.18C88.3373 103.18 88.6573 103.313 88.924 103.58C89.1907 103.847 89.324 104.16 89.324 104.52C89.324 104.587 89.3107 104.673 89.284 104.78C89.2573 104.887 89.204 105.04 89.124 105.24C89.0573 105.427 88.9507 105.7 88.804 106.06C88.6573 106.42 88.4573 106.887 88.204 107.46C88.164 107.567 88.0907 107.647 87.984 107.7C87.8773 107.753 87.7773 107.78 87.684 107.78ZM94.4582 118.22C94.1915 118.22 93.9449 118.18 93.7182 118.1C93.4915 118.02 93.3449 117.907 93.2782 117.76L89.8582 109.84C89.8315 109.8 89.8049 109.747 89.7782 109.68C89.7649 109.6 89.7582 109.533 89.7582 109.48C89.7582 109.28 89.8515 109.1 90.0382 108.94C90.2382 108.767 90.4715 108.633 90.7382 108.54C91.0049 108.433 91.2515 108.38 91.4782 108.38C91.6382 108.38 91.7849 108.413 91.9182 108.48C92.0649 108.547 92.1649 108.66 92.2182 108.82L94.4582 114.62L96.6782 108.86C96.7315 108.687 96.8249 108.567 96.9582 108.5C97.0915 108.42 97.2449 108.38 97.4182 108.38C97.5915 108.38 97.8115 108.433 98.0782 108.54C98.3582 108.633 98.6049 108.767 98.8182 108.94C99.0315 109.113 99.1382 109.3 99.1382 109.5C99.1382 109.567 99.1315 109.627 99.1182 109.68C99.1049 109.733 99.0849 109.787 99.0582 109.84L95.6182 117.76C95.5515 117.907 95.4049 118.02 95.1782 118.1C94.9515 118.18 94.7115 118.22 94.4582 118.22ZM104.65 118.18C103.703 118.18 102.863 118.013 102.13 117.68C101.41 117.333 100.843 116.853 100.43 116.24C100.017 115.613 99.8099 114.893 99.8099 114.08V112.38C99.8099 111.66 100.003 111 100.39 110.4C100.79 109.787 101.317 109.3 101.97 108.94C102.637 108.567 103.377 108.38 104.19 108.38C104.937 108.38 105.617 108.54 106.23 108.86C106.857 109.18 107.363 109.62 107.75 110.18C108.137 110.74 108.33 111.393 108.33 112.14C108.33 112.713 108.237 113.127 108.05 113.38C107.863 113.62 107.623 113.773 107.33 113.84C107.05 113.893 106.757 113.92 106.45 113.92H102.39V114.22C102.39 114.793 102.603 115.26 103.03 115.62C103.47 115.967 104.037 116.14 104.73 116.14C105.17 116.14 105.537 116.073 105.83 115.94C106.123 115.807 106.377 115.68 106.59 115.56C106.803 115.44 107.003 115.38 107.19 115.38C107.39 115.38 107.563 115.447 107.71 115.58C107.857 115.713 107.97 115.873 108.05 116.06C108.13 116.233 108.17 116.387 108.17 116.52C108.17 116.747 108.023 116.993 107.73 117.26C107.45 117.513 107.043 117.733 106.51 117.92C105.99 118.093 105.37 118.18 104.65 118.18ZM102.39 112.4H105.31C105.537 112.4 105.69 112.367 105.77 112.3C105.863 112.22 105.91 112.073 105.91 111.86C105.91 111.553 105.823 111.28 105.65 111.04C105.49 110.8 105.277 110.613 105.01 110.48C104.757 110.347 104.47 110.28 104.15 110.28C103.843 110.28 103.557 110.347 103.29 110.48C103.023 110.6 102.803 110.78 102.63 111.02C102.47 111.247 102.39 111.52 102.39 111.84V112.4ZM117.901 118.18C116.888 118.18 116.061 118 115.421 117.64C114.781 117.28 114.308 116.793 114.001 116.18C113.694 115.553 113.541 114.853 113.541 114.08V112.48C113.541 111.707 113.688 111.013 113.981 110.4C114.288 109.773 114.761 109.28 115.401 108.92C116.054 108.56 116.874 108.38 117.861 108.38C118.488 108.38 119.041 108.453 119.521 108.6C120.001 108.747 120.381 108.94 120.661 109.18C120.941 109.42 121.081 109.673 121.081 109.94C121.081 110.1 121.034 110.28 120.941 110.48C120.861 110.667 120.741 110.833 120.581 110.98C120.434 111.127 120.261 111.2 120.061 111.2C119.914 111.2 119.761 111.153 119.601 111.06C119.454 110.967 119.261 110.873 119.021 110.78C118.781 110.687 118.461 110.64 118.061 110.64C117.381 110.64 116.888 110.807 116.581 111.14C116.274 111.46 116.121 111.907 116.121 112.48V114.08C116.121 114.653 116.274 115.107 116.581 115.44C116.888 115.76 117.388 115.92 118.081 115.92C118.494 115.92 118.814 115.867 119.041 115.76C119.268 115.653 119.454 115.553 119.601 115.46C119.761 115.367 119.921 115.32 120.081 115.32C120.321 115.32 120.521 115.387 120.681 115.52C120.854 115.653 120.981 115.82 121.061 116.02C121.154 116.207 121.201 116.38 121.201 116.54C121.201 116.807 121.054 117.067 120.761 117.32C120.481 117.573 120.088 117.78 119.581 117.94C119.088 118.1 118.528 118.18 117.901 118.18ZM124.573 118.18C123.867 118.18 123.253 117.967 122.733 117.54C122.227 117.1 121.973 116.427 121.973 115.52C121.973 114.76 122.167 114.167 122.553 113.74C122.953 113.313 123.5 113.013 124.193 112.84C124.9 112.667 125.713 112.58 126.633 112.58H127.453V112.32C127.453 112.027 127.393 111.74 127.273 111.46C127.167 111.18 126.987 110.947 126.733 110.76C126.493 110.573 126.147 110.48 125.693 110.48C125.187 110.48 124.793 110.533 124.513 110.64C124.247 110.733 124.04 110.833 123.893 110.94C123.747 111.047 123.587 111.1 123.413 111.1C123.133 111.1 122.913 110.96 122.753 110.68C122.607 110.4 122.533 110.113 122.533 109.82C122.533 109.54 122.7 109.293 123.033 109.08C123.38 108.853 123.8 108.68 124.293 108.56C124.787 108.44 125.267 108.38 125.733 108.38C126.773 108.38 127.607 108.567 128.233 108.94C128.86 109.313 129.313 109.793 129.593 110.38C129.887 110.967 130.033 111.6 130.033 112.28V117.16C130.033 117.4 129.913 117.6 129.673 117.76C129.433 117.92 129.133 118 128.773 118C128.44 118 128.16 117.92 127.933 117.76C127.72 117.6 127.613 117.4 127.613 117.16V116.6C127.253 117.013 126.827 117.38 126.333 117.7C125.853 118.02 125.267 118.18 124.573 118.18ZM125.613 116.26C125.893 116.26 126.173 116.167 126.453 115.98C126.733 115.793 126.967 115.553 127.153 115.26C127.353 114.967 127.453 114.66 127.453 114.34V113.92H127.153C126.713 113.92 126.293 113.947 125.893 114C125.493 114.053 125.167 114.173 124.913 114.36C124.673 114.533 124.553 114.807 124.553 115.18C124.553 115.553 124.653 115.827 124.853 116C125.067 116.173 125.32 116.26 125.613 116.26ZM136.207 118.18C135.407 118.18 134.674 117.993 134.007 117.62C133.354 117.233 132.827 116.733 132.427 116.12C132.041 115.493 131.847 114.827 131.847 114.12V109.32C131.847 109.12 131.974 108.933 132.227 108.76C132.494 108.587 132.801 108.5 133.147 108.5C133.494 108.5 133.794 108.587 134.047 108.76C134.301 108.933 134.427 109.12 134.427 109.32V114.12C134.427 114.427 134.507 114.713 134.667 114.98C134.827 115.247 135.041 115.473 135.307 115.66C135.574 115.833 135.867 115.92 136.187 115.92C136.521 115.92 136.814 115.833 137.067 115.66C137.334 115.487 137.547 115.26 137.707 114.98C137.867 114.7 137.947 114.413 137.947 114.12V109.3C137.947 109.087 138.074 108.9 138.327 108.74C138.594 108.58 138.894 108.5 139.227 108.5C139.614 108.5 139.927 108.58 140.167 108.74C140.407 108.9 140.527 109.087 140.527 109.3V114.12C140.527 114.84 140.327 115.513 139.927 116.14C139.541 116.753 139.014 117.247 138.347 117.62C137.694 117.993 136.981 118.18 136.207 118.18ZM146.176 122.42C145.389 122.42 144.656 122.307 143.976 122.08C143.309 121.867 142.769 121.547 142.356 121.12C141.956 120.693 141.756 120.187 141.756 119.6C141.756 119.093 141.896 118.66 142.176 118.3C142.456 117.953 142.802 117.68 143.216 117.48C142.962 117.36 142.756 117.2 142.596 117C142.449 116.787 142.376 116.52 142.376 116.2C142.376 115.827 142.469 115.527 142.656 115.3C142.856 115.06 143.102 114.84 143.396 114.64C142.996 114.333 142.682 113.967 142.456 113.54C142.242 113.1 142.136 112.62 142.136 112.1V111.68C142.136 111.027 142.296 110.453 142.616 109.96C142.949 109.467 143.409 109.08 143.996 108.8C144.596 108.52 145.282 108.38 146.056 108.38C146.496 108.38 146.909 108.433 147.296 108.54C147.682 108.633 148.029 108.773 148.336 108.96C148.562 108.427 148.776 108.067 148.976 107.88C149.176 107.693 149.369 107.6 149.556 107.6C149.876 107.6 150.122 107.693 150.296 107.88C150.482 108.067 150.576 108.24 150.576 108.4C150.576 108.52 150.542 108.627 150.476 108.72C150.422 108.813 150.349 108.893 150.256 108.96C150.122 109.04 149.969 109.14 149.796 109.26C149.622 109.367 149.462 109.52 149.316 109.72C149.556 109.987 149.729 110.287 149.836 110.62C149.956 110.94 150.016 111.293 150.016 111.68V112.1C150.016 112.74 149.849 113.313 149.516 113.82C149.182 114.313 148.716 114.707 148.116 115C147.516 115.293 146.829 115.44 146.056 115.44C145.576 115.44 145.142 115.38 144.756 115.26C144.689 115.313 144.629 115.373 144.576 115.44C144.536 115.507 144.516 115.58 144.516 115.66C144.516 115.887 144.662 116.047 144.956 116.14C145.249 116.233 145.622 116.307 146.076 116.36C146.529 116.413 147.009 116.487 147.516 116.58C148.036 116.66 148.522 116.793 148.976 116.98C149.429 117.167 149.802 117.447 150.096 117.82C150.389 118.18 150.536 118.667 150.536 119.28C150.536 120.027 150.322 120.627 149.896 121.08C149.482 121.547 148.942 121.887 148.276 122.1C147.622 122.313 146.922 122.42 146.176 122.42ZM146.136 120.76C146.656 120.76 147.096 120.633 147.456 120.38C147.829 120.127 148.016 119.787 148.016 119.36C148.016 119.08 147.936 118.853 147.776 118.68C147.616 118.507 147.396 118.373 147.116 118.28C146.849 118.2 146.556 118.133 146.236 118.08C145.916 118.04 145.596 118 145.276 117.96C144.956 118.107 144.696 118.293 144.496 118.52C144.296 118.747 144.196 119.02 144.196 119.34C144.196 119.78 144.382 120.127 144.756 120.38C145.142 120.633 145.602 120.76 146.136 120.76ZM146.096 113.88C146.536 113.88 146.882 113.713 147.136 113.38C147.389 113.047 147.516 112.62 147.516 112.1V111.68C147.516 111.187 147.389 110.773 147.136 110.44C146.896 110.107 146.542 109.94 146.076 109.94C145.622 109.94 145.269 110.107 145.016 110.44C144.776 110.773 144.656 111.187 144.656 111.68V112.08C144.656 112.587 144.776 113.013 145.016 113.36C145.269 113.707 145.629 113.88 146.096 113.88ZM153.15 118C152.776 118 152.47 117.913 152.23 117.74C151.99 117.567 151.87 117.373 151.87 117.16V103.76C151.87 103.52 151.99 103.327 152.23 103.18C152.47 103.033 152.776 102.96 153.15 102.96C153.51 102.96 153.816 103.033 154.07 103.18C154.323 103.327 154.45 103.52 154.45 103.76V109.9C154.65 109.513 154.963 109.167 155.39 108.86C155.816 108.54 156.343 108.38 156.97 108.38C157.596 108.38 158.17 108.567 158.69 108.94C159.21 109.3 159.623 109.787 159.93 110.4C160.25 111.013 160.41 111.693 160.41 112.44V117.16C160.41 117.44 160.276 117.653 160.01 117.8C159.743 117.933 159.443 118 159.11 118C158.816 118 158.53 117.933 158.25 117.8C157.97 117.653 157.83 117.44 157.83 117.16V112.44C157.83 112.133 157.75 111.847 157.59 111.58C157.43 111.313 157.216 111.093 156.95 110.92C156.696 110.733 156.41 110.64 156.09 110.64C155.823 110.64 155.563 110.713 155.31 110.86C155.056 111.007 154.85 111.213 154.69 111.48C154.53 111.747 154.45 112.067 154.45 112.44V117.16C154.45 117.373 154.323 117.567 154.07 117.74C153.816 117.913 153.51 118 153.15 118ZM165.998 118C164.798 118 163.878 117.74 163.238 117.22C162.611 116.7 162.298 115.873 162.298 114.74V105.06C162.298 104.82 162.438 104.627 162.718 104.48C162.998 104.333 163.285 104.26 163.578 104.26C163.898 104.26 164.191 104.333 164.458 104.48C164.738 104.627 164.878 104.82 164.878 105.06V108.5H167.238C167.451 108.5 167.611 108.6 167.718 108.8C167.838 108.987 167.898 109.2 167.898 109.44C167.898 109.68 167.838 109.9 167.718 110.1C167.611 110.287 167.451 110.38 167.238 110.38H164.878V114.74C164.878 115.14 164.958 115.42 165.118 115.58C165.291 115.74 165.585 115.82 165.998 115.82H166.778C167.151 115.82 167.425 115.933 167.598 116.16C167.785 116.387 167.878 116.633 167.878 116.9C167.878 117.18 167.785 117.433 167.598 117.66C167.425 117.887 167.151 118 166.778 118H165.998ZM175.257 118.18C174.55 118.18 173.937 117.967 173.417 117.54C172.91 117.1 172.657 116.427 172.657 115.52C172.657 114.76 172.85 114.167 173.237 113.74C173.637 113.313 174.183 113.013 174.877 112.84C175.583 112.667 176.397 112.58 177.317 112.58H178.137V112.32C178.137 112.027 178.077 111.74 177.957 111.46C177.85 111.18 177.67 110.947 177.417 110.76C177.177 110.573 176.83 110.48 176.377 110.48C175.87 110.48 175.477 110.533 175.197 110.64C174.93 110.733 174.723 110.833 174.577 110.94C174.43 111.047 174.27 111.1 174.097 111.1C173.817 111.1 173.597 110.96 173.437 110.68C173.29 110.4 173.217 110.113 173.217 109.82C173.217 109.54 173.383 109.293 173.717 109.08C174.063 108.853 174.483 108.68 174.977 108.56C175.47 108.44 175.95 108.38 176.417 108.38C177.457 108.38 178.29 108.567 178.917 108.94C179.543 109.313 179.997 109.793 180.277 110.38C180.57 110.967 180.717 111.6 180.717 112.28V117.16C180.717 117.4 180.597 117.6 180.357 117.76C180.117 117.92 179.817 118 179.457 118C179.123 118 178.843 117.92 178.617 117.76C178.403 117.6 178.297 117.4 178.297 117.16V116.6C177.937 117.013 177.51 117.38 177.017 117.7C176.537 118.02 175.95 118.18 175.257 118.18ZM176.297 116.26C176.577 116.26 176.857 116.167 177.137 115.98C177.417 115.793 177.65 115.553 177.837 115.26C178.037 114.967 178.137 114.66 178.137 114.34V113.92H177.837C177.397 113.92 176.977 113.947 176.577 114C176.177 114.053 175.85 114.173 175.597 114.36C175.357 114.533 175.237 114.807 175.237 115.18C175.237 115.553 175.337 115.827 175.537 116C175.75 116.173 176.003 116.26 176.297 116.26ZM187.895 118C187.535 118 187.235 117.913 186.995 117.74C186.755 117.567 186.635 117.373 186.635 117.16V109.3C186.635 109.06 186.755 108.867 186.995 108.72C187.235 108.573 187.535 108.5 187.895 108.5C188.228 108.5 188.501 108.573 188.715 108.72C188.941 108.867 189.055 109.06 189.055 109.3V110.12C189.201 109.827 189.395 109.553 189.635 109.3C189.888 109.033 190.175 108.813 190.495 108.64C190.815 108.467 191.155 108.38 191.515 108.38H192.135C192.388 108.38 192.608 108.493 192.795 108.72C192.981 108.933 193.075 109.193 193.075 109.5C193.075 109.82 192.981 110.093 192.795 110.32C192.608 110.533 192.388 110.64 192.135 110.64H191.515C191.141 110.64 190.775 110.767 190.415 111.02C190.068 111.26 189.781 111.6 189.555 112.04C189.328 112.467 189.215 112.987 189.215 113.6V117.16C189.215 117.373 189.088 117.567 188.835 117.74C188.581 117.913 188.268 118 187.895 118ZM196.038 118.18C195.331 118.18 194.718 117.967 194.198 117.54C193.691 117.1 193.438 116.427 193.438 115.52C193.438 114.76 193.631 114.167 194.018 113.74C194.418 113.313 194.965 113.013 195.658 112.84C196.365 112.667 197.178 112.58 198.098 112.58H198.918V112.32C198.918 112.027 198.858 111.74 198.738 111.46C198.631 111.18 198.451 110.947 198.198 110.76C197.958 110.573 197.611 110.48 197.158 110.48C196.651 110.48 196.258 110.533 195.978 110.64C195.711 110.733 195.505 110.833 195.358 110.94C195.211 111.047 195.051 111.1 194.878 111.1C194.598 111.1 194.378 110.96 194.218 110.68C194.071 110.4 193.998 110.113 193.998 109.82C193.998 109.54 194.165 109.293 194.498 109.08C194.845 108.853 195.265 108.68 195.758 108.56C196.251 108.44 196.731 108.38 197.198 108.38C198.238 108.38 199.071 108.567 199.698 108.94C200.325 109.313 200.778 109.793 201.058 110.38C201.351 110.967 201.498 111.6 201.498 112.28V117.16C201.498 117.4 201.378 117.6 201.138 117.76C200.898 117.92 200.598 118 200.238 118C199.905 118 199.625 117.92 199.398 117.76C199.185 117.6 199.078 117.4 199.078 117.16V116.6C198.718 117.013 198.291 117.38 197.798 117.7C197.318 118.02 196.731 118.18 196.038 118.18ZM197.078 116.26C197.358 116.26 197.638 116.167 197.918 115.98C198.198 115.793 198.431 115.553 198.618 115.26C198.818 114.967 198.918 114.66 198.918 114.34V113.92H198.618C198.178 113.92 197.758 113.947 197.358 114C196.958 114.053 196.631 114.173 196.378 114.36C196.138 114.533 196.018 114.807 196.018 115.18C196.018 115.553 196.118 115.827 196.318 116C196.531 116.173 196.785 116.26 197.078 116.26ZM207.072 118C205.872 118 204.952 117.74 204.312 117.22C203.685 116.7 203.372 115.873 203.372 114.74V105.06C203.372 104.82 203.512 104.627 203.792 104.48C204.072 104.333 204.359 104.26 204.652 104.26C204.972 104.26 205.265 104.333 205.532 104.48C205.812 104.627 205.952 104.82 205.952 105.06V108.5H208.312C208.525 108.5 208.685 108.6 208.792 108.8C208.912 108.987 208.972 109.2 208.972 109.44C208.972 109.68 208.912 109.9 208.792 110.1C208.685 110.287 208.525 110.38 208.312 110.38H205.952V114.74C205.952 115.14 206.032 115.42 206.192 115.58C206.365 115.74 206.659 115.82 207.072 115.82H207.852C208.225 115.82 208.499 115.933 208.672 116.16C208.859 116.387 208.952 116.633 208.952 116.9C208.952 117.18 208.859 117.433 208.672 117.66C208.499 117.887 208.225 118 207.852 118H207.072ZM211.507 113.96C211.24 113.96 211.007 113.9 210.807 113.78C210.607 113.66 210.507 113.467 210.507 113.2C210.507 112.32 210.487 111.367 210.447 110.34C210.407 109.313 210.36 108.287 210.307 107.26C210.267 106.233 210.247 105.28 210.247 104.4C210.247 104.053 210.367 103.787 210.607 103.6C210.847 103.4 211.147 103.3 211.507 103.3C211.84 103.3 212.127 103.4 212.367 103.6C212.62 103.787 212.747 104.053 212.747 104.4C212.747 105.28 212.727 106.233 212.687 107.26C212.647 108.287 212.6 109.313 212.547 110.34C212.507 111.367 212.487 112.32 212.487 113.2C212.487 113.467 212.374 113.66 212.147 113.78C211.92 113.9 211.707 113.96 211.507 113.96ZM211.527 118.12C211.14 118.12 210.814 117.987 210.547 117.72C210.294 117.44 210.167 117.12 210.167 116.76C210.167 116.387 210.294 116.067 210.547 115.8C210.814 115.533 211.14 115.4 211.527 115.4C211.887 115.4 212.2 115.533 212.467 115.8C212.734 116.067 212.867 116.387 212.867 116.76C212.867 117.12 212.734 117.44 212.467 117.72C212.2 117.987 211.887 118.12 211.527 118.12Z" fill="#FF0082"/>
<path d="M118.465 85.12C117.585 85.12 116.791 84.9733 116.085 84.68C115.378 84.3733 114.811 83.8867 114.385 83.22C113.971 82.54 113.765 81.64 113.765 80.52V74.98C113.765 73.86 113.971 72.9667 114.385 72.3C114.811 71.62 115.371 71.1333 116.065 70.84C116.771 70.5333 117.571 70.38 118.465 70.38C119.345 70.38 120.138 70.5333 120.845 70.84C121.565 71.1333 122.131 71.62 122.545 72.3C122.958 72.9667 123.165 73.86 123.165 74.98V80.52C123.165 81.64 122.958 82.54 122.545 83.22C122.131 83.8867 121.565 84.3733 120.845 84.68C120.138 84.9733 119.345 85.12 118.465 85.12ZM118.465 82.84C119.118 82.84 119.631 82.6533 120.005 82.28C120.378 81.9067 120.565 81.32 120.565 80.52V74.98C120.565 74.18 120.378 73.5933 120.005 73.22C119.631 72.8467 119.118 72.66 118.465 72.66C117.811 72.66 117.298 72.8467 116.925 73.22C116.565 73.5933 116.385 74.18 116.385 74.98V80.52C116.385 81.32 116.565 81.9067 116.925 82.28C117.298 82.6533 117.811 82.84 118.465 82.84ZM129.169 85.18C128.396 85.18 127.682 84.9933 127.029 84.62C126.376 84.2333 125.849 83.7267 125.449 83.1C125.049 82.4733 124.849 81.8 124.849 81.08V79.44C124.849 78.72 125.042 78.0533 125.429 77.44C125.816 76.8133 126.336 76.3133 126.989 75.94C127.656 75.5667 128.382 75.38 129.169 75.38C129.956 75.38 130.676 75.5667 131.329 75.94C131.996 76.3 132.522 76.7867 132.909 77.4C133.309 78.0133 133.509 78.6933 133.509 79.44V81.08C133.509 81.7867 133.309 82.4533 132.909 83.08C132.509 83.7067 131.976 84.2133 131.309 84.6C130.656 84.9867 129.942 85.18 129.169 85.18ZM129.169 82.92C129.489 82.92 129.782 82.8333 130.049 82.66C130.316 82.4867 130.529 82.26 130.689 81.98C130.849 81.6867 130.929 81.3867 130.929 81.08V79.44C130.929 79.1333 130.849 78.8467 130.689 78.58C130.529 78.3133 130.316 78.0933 130.049 77.92C129.796 77.7333 129.502 77.64 129.169 77.64C128.849 77.64 128.556 77.7267 128.289 77.9C128.022 78.0733 127.809 78.3 127.649 78.58C127.502 78.8467 127.429 79.1333 127.429 79.44V81.08C127.429 81.3867 127.502 81.6867 127.649 81.98C127.809 82.26 128.022 82.4867 128.289 82.66C128.556 82.8333 128.849 82.92 129.169 82.92ZM136.43 89.42C136.07 89.42 135.77 89.3333 135.53 89.16C135.29 88.9867 135.17 88.8 135.17 88.6V76.3C135.17 76.06 135.29 75.8667 135.53 75.72C135.77 75.5733 136.064 75.5 136.41 75.5C136.757 75.5 137.037 75.5733 137.25 75.72C137.477 75.8667 137.59 76.06 137.59 76.3V76.9C137.817 76.5133 138.164 76.1667 138.63 75.86C139.097 75.54 139.65 75.38 140.29 75.38C140.97 75.38 141.577 75.5667 142.11 75.94C142.657 76.3 143.084 76.7867 143.39 77.4C143.71 78.0133 143.87 78.6933 143.87 79.44V81.08C143.87 81.7867 143.71 82.4533 143.39 83.08C143.07 83.7067 142.644 84.2133 142.11 84.6C141.59 84.9867 141.01 85.18 140.37 85.18C139.784 85.18 139.25 85.02 138.77 84.7C138.29 84.38 137.95 84.0133 137.75 83.6V88.6C137.75 88.8 137.624 88.9867 137.37 89.16C137.117 89.3333 136.804 89.42 136.43 89.42ZM139.53 82.92C139.85 82.92 140.137 82.8333 140.39 82.66C140.657 82.4733 140.87 82.24 141.03 81.96C141.204 81.68 141.29 81.3867 141.29 81.08V79.44C141.29 79.1333 141.21 78.8467 141.05 78.58C140.89 78.3133 140.67 78.0933 140.39 77.92C140.124 77.7333 139.824 77.64 139.49 77.64C139.197 77.64 138.917 77.7133 138.65 77.86C138.397 78.0067 138.184 78.2133 138.01 78.48C137.837 78.7467 137.75 79.0667 137.75 79.44V81.44C137.75 81.5733 137.824 81.76 137.97 82C138.13 82.2267 138.344 82.44 138.61 82.64C138.877 82.8267 139.184 82.92 139.53 82.92ZM148.621 85.18C147.955 85.18 147.341 85.1 146.781 84.94C146.235 84.7667 145.801 84.5467 145.481 84.28C145.175 84.0133 145.021 83.74 145.021 83.46C145.021 83.3133 145.055 83.1533 145.121 82.98C145.201 82.8067 145.301 82.6533 145.421 82.52C145.555 82.3867 145.708 82.32 145.881 82.32C146.068 82.32 146.261 82.4 146.461 82.56C146.675 82.7067 146.935 82.8533 147.241 83C147.561 83.1467 148.001 83.22 148.561 83.22C149.161 83.22 149.555 83.1267 149.741 82.94C149.941 82.7533 150.041 82.56 150.041 82.36C150.041 82.0667 149.921 81.84 149.681 81.68C149.455 81.52 149.161 81.3933 148.801 81.3C148.441 81.1933 148.055 81.08 147.641 80.96C147.241 80.84 146.861 80.6867 146.501 80.5C146.141 80.3 145.848 80.0333 145.621 79.7C145.395 79.3533 145.281 78.9067 145.281 78.36C145.281 77.88 145.395 77.4133 145.621 76.96C145.848 76.5067 146.221 76.1333 146.741 75.84C147.261 75.5333 147.968 75.38 148.861 75.38C149.408 75.38 149.921 75.44 150.401 75.56C150.895 75.6667 151.295 75.82 151.601 76.02C151.908 76.22 152.061 76.44 152.061 76.68C152.061 76.8 152.021 76.96 151.941 77.16C151.861 77.3467 151.748 77.52 151.601 77.68C151.468 77.84 151.301 77.92 151.101 77.92C150.955 77.92 150.775 77.8733 150.561 77.78C150.361 77.6733 150.128 77.5733 149.861 77.48C149.595 77.3867 149.275 77.34 148.901 77.34C148.568 77.34 148.301 77.3867 148.101 77.48C147.901 77.5733 147.755 77.6867 147.661 77.82C147.568 77.9533 147.521 78.0933 147.521 78.24C147.521 78.48 147.635 78.6667 147.861 78.8C148.088 78.9333 148.381 79.0467 148.741 79.14C149.115 79.2333 149.501 79.34 149.901 79.46C150.315 79.5667 150.701 79.7267 151.061 79.94C151.435 80.1533 151.735 80.4467 151.961 80.82C152.188 81.18 152.301 81.6533 152.301 82.24C152.301 83.1333 151.981 83.8467 151.341 84.38C150.715 84.9133 149.808 85.18 148.621 85.18ZM155.081 80.96C154.815 80.96 154.581 80.9 154.381 80.78C154.181 80.66 154.081 80.4667 154.081 80.2C154.081 79.32 154.061 78.3667 154.021 77.34C153.981 76.3133 153.935 75.2867 153.881 74.26C153.841 73.2333 153.821 72.28 153.821 71.4C153.821 71.0533 153.941 70.7867 154.181 70.6C154.421 70.4 154.721 70.3 155.081 70.3C155.415 70.3 155.701 70.4 155.941 70.6C156.195 70.7867 156.321 71.0533 156.321 71.4C156.321 72.28 156.301 73.2333 156.261 74.26C156.221 75.2867 156.175 76.3133 156.121 77.34C156.081 78.3667 156.061 79.32 156.061 80.2C156.061 80.4667 155.948 80.66 155.721 80.78C155.495 80.9 155.281 80.96 155.081 80.96ZM155.101 85.12C154.715 85.12 154.388 84.9867 154.121 84.72C153.868 84.44 153.741 84.12 153.741 83.76C153.741 83.3867 153.868 83.0667 154.121 82.8C154.388 82.5333 154.715 82.4 155.101 82.4C155.461 82.4 155.775 82.5333 156.041 82.8C156.308 83.0667 156.441 83.3867 156.441 83.76C156.441 84.12 156.308 84.44 156.041 84.72C155.775 84.9867 155.461 85.12 155.101 85.12Z" fill="#FF0082"/>
<path d="M100.582 163C100.248 163 99.9485 162.933 99.6818 162.8C99.4151 162.653 99.2818 162.44 99.2818 162.16V150.72H96.3418C96.0885 150.72 95.8885 150.6 95.7418 150.36C95.5951 150.12 95.5218 149.847 95.5218 149.54C95.5218 149.26 95.5885 149 95.7218 148.76C95.8551 148.507 96.0618 148.38 96.3418 148.38H104.802C105.095 148.38 105.302 148.507 105.422 148.76C105.555 149 105.622 149.26 105.622 149.54C105.622 149.847 105.548 150.12 105.402 150.36C105.268 150.6 105.068 150.72 104.802 150.72H101.882V162.16C101.882 162.44 101.742 162.653 101.462 162.8C101.195 162.933 100.902 163 100.582 163ZM106.196 163C105.836 163 105.536 162.913 105.296 162.74C105.056 162.567 104.936 162.373 104.936 162.16V154.3C104.936 154.06 105.056 153.867 105.296 153.72C105.536 153.573 105.836 153.5 106.196 153.5C106.529 153.5 106.802 153.573 107.016 153.72C107.242 153.867 107.356 154.06 107.356 154.3V155.12C107.502 154.827 107.696 154.553 107.936 154.3C108.189 154.033 108.476 153.813 108.796 153.64C109.116 153.467 109.456 153.38 109.816 153.38H110.436C110.689 153.38 110.909 153.493 111.096 153.72C111.282 153.933 111.376 154.193 111.376 154.5C111.376 154.82 111.282 155.093 111.096 155.32C110.909 155.533 110.689 155.64 110.436 155.64H109.816C109.442 155.64 109.076 155.767 108.716 156.02C108.369 156.26 108.082 156.6 107.856 157.04C107.629 157.467 107.516 157.987 107.516 158.6V162.16C107.516 162.373 107.389 162.567 107.136 162.74C106.882 162.913 106.569 163 106.196 163ZM112.716 167.42C112.382 167.42 112.102 167.353 111.876 167.22C111.649 167.1 111.536 166.8 111.536 166.32C111.536 166.027 111.582 165.773 111.676 165.56C111.782 165.347 111.956 165.24 112.196 165.24C112.422 165.24 112.682 165.2 112.976 165.12C113.282 165.04 113.589 164.887 113.896 164.66C114.202 164.447 114.462 164.147 114.676 163.76C114.889 163.387 115.016 162.9 115.056 162.3L111.616 154.94C111.562 154.82 111.536 154.707 111.536 154.6C111.536 154.373 111.629 154.167 111.816 153.98C112.016 153.793 112.249 153.647 112.516 153.54C112.782 153.42 113.029 153.36 113.256 153.36C113.416 153.36 113.562 153.393 113.696 153.46C113.842 153.527 113.942 153.64 113.996 153.8L116.396 159.78L118.316 153.8C118.382 153.64 118.482 153.527 118.616 153.46C118.749 153.393 118.882 153.36 119.016 153.36C119.216 153.36 119.456 153.42 119.736 153.54C120.016 153.647 120.256 153.8 120.456 154C120.669 154.187 120.776 154.4 120.776 154.64C120.776 154.76 120.756 154.86 120.716 154.94L117.796 162.4C117.556 163 117.322 163.593 117.096 164.18C116.869 164.78 116.582 165.32 116.236 165.8C115.902 166.293 115.456 166.687 114.896 166.98C114.336 167.273 113.609 167.42 112.716 167.42ZM126.732 163C126.492 163 126.245 162.953 125.992 162.86C125.739 162.767 125.525 162.64 125.352 162.48C125.179 162.32 125.092 162.133 125.092 161.92C125.092 161.88 125.099 161.813 125.112 161.72L128.972 149.14C129.065 148.847 129.272 148.627 129.592 148.48C129.925 148.333 130.279 148.26 130.652 148.26C131.039 148.26 131.392 148.333 131.712 148.48C132.032 148.627 132.239 148.847 132.332 149.14L136.192 161.72C136.219 161.813 136.232 161.88 136.232 161.92C136.232 162.12 136.139 162.307 135.952 162.48C135.779 162.64 135.565 162.767 135.312 162.86C135.059 162.953 134.812 163 134.572 163C134.359 163 134.172 162.967 134.012 162.9C133.865 162.82 133.765 162.68 133.712 162.48L132.952 159.82H128.352L127.612 162.48C127.559 162.68 127.452 162.82 127.292 162.9C127.132 162.967 126.945 163 126.732 163ZM128.912 157.78H132.392L130.652 151.64L128.912 157.78ZM141.136 167.42C140.35 167.42 139.616 167.307 138.936 167.08C138.27 166.867 137.73 166.547 137.316 166.12C136.916 165.693 136.716 165.187 136.716 164.6C136.716 164.093 136.856 163.66 137.136 163.3C137.416 162.953 137.763 162.68 138.176 162.48C137.923 162.36 137.716 162.2 137.556 162C137.41 161.787 137.336 161.52 137.336 161.2C137.336 160.827 137.43 160.527 137.616 160.3C137.816 160.06 138.063 159.84 138.356 159.64C137.956 159.333 137.643 158.967 137.416 158.54C137.203 158.1 137.096 157.62 137.096 157.1V156.68C137.096 156.027 137.256 155.453 137.576 154.96C137.91 154.467 138.37 154.08 138.956 153.8C139.556 153.52 140.243 153.38 141.016 153.38C141.456 153.38 141.87 153.433 142.256 153.54C142.643 153.633 142.99 153.773 143.296 153.96C143.523 153.427 143.736 153.067 143.936 152.88C144.136 152.693 144.33 152.6 144.516 152.6C144.836 152.6 145.083 152.693 145.256 152.88C145.443 153.067 145.536 153.24 145.536 153.4C145.536 153.52 145.503 153.627 145.436 153.72C145.383 153.813 145.31 153.893 145.216 153.96C145.083 154.04 144.93 154.14 144.756 154.26C144.583 154.367 144.423 154.52 144.276 154.72C144.516 154.987 144.69 155.287 144.796 155.62C144.916 155.94 144.976 156.293 144.976 156.68V157.1C144.976 157.74 144.81 158.313 144.476 158.82C144.143 159.313 143.676 159.707 143.076 160C142.476 160.293 141.79 160.44 141.016 160.44C140.536 160.44 140.103 160.38 139.716 160.26C139.65 160.313 139.59 160.373 139.536 160.44C139.496 160.507 139.476 160.58 139.476 160.66C139.476 160.887 139.623 161.047 139.916 161.14C140.21 161.233 140.583 161.307 141.036 161.36C141.49 161.413 141.97 161.487 142.476 161.58C142.996 161.66 143.483 161.793 143.936 161.98C144.39 162.167 144.763 162.447 145.056 162.82C145.35 163.18 145.496 163.667 145.496 164.28C145.496 165.027 145.283 165.627 144.856 166.08C144.443 166.547 143.903 166.887 143.236 167.1C142.583 167.313 141.883 167.42 141.136 167.42ZM141.096 165.76C141.616 165.76 142.056 165.633 142.416 165.38C142.79 165.127 142.976 164.787 142.976 164.36C142.976 164.08 142.896 163.853 142.736 163.68C142.576 163.507 142.356 163.373 142.076 163.28C141.81 163.2 141.516 163.133 141.196 163.08C140.876 163.04 140.556 163 140.236 162.96C139.916 163.107 139.656 163.293 139.456 163.52C139.256 163.747 139.156 164.02 139.156 164.34C139.156 164.78 139.343 165.127 139.716 165.38C140.103 165.633 140.563 165.76 141.096 165.76ZM141.056 158.88C141.496 158.88 141.843 158.713 142.096 158.38C142.35 158.047 142.476 157.62 142.476 157.1V156.68C142.476 156.187 142.35 155.773 142.096 155.44C141.856 155.107 141.503 154.94 141.036 154.94C140.583 154.94 140.23 155.107 139.976 155.44C139.736 155.773 139.616 156.187 139.616 156.68V157.08C139.616 157.587 139.736 158.013 139.976 158.36C140.23 158.707 140.59 158.88 141.056 158.88ZM148.851 163.18C148.144 163.18 147.531 162.967 147.011 162.54C146.504 162.1 146.251 161.427 146.251 160.52C146.251 159.76 146.444 159.167 146.831 158.74C147.231 158.313 147.777 158.013 148.471 157.84C149.177 157.667 149.991 157.58 150.911 157.58H151.731V157.32C151.731 157.027 151.671 156.74 151.551 156.46C151.444 156.18 151.264 155.947 151.011 155.76C150.771 155.573 150.424 155.48 149.971 155.48C149.464 155.48 149.071 155.533 148.791 155.64C148.524 155.733 148.317 155.833 148.171 155.94C148.024 156.047 147.864 156.1 147.691 156.1C147.411 156.1 147.191 155.96 147.031 155.68C146.884 155.4 146.811 155.113 146.811 154.82C146.811 154.54 146.977 154.293 147.311 154.08C147.657 153.853 148.077 153.68 148.571 153.56C149.064 153.44 149.544 153.38 150.011 153.38C151.051 153.38 151.884 153.567 152.511 153.94C153.137 154.313 153.591 154.793 153.871 155.38C154.164 155.967 154.311 156.6 154.311 157.28V162.16C154.311 162.4 154.191 162.6 153.951 162.76C153.711 162.92 153.411 163 153.051 163C152.717 163 152.437 162.92 152.211 162.76C151.997 162.6 151.891 162.4 151.891 162.16V161.6C151.531 162.013 151.104 162.38 150.611 162.7C150.131 163.02 149.544 163.18 148.851 163.18ZM149.891 161.26C150.171 161.26 150.451 161.167 150.731 160.98C151.011 160.793 151.244 160.553 151.431 160.26C151.631 159.967 151.731 159.66 151.731 159.34V158.92H151.431C150.991 158.92 150.571 158.947 150.171 159C149.771 159.053 149.444 159.173 149.191 159.36C148.951 159.533 148.831 159.807 148.831 160.18C148.831 160.553 148.931 160.827 149.131 161C149.344 161.173 149.597 161.26 149.891 161.26ZM157.505 151.38C157.118 151.38 156.785 151.253 156.505 151C156.225 150.733 156.085 150.44 156.085 150.12C156.085 149.773 156.225 149.48 156.505 149.24C156.785 148.987 157.118 148.86 157.505 148.86C157.905 148.86 158.238 148.987 158.505 149.24C158.771 149.48 158.905 149.773 158.905 150.12C158.905 150.44 158.771 150.733 158.505 151C158.238 151.253 157.905 151.38 157.505 151.38ZM157.505 163C157.131 163 156.825 162.913 156.585 162.74C156.345 162.567 156.225 162.373 156.225 162.16V154.3C156.225 154.06 156.345 153.867 156.585 153.72C156.825 153.573 157.131 153.5 157.505 153.5C157.865 153.5 158.171 153.573 158.425 153.72C158.678 153.867 158.805 154.06 158.805 154.3V162.16C158.805 162.373 158.678 162.567 158.425 162.74C158.171 162.913 157.865 163 157.505 163ZM162.055 163C161.682 163 161.375 162.913 161.135 162.74C160.895 162.567 160.775 162.373 160.775 162.16V154.3C160.775 154.06 160.895 153.867 161.135 153.72C161.375 153.573 161.682 153.5 162.055 153.5C162.375 153.5 162.642 153.573 162.855 153.72C163.082 153.867 163.195 154.06 163.195 154.3V154.9C163.395 154.513 163.722 154.167 164.175 153.86C164.642 153.54 165.209 153.38 165.875 153.38C166.502 153.38 167.075 153.567 167.595 153.94C168.115 154.3 168.529 154.787 168.835 155.4C169.155 156.013 169.315 156.693 169.315 157.44V162.16C169.315 162.44 169.182 162.653 168.915 162.8C168.649 162.933 168.349 163 168.015 163C167.722 163 167.435 162.933 167.155 162.8C166.875 162.653 166.735 162.44 166.735 162.16V157.44C166.735 157.133 166.655 156.847 166.495 156.58C166.349 156.313 166.142 156.093 165.875 155.92C165.609 155.733 165.315 155.64 164.995 155.64C164.729 155.64 164.469 155.713 164.215 155.86C163.962 156.007 163.755 156.213 163.595 156.48C163.435 156.747 163.355 157.067 163.355 157.44V162.16C163.355 162.373 163.229 162.567 162.975 162.74C162.722 162.913 162.415 163 162.055 163ZM172.464 158.96C172.197 158.96 171.964 158.9 171.764 158.78C171.564 158.66 171.464 158.467 171.464 158.2C171.464 157.32 171.444 156.367 171.404 155.34C171.364 154.313 171.317 153.287 171.264 152.26C171.224 151.233 171.204 150.28 171.204 149.4C171.204 149.053 171.324 148.787 171.564 148.6C171.804 148.4 172.104 148.3 172.464 148.3C172.797 148.3 173.084 148.4 173.324 148.6C173.577 148.787 173.704 149.053 173.704 149.4C173.704 150.28 173.684 151.233 173.644 152.26C173.604 153.287 173.557 154.313 173.504 155.34C173.464 156.367 173.444 157.32 173.444 158.2C173.444 158.467 173.331 158.66 173.104 158.78C172.877 158.9 172.664 158.96 172.464 158.96ZM172.484 163.12C172.097 163.12 171.771 162.987 171.504 162.72C171.251 162.44 171.124 162.12 171.124 161.76C171.124 161.387 171.251 161.067 171.504 160.8C171.771 160.533 172.097 160.4 172.484 160.4C172.844 160.4 173.157 160.533 173.424 160.8C173.691 161.067 173.824 161.387 173.824 161.76C173.824 162.12 173.691 162.44 173.424 162.72C173.157 162.987 172.844 163.12 172.484 163.12Z" fill="#FF0082"/>
<g filter="url(#filter1_d_1960_13)">
<path d="M91 206H170C175.523 206 180 210.477 180 216V235H101C95.4772 235 91 230.523 91 225V206Z" fill="#FDFAF1"/>
<path d="M91.5 206.5H170C175.247 206.5 179.5 210.753 179.5 216V234.5H101C95.7533 234.5 91.5 230.247 91.5 225V206.5Z" stroke="#F7CFE5"/>
<path d="M104.772 226.07C104.651 226.07 104.53 226.033 104.408 225.958C104.296 225.883 104.208 225.776 104.142 225.636L102.154 221.772H100.978V225.412C100.978 225.608 100.885 225.757 100.698 225.86C100.512 225.953 100.302 226 100.068 226C99.8444 226 99.6344 225.953 99.4384 225.86C99.2517 225.757 99.1584 225.608 99.1584 225.412V216.34C99.1584 216.181 99.2097 216.046 99.3124 215.934C99.4244 215.822 99.569 215.766 99.7464 215.766H102.518C103.134 215.766 103.69 215.855 104.184 216.032C104.688 216.209 105.09 216.513 105.388 216.942C105.687 217.362 105.836 217.945 105.836 218.692C105.836 219.233 105.757 219.695 105.598 220.078C105.44 220.451 105.22 220.755 104.94 220.988C104.67 221.212 104.357 221.38 104.002 221.492L105.85 224.894C105.869 224.931 105.883 224.973 105.892 225.02C105.902 225.057 105.906 225.09 105.906 225.118C105.906 225.267 105.85 225.417 105.738 225.566C105.626 225.715 105.482 225.837 105.304 225.93C105.136 226.023 104.959 226.07 104.772 226.07ZM100.978 220.344H102.518C102.976 220.344 103.34 220.232 103.61 220.008C103.881 219.784 104.016 219.401 104.016 218.86C104.016 218.3 103.881 217.913 103.61 217.698C103.34 217.474 102.976 217.362 102.518 217.362H100.978V220.344ZM107.913 226C107.717 226 107.535 225.953 107.367 225.86C107.199 225.757 107.115 225.608 107.115 225.412V216.354C107.115 216.158 107.199 216.013 107.367 215.92C107.535 215.817 107.717 215.766 107.913 215.766H112.897C113.103 215.766 113.247 215.85 113.331 216.018C113.425 216.186 113.471 216.363 113.471 216.55C113.471 216.774 113.42 216.965 113.317 217.124C113.224 217.283 113.084 217.362 112.897 217.362H108.935V220.162H111.063C111.25 220.162 111.39 220.237 111.483 220.386C111.586 220.526 111.637 220.694 111.637 220.89C111.637 221.049 111.591 221.207 111.497 221.366C111.413 221.515 111.269 221.59 111.063 221.59H108.935V224.404H112.897C113.084 224.404 113.224 224.483 113.317 224.642C113.42 224.801 113.471 224.992 113.471 225.216C113.471 225.403 113.425 225.58 113.331 225.748C113.247 225.916 113.103 226 112.897 226H107.913ZM117.269 226.126C116.663 226.126 116.112 226.037 115.617 225.86C115.132 225.683 114.745 225.463 114.455 225.202C114.175 224.931 114.035 224.661 114.035 224.39C114.035 224.259 114.068 224.119 114.133 223.97C114.208 223.811 114.306 223.681 114.427 223.578C114.549 223.466 114.684 223.41 114.833 223.41C114.983 223.41 115.123 223.466 115.253 223.578C115.384 223.681 115.533 223.807 115.701 223.956C115.869 224.096 116.075 224.222 116.317 224.334C116.56 224.437 116.859 224.488 117.213 224.488C117.493 224.488 117.75 224.446 117.983 224.362C118.226 224.269 118.417 224.133 118.557 223.956C118.707 223.779 118.781 223.55 118.781 223.27C118.781 222.971 118.702 222.719 118.543 222.514C118.385 222.309 118.17 222.131 117.899 221.982C117.629 221.833 117.335 221.688 117.017 221.548C116.7 221.408 116.378 221.259 116.051 221.1C115.734 220.941 115.44 220.75 115.169 220.526C114.908 220.302 114.693 220.027 114.525 219.7C114.367 219.373 114.287 218.972 114.287 218.496C114.287 217.973 114.385 217.535 114.581 217.18C114.787 216.825 115.053 216.541 115.379 216.326C115.715 216.102 116.084 215.943 116.485 215.85C116.887 215.747 117.288 215.696 117.689 215.696C117.904 215.696 118.156 215.715 118.445 215.752C118.744 215.78 119.038 215.836 119.327 215.92C119.626 216.004 119.869 216.121 120.055 216.27C120.251 216.41 120.349 216.597 120.349 216.83C120.349 216.933 120.321 217.059 120.265 217.208C120.219 217.357 120.139 217.493 120.027 217.614C119.925 217.735 119.789 217.796 119.621 217.796C119.472 217.796 119.323 217.754 119.173 217.67C119.033 217.577 118.847 217.488 118.613 217.404C118.389 217.311 118.081 217.264 117.689 217.264C117.363 217.264 117.078 217.306 116.835 217.39C116.593 217.474 116.411 217.595 116.289 217.754C116.168 217.903 116.107 218.095 116.107 218.328C116.107 218.571 116.187 218.776 116.345 218.944C116.513 219.112 116.728 219.261 116.989 219.392C117.26 219.523 117.554 219.653 117.871 219.784C118.189 219.915 118.506 220.069 118.823 220.246C119.15 220.414 119.449 220.619 119.719 220.862C119.99 221.105 120.205 221.408 120.363 221.772C120.522 222.127 120.601 222.565 120.601 223.088C120.601 223.751 120.457 224.311 120.167 224.768C119.878 225.216 119.481 225.557 118.977 225.79C118.483 226.014 117.913 226.126 117.269 226.126ZM124.668 226C124.435 226 124.225 225.953 124.038 225.86C123.851 225.757 123.758 225.608 123.758 225.412V217.404H121.7C121.523 217.404 121.383 217.32 121.28 217.152C121.177 216.984 121.126 216.793 121.126 216.578C121.126 216.382 121.173 216.2 121.266 216.032C121.359 215.855 121.504 215.766 121.7 215.766H127.622C127.827 215.766 127.972 215.855 128.056 216.032C128.149 216.2 128.196 216.382 128.196 216.578C128.196 216.793 128.145 216.984 128.042 217.152C127.949 217.32 127.809 217.404 127.622 217.404H125.578V225.412C125.578 225.608 125.48 225.757 125.284 225.86C125.097 225.953 124.892 226 124.668 226ZM128.754 226C128.586 226 128.414 225.967 128.236 225.902C128.059 225.837 127.91 225.748 127.788 225.636C127.667 225.524 127.606 225.393 127.606 225.244C127.606 225.216 127.611 225.169 127.62 225.104L130.322 216.298C130.388 216.093 130.532 215.939 130.756 215.836C130.99 215.733 131.237 215.682 131.498 215.682C131.769 215.682 132.016 215.733 132.24 215.836C132.464 215.939 132.609 216.093 132.674 216.298L135.376 225.104C135.395 225.169 135.404 225.216 135.404 225.244C135.404 225.384 135.339 225.515 135.208 225.636C135.087 225.748 134.938 225.837 134.76 225.902C134.583 225.967 134.41 226 134.242 226C134.093 226 133.962 225.977 133.85 225.93C133.748 225.874 133.678 225.776 133.64 225.636L133.108 223.774H129.888L129.37 225.636C129.333 225.776 129.258 225.874 129.146 225.93C129.034 225.977 128.904 226 128.754 226ZM130.28 222.346H132.716L131.498 218.048L130.28 222.346ZM141.974 226.07C141.852 226.07 141.731 226.033 141.61 225.958C141.498 225.883 141.409 225.776 141.344 225.636L139.356 221.772H138.18V225.412C138.18 225.608 138.086 225.757 137.9 225.86C137.713 225.953 137.503 226 137.27 226C137.046 226 136.836 225.953 136.64 225.86C136.453 225.757 136.36 225.608 136.36 225.412V216.34C136.36 216.181 136.411 216.046 136.514 215.934C136.626 215.822 136.77 215.766 136.948 215.766H139.72C140.336 215.766 140.891 215.855 141.386 216.032C141.89 216.209 142.291 216.513 142.59 216.942C142.888 217.362 143.038 217.945 143.038 218.692C143.038 219.233 142.958 219.695 142.8 220.078C142.641 220.451 142.422 220.755 142.142 220.988C141.871 221.212 141.558 221.38 141.204 221.492L143.052 224.894C143.07 224.931 143.084 224.973 143.094 225.02C143.103 225.057 143.108 225.09 143.108 225.118C143.108 225.267 143.052 225.417 142.94 225.566C142.828 225.715 142.683 225.837 142.506 225.93C142.338 226.023 142.16 226.07 141.974 226.07ZM138.18 220.344H139.72C140.177 220.344 140.541 220.232 140.812 220.008C141.082 219.784 141.218 219.401 141.218 218.86C141.218 218.3 141.082 217.913 140.812 217.698C140.541 217.474 140.177 217.362 139.72 217.362H138.18V220.344ZM147.022 226C146.788 226 146.578 225.953 146.392 225.86C146.205 225.757 146.112 225.608 146.112 225.412V217.404H144.054C143.876 217.404 143.736 217.32 143.634 217.152C143.531 216.984 143.48 216.793 143.48 216.578C143.48 216.382 143.526 216.2 143.62 216.032C143.713 215.855 143.858 215.766 144.054 215.766H149.976C150.181 215.766 150.326 215.855 150.41 216.032C150.503 216.2 150.55 216.382 150.55 216.578C150.55 216.793 150.498 216.984 150.396 217.152C150.302 217.32 150.162 217.404 149.976 217.404H147.932V225.412C147.932 225.608 147.834 225.757 147.638 225.86C147.451 225.953 147.246 226 147.022 226Z" fill="#FF0082"/>
<path d="M158 220C158 218.143 158.737 216.363 160.05 215.05C161.363 213.737 163.143 213 165 213C165.919 213 166.83 213.181 167.679 213.533C168.528 213.885 169.3 214.4 169.95 215.05C170.6 215.7 171.115 216.472 171.467 217.321C171.819 218.17 172 219.081 172 220C172 221.857 171.263 223.637 169.95 224.95C168.637 226.263 166.857 227 165 227C164.081 227 163.17 226.819 162.321 226.467C161.472 226.115 160.7 225.6 160.05 224.95C158.737 223.637 158 221.857 158 220ZM163.6 223.5L167.1 220L163.6 216.5V223.5Z" fill="#FF0082"/>
</g>
</g>
<defs>
<filter id="filter0_d_1960_13" x="0" y="0" width="275" height="275" filterUnits="userSpaceOnUse" color-interpolation-filters="sRGB">
<feFlood flood-opacity="0" result="BackgroundImageFix"/>
<feColorMatrix in="SourceAlpha" type="matrix" values="0 0 0 0 0 0 0 0 0 0 0 0 0 0 0 0 0 0 127 0" result="hardAlpha"/>
<feOffset dx="5" dy="5"/>
<feComposite in2="hardAlpha" operator="out"/>
<feColorMatrix type="matrix" values="0 0 0 0 0.956863 0 0 0 0 0.490196 0 0 0 0 0.380392 0 0 0 1 0"/>
<feBlend mode="normal" in2="BackgroundImageFix" result="effect1_dropShadow_1960_13"/>
<feBlend mode="normal" in="SourceGraphic" in2="effect1_dropShadow_1960_13" result="shape"/>
</filter>
<filter id="filter1_d_1960_13" x="91" y="206" width="91" height="31" filterUnits="userSpaceOnUse" color-interpolation-filters="sRGB">
<feFlood flood-opacity="0" result="BackgroundImageFix"/>
<feColorMatrix in="SourceAlpha" type="matrix" values="0 0 0 0 0 0 0 0 0 0 0 0 0 0 0 0 0 0 127 0" result="hardAlpha"/>
<feOffset dx="2" dy="2"/>
<feComposite in2="hardAlpha" operator="out"/>
<feColorMatrix type="matrix" values="0 0 0 0 1 0 0 0 0 0 0 0 0 0 0.509804 0 0 0 1 0"/>
<feBlend mode="normal" in2="BackgroundImageFix" result="effect1_dropShadow_1960_13"/>
<feBlend mode="normal" in="SourceGraphic" in2="effect1_dropShadow_1960_13" result="shape"/>
</filter>
</defs>
</svg>
