<svg width="48" height="49" viewBox="0 0 48 49" fill="none" xmlns="http://www.w3.org/2000/svg">
<path fill-rule="evenodd" clip-rule="evenodd" d="M36.3672 18.8071C37.6038 16.5505 35.0166 6.70091 25.7191 8.95071C16.4212 11.2005 17.7213 8.15876 17.124 7.93801C16.5269 7.71709 16.7527 9.65205 18.3542 10.3851C22.2942 12.1885 27.9337 8.73022 31.2359 10.9475C34.5638 13.1816 34.2565 17.6078 34.2565 17.6078L36.3672 18.8071Z" fill="#7E584E"/>
<mask id="mask0_1960_2067" style="mask-type:luminance" maskUnits="userSpaceOnUse" x="14" y="0" width="29" height="24">
<path d="M14.6602 10.5176L21.4171 0.0641468L42.2578 13.5352L35.5009 23.9886L14.6602 10.5176Z" fill="white"/>
</mask>
<g mask="url(#mask0_1960_2067)">
<path d="M36.3688 18.8064C37.6054 16.5497 35.0182 6.70019 25.7207 8.94998C16.4228 11.1997 17.7229 8.15804 17.1256 7.93729C16.5285 7.71637 16.7543 9.65133 18.3558 10.3844C22.2958 12.1878 27.9353 8.7295 31.2374 10.9468C34.5653 13.1809 34.2581 17.6071 34.2581 17.6071L36.3688 18.8064Z" stroke="black" stroke-width="0.5"/>
</g>
<path fill-rule="evenodd" clip-rule="evenodd" d="M31.6488 10.3093C30.061 9.31237 27.9035 8.91277 25.0776 9.70892C22.4757 10.4421 20.7384 10.706 19.565 10.7112L19.4414 10.9023C23.3871 11.403 28.2592 8.90801 31.2596 10.9237C34.7598 13.275 34.4052 17.9773 34.4052 17.9773L35.2585 18.4631C35.6751 16.425 34.7297 12.2443 31.6489 10.3096L31.6488 10.3093Z" fill="black" fill-opacity="0.314"/>
<path d="M36.4311 31.8988C32.9594 37.2698 22.2948 44.3794 19.4263 42.5252C16.4775 40.6192 18.6617 28.0273 22.1331 22.6568C25.6048 17.2858 31.6249 14.9973 35.5711 17.548C39.5173 20.0987 39.9026 26.5281 36.4311 31.8988Z" fill="#B0ACAC"/>
<mask id="mask1_1960_2067" style="mask-type:luminance" maskUnits="userSpaceOnUse" x="9" y="10" width="36" height="39">
<path d="M9.83594 37.8242L27.8128 10.0127L44.5526 20.8331L26.5757 48.6445L9.83594 37.8242Z" fill="white"/>
</mask>
<g mask="url(#mask1_1960_2067)">
<path d="M36.4269 31.9014C32.9552 37.2724 22.2906 44.382 19.4221 42.5279C16.4733 40.6218 18.6575 28.0299 22.1288 22.6594C25.6006 17.2884 31.6207 14.9999 35.5669 17.5506C39.5131 20.1014 39.8984 26.5308 36.4269 31.9014Z" stroke="black" stroke-width="0.5" stroke-linecap="round"/>
<circle cx="25.8009" cy="28.5906" r="0.135722" transform="rotate(-57.1221 25.8009 28.5906)" fill="#5B5B5B"/>
<circle cx="31.8439" cy="19.2429" r="0.135722" transform="rotate(-57.1221 31.8439 19.2429)" fill="#5B5B5B"/>
<circle cx="33.8127" cy="20.1921" r="0.135722" transform="rotate(-57.1221 33.8127 20.1921)" fill="#5B5B5B"/>
<circle cx="35.2072" cy="23.0339" r="0.135722" transform="rotate(-57.1221 35.2072 23.0339)" fill="#5B5B5B"/>
</g>
<path d="M37.0191 30.7722C36.8642 31.0499 36.6994 31.3244 36.5234 31.5968C33.1593 36.8012 22.6471 43.5788 19.7483 41.705C17.0303 39.9481 18.405 29.549 21.2204 23.7851C18.1398 29.3357 16.5014 40.6424 19.3459 42.481C22.2448 44.3548 32.7566 37.5775 36.1209 32.3727C36.4596 31.8486 36.7583 31.314 37.0189 30.7724L37.0191 30.7722Z" fill="black" fill-opacity="0.314"/>
<path d="M28.5138 39.1964C30.1548 40.0371 32.2198 39.4836 33.2665 37.8642C34.3807 36.1404 33.9198 33.8586 32.2379 32.7714C30.5559 31.6842 28.2862 32.2011 27.172 33.9249C27.0937 34.046 27.0227 34.1709 26.9597 34.297" fill="#B0ACAC"/>
<mask id="mask2_1960_2067" style="mask-type:luminance" maskUnits="userSpaceOnUse" x="22" y="27" width="15" height="16">
<path d="M22.2539 37.6562L28.5641 27.894L36.6215 33.1021L30.3113 42.8644L22.2539 37.6562Z" fill="white"/>
</mask>
<g mask="url(#mask2_1960_2067)">
<path d="M28.5106 39.1955C30.1516 40.0361 32.2166 39.4826 33.2633 37.8633C34.3775 36.1395 33.9166 33.8576 32.2347 32.7704C30.5527 31.6832 28.283 32.2001 27.1688 33.9239C27.0905 34.045 27.0195 34.17 26.9565 34.296" stroke="black" stroke-width="0.5" stroke-linecap="round"/>
</g>
<path d="M23.7446 32.0395C23.8436 31.9212 23.9371 31.7948 24.023 31.6618C25.1349 29.9416 24.6743 27.6641 22.9923 26.577C21.3105 25.4899 19.0428 26.0037 17.9308 27.7239C16.8605 29.3799 17.2483 31.5521 18.7791 32.682" fill="#B0ACAC"/>
<path d="M23.7446 32.0395C23.8436 31.9212 23.9371 31.7948 24.023 31.6618C25.1349 29.9416 24.6743 27.6641 22.9923 26.577C21.3105 25.4899 19.0428 26.0037 17.9308 27.7239C16.8605 29.3799 17.2483 31.5521 18.7791 32.682" stroke="black" stroke-width="0.5" stroke-linecap="round"/>
<path d="M21.4211 41.4493C21.1158 41.9216 20.1849 42.1215 19.8947 41.9339C19.568 41.7228 19.4045 40.8154 19.7098 40.3431C20.0151 39.8709 20.3639 40.1721 20.8362 40.4774C21.3085 40.7827 21.7264 40.977 21.4211 41.4493Z" fill="black"/>
<path d="M20.8866 36.6243C20.6009 37.0667 20.0975 37.2499 19.7622 37.0332C19.4271 36.8166 19.3875 36.2824 19.6736 35.8402C19.9594 35.3977 20.4627 35.2144 20.7978 35.431C21.1331 35.6478 21.1727 36.182 20.8866 36.6243Z" fill="black" stroke="black" stroke-width="0.5" stroke-linecap="round"/>
<path d="M25.2539 39.4467C24.9682 39.889 24.4647 40.0722 24.1296 39.8556C23.7945 39.6389 23.7549 39.1047 24.0407 38.6625C24.3267 38.2201 24.8301 38.0368 25.1652 38.2534C25.5003 38.47 25.5401 39.0044 25.2539 39.4467Z" fill="black" stroke="black" stroke-width="0.5" stroke-linecap="round"/>
<path d="M20.6423 36.2025C20.5442 36.3544 20.3887 36.4283 20.2949 36.3676C20.2009 36.3069 20.2045 36.1348 20.3027 35.9829C20.4008 35.8311 20.5564 35.757 20.6504 35.8177C20.7442 35.8784 20.7405 36.0506 20.6423 36.2025Z" fill="white"/>
<path d="M24.8417 39.0207C24.7435 39.1725 24.5878 39.2465 24.494 39.1859C24.4001 39.1253 24.4037 38.9529 24.502 38.8011C24.6 38.6492 24.7557 38.5752 24.8495 38.6358C24.9433 38.6965 24.9398 38.8688 24.8417 39.0207Z" fill="white"/>
<path d="M31.9323 33.3141C30.8215 32.6183 29.2398 32.8273 28.2809 33.733C29.0217 33.7217 29.8049 33.9344 30.5095 34.3898C31.9255 35.3051 32.5789 36.9076 32.1977 38.2605C33.723 37.1155 33.6679 34.4204 32.0584 33.3982C32.017 33.3688 31.9751 33.3408 31.9322 33.314L31.9323 33.3141Z" fill="black" fill-opacity="0.314"/>
<mask id="mask3_1960_2067" style="mask-type:luminance" maskUnits="userSpaceOnUse" x="19" y="37" width="12" height="11">
<path d="M19.5391 42.1445L22.3312 37.8249L30.259 42.9493L27.4669 47.2689L19.5391 42.1445Z" fill="white"/>
</mask>
<g mask="url(#mask3_1960_2067)">
<path d="M22.4314 41.4777C27.0014 42.1103 27.6523 44.659 27.6523 44.659" stroke="black" stroke-width="0.5" stroke-linecap="round"/>
</g>
<mask id="mask4_1960_2067" style="mask-type:luminance" maskUnits="userSpaceOnUse" x="18" y="38" width="12" height="11">
<path d="M18.3008 43.2949L21.4515 38.4205L29.7249 43.7683L26.5742 48.6427L18.3008 43.2949Z" fill="white"/>
</mask>
<g mask="url(#mask4_1960_2067)">
<path d="M21.6909 41.8763C25.3155 41.8979 25.8245 45.9988 25.8245 45.9988" stroke="black" stroke-width="0.5" stroke-linecap="round"/>
</g>
<mask id="mask5_1960_2067" style="mask-type:luminance" maskUnits="userSpaceOnUse" x="18" y="38" width="10" height="10">
<path d="M18.3008 43.2949L21.0885 38.9821L27.7839 43.3098L24.9962 47.6227L18.3008 43.2949Z" fill="white"/>
</mask>
<g mask="url(#mask5_1960_2067)">
<path d="M21.476 42.2139C25.0592 42.5959 23.3714 46.2441 23.3714 46.2441" stroke="black" stroke-width="0.5" stroke-linecap="round"/>
</g>
<path d="M19.1697 39.4816C16.7163 35.5744 14.1251 36.0275 14.1251 36.0275" stroke="black" stroke-width="0.5" stroke-linecap="round"/>
<mask id="mask6_1960_2067" style="mask-type:luminance" maskUnits="userSpaceOnUse" x="10" y="33" width="13" height="11">
<path d="M10.9609 38.5488L14.0558 33.7608L22.3494 39.1217L19.2546 43.9097L10.9609 38.5488Z" fill="white"/>
</mask>
<g mask="url(#mask6_1960_2067)">
<path d="M19.1167 40.3099C17.6087 37.0138 13.6604 38.2337 13.6604 38.2337" stroke="black" stroke-width="0.5" stroke-linecap="round"/>
</g>
<mask id="mask7_1960_2067" style="mask-type:luminance" maskUnits="userSpaceOnUse" x="12" y="35" width="10" height="9">
<path d="M12.6016 39.6113L15.3335 35.3849L21.9857 39.6847L19.2537 43.9112L12.6016 39.6113Z" fill="white"/>
</mask>
<g mask="url(#mask7_1960_2067)">
<path d="M18.8939 40.6574C17.0744 37.5468 14.441 40.5838 14.441 40.5838" stroke="black" stroke-width="0.5" stroke-linecap="round"/>
</g>
<path d="M22.6956 27.1215C23.7859 27.8489 24.232 29.3969 23.7839 30.6678C23.4952 29.9797 22.9828 29.3482 22.2781 28.8928C20.8621 27.9775 19.1202 28.059 18.0266 28.9877C18.4664 27.0926 20.9743 25.993 22.567 27.0413C22.6109 27.0667 22.6537 27.0934 22.6957 27.1216L22.6956 27.1215Z" fill="black" fill-opacity="0.314"/>
</svg>
