
<svg width="129" height="158" viewBox="0 0 129 158" fill="none" xmlns="http://www.w3.org/2000/svg">
<g id="RICESACK1" filter="url(#filter0_d_1893_16128)">
<path id="Vector" d="M50.754 26.0126C50.754 26.0126 24.3212 43.678 19.4826 52.1862C14.6441 60.6943 16.4622 94.1421 16.8196 102.26C17.1771 110.347 11.3962 124.894 7.33742 130.513C3.27793 136.098 2.72629 136.877 7.10996 138.176C11.4936 139.475 86.2799 150.094 91.7034 149.38C97.0936 148.665 94.3664 147.139 100.114 144.801C105.862 142.463 122.196 141.099 123.82 137.981C125.443 134.864 123.43 136.13 120.669 131.162C117.909 126.193 111.09 101.449 113.006 90.1476C114.922 78.8797 115.734 69.0075 111.772 59.8502C107.81 50.6922 90.8918 36.7613 80.7272 27.7015C92.0283 22.9929 100.147 19.4858 95.3729 16.4654C90.5993 13.4132 87.6114 19.3558 85.5983 13.6407C83.5851 7.92472 85.6632 4.87255 79.0707 5.42419C72.479 5.97659 71.4399 7.08063 65.8547 3.44357C60.2687 -0.193503 60.8211 -1.525 56.405 2.56698C51.988 6.65821 54.1961 5.32671 47.8643 4.84005C41.5643 4.35264 39.2587 4.97003 40.7202 8.70458C42.1816 12.4391 42.2134 9.45119 38.5771 12.2442C34.94 15.0364 33.836 14.8097 36.8881 17.4394C39.9403 19.9725 50.754 26.0126 50.754 26.0126Z" fill="#FCF6F2"/>
<path id="Vector_2" d="M70.4333 9.28711C69.1343 9.28711 66.6337 11.041 64.4906 11.8851C60.9186 13.3141 64.0357 23.6404 61.5352 23.6729C59.0347 23.7054 52.7028 12.4375 50.2023 11.6902C47.7018 10.9436 49.2932 16.3013 56.015 24.8094C51.988 24.0303 46.1753 14.6131 45.2987 17.6653C44.4221 20.6857 52.7678 24.9394 53.6769 25.3943C52.3129 25.2969 49.7149 24.6795 47.2144 23.9979C49.1308 25.1344 50.7215 26.011 50.7215 26.011C50.7215 26.011 43.3831 30.947 35.719 36.8247C33.7709 39.3252 32.082 42.2157 33.1535 43.0598C34.9724 44.4563 43.2856 35.3632 48.5134 30.7846C53.7419 26.1734 50.4298 28.4465 52.8653 27.8949C55.2684 27.31 53.8069 29.8105 51.5988 32.1486C49.39 34.4866 44.1947 37.9287 42.7332 39.9101C41.2717 41.8907 50.1373 36.7922 51.728 35.6557C53.3195 34.5191 56.0475 30.4271 58.9047 29.1289C61.7626 27.8299 60.3662 31.3695 59.0996 33.87C57.8331 36.3698 50.1698 42.0857 46.8252 43.8389C43.4798 45.5603 40.7851 46.5344 41.9216 48.3525C43.0582 50.1714 61.9251 38.3187 63.9057 36.3698C65.8871 34.4216 65.2048 32.441 64.2307 29.3881C63.2566 26.3359 66.6987 27.31 67.7053 28.479C68.7118 29.648 71.0824 34.6166 70.8874 37.2796C70.7257 39.9419 69.0693 39.7152 69.4592 42.1832C69.8484 44.6512 72.5764 41.0142 74.8169 36.7922C77.0575 32.571 73.128 31.4994 72.5114 28.3165C71.8947 25.1344 73.8754 27.4725 78.324 29.973C80.4996 31.207 87.1571 35.2007 93.359 38.9678C88.8778 34.8766 84.3317 30.9795 80.6621 27.6999C81.0195 27.5699 81.312 27.4075 81.6687 27.2775C81.247 25.4918 82.546 23.413 85.9881 20.6207C91.8333 15.8796 87.3521 18.6718 83.1951 18.9318C79.0707 19.1918 77.2525 24.1603 74.5245 24.2903C71.7973 24.4195 75.1744 22.114 78.7465 17.6978C82.3185 13.2816 79.2981 15.0998 75.4668 15.3597C71.6348 15.6522 70.8224 23.6404 68.2252 22.9913C65.6272 22.3414 68.8093 18.9968 70.7575 12.7292C71.6023 10.1312 71.3099 9.28711 70.4333 9.28711Z" fill="#CDBFB7"/>
<path id="Vector_3" d="M104.011 49.2305C104.108 49.4904 104.206 49.7171 104.271 49.9771C105.18 52.5426 106.219 54.9781 106.869 57.6086C107.583 60.5958 108.265 63.9405 107.064 66.8959C104.108 74.0726 91.9961 46.6649 89.6256 60.9208C88.0016 70.6954 95.0808 81.5742 88.5215 90.7639C86.2802 93.9136 71.4077 91.3806 72.3493 95.7C72.7717 97.6481 79.9809 98.1355 81.5716 98.428C84.527 98.9796 94.7559 99.0446 95.9899 102.812C97.1914 106.449 86.8976 107.325 93.0027 110.021C96.8347 111.709 104.953 103.948 105.927 112.164C106.706 118.691 106.674 133.045 100.342 136.974C98.4254 138.175 95.5032 138.305 93.3269 138.987C92.4503 139.279 89.9173 141.942 89.0082 141.585C86.021 140.416 85.5661 134.44 83.9421 132.232C75.7264 120.867 78.1945 139.085 71.6352 139.896C67.8681 140.351 64.3935 132.33 60.3016 131.616C56.5345 130.966 58.1585 133.921 55.8529 135.123C53.8073 136.227 50.0077 135.967 47.7022 136.032C41.857 136.162 17.989 135.318 4.02562 135.804C3.83066 136.941 4.73974 137.493 7.0453 138.175C11.429 139.474 86.2152 150.093 91.6387 149.379C97.0289 148.664 94.3017 147.138 100.049 144.8C105.797 142.462 122.131 141.098 123.755 137.98C125.379 134.863 123.365 136.129 120.605 131.161C117.845 126.192 111.026 101.448 112.941 90.1465C114.857 78.8787 115.669 69.0065 111.707 59.8492C110.408 56.6988 107.551 53.03 104.011 49.2305Z" fill="#CDBFB7"/>
<path id="Vector_4" d="M23.8688 54.6863C21.5307 56.1478 20.6216 57.1544 22.5048 61.538C24.3879 65.9225 56.3749 88.4265 63.1616 88.0041C69.9484 87.5824 75.1119 85.7635 72.6114 82.5813C70.1108 79.3984 37.053 69.722 44.1322 69.2671C51.2114 68.8122 71.7673 73.6508 73.6504 70.0137C75.5661 66.3766 76.3134 62.967 71.5723 62.8695C66.8312 62.7721 40.1377 64.7859 34.0976 62.3829C28.025 60.0123 27.0509 53.1924 23.8688 54.6863Z" fill="#E4D0C4"/>
<path id="Vector_5" d="M21.3329 81.736C21.3329 81.736 39.8749 104.532 48.1881 107C56.5013 109.468 85.3054 102.779 86.1827 105.149C87.0593 107.52 81.8958 110.767 77.5771 112.326C73.2576 113.885 70.6279 116.158 79.5577 117.002C88.4883 117.846 90.5014 118.073 89.9165 123.464C89.3324 128.855 88.5208 129.472 84.5588 126.322C80.5967 123.204 67.5099 118.041 68.2573 121.483C68.9714 124.893 72.2836 130.024 68.9389 129.991C65.5943 129.959 62.9963 131.939 60.5283 127.393C58.0602 122.88 22.2094 92.5489 19.8064 86.9312C17.4033 81.3785 18.3782 78.4231 21.3329 81.736Z" fill="#E4D0C4"/>
<path id="Vector_6" d="M60.2397 0.00101406C59.2656 -0.0314799 58.2916 0.715128 56.3759 2.50155C51.959 6.59277 54.1671 5.26203 47.8353 4.77462C41.5352 4.28721 39.2296 4.90459 40.6911 8.63914C42.1526 12.3737 42.1851 9.38575 38.548 12.1787C34.9759 14.9385 33.8719 14.7767 36.6966 17.2123C38.0606 15.6858 42.6717 16.4324 42.9642 14.971C43.1266 14.2568 43.2566 13.4452 43.3216 12.7304C43.3866 12.0812 43.6133 11.4639 43.6783 10.8147C43.7433 10.0681 42.9317 8.05425 43.3866 7.5351C45.1073 5.48873 46.6662 12.8928 47.4453 12.4387C49.1668 11.4314 46.6012 9.02832 47.3803 7.92428C50.6275 3.21566 56.1809 16.5949 57.4475 17.1798C58.714 17.7639 57.7716 7.69757 58.9732 6.30108C61.8636 2.92397 62.8377 7.47011 65.3057 8.11924C68.6504 8.99582 71.8333 7.11268 75.0154 7.5676C77.126 7.89178 72.1575 13.3803 73.9439 13.6402C75.7295 13.8994 76.9636 8.18423 81.7047 9.54822C83.9452 10.1973 82.452 13.4128 83.7185 14.9385C86.5757 18.3488 88.2972 16.3674 92.4209 17.1148C93.2333 17.2448 92.5834 18.7705 93.1683 19.2254C93.6874 19.6478 94.6615 19.907 95.798 20.0045C97.097 18.7055 97.097 17.504 95.3114 16.3999C90.5378 13.3478 87.5498 19.2904 85.5367 13.5752C83.5236 7.85929 85.6017 4.80711 79.0099 5.35876C72.4174 5.91116 71.3783 7.0152 65.7931 3.37813C62.6752 1.36501 61.4737 0.0335082 60.2397 0.00101406Z" fill="#E4D0C4"/>
<path id="Vector_7" d="M50.5424 25.7406C49.1134 26.4223 48.756 26.7797 50.1525 27.1371C51.5489 27.4938 81.4246 29.6694 82.1062 28.6628C82.7886 27.6888 82.7561 27.9487 81.8463 27.1371C80.9047 26.3248 56.0626 24.6691 50.5424 25.7406Z" fill="#63452C"/>
<path id="Vector_8" d="M71.375 27.2129C73.2906 30.6225 75.2395 40.2022 76.2786 47.7363C77.3176 55.2704 76.8627 62.4795 78.1942 62.447C79.5257 62.382 79.8182 62.512 79.9156 60.044C80.0131 57.576 77.3826 38.4815 75.8887 34.487C74.3947 30.525 73.6806 27.7653 73.6806 27.7653L71.375 27.2129Z" fill="#63452C"/>
<path id="Vector_9" d="M72.4453 27.2441C74.7834 30.3946 77.9655 39.6168 79.9794 46.9559C81.9925 54.2943 82.4799 61.5035 83.8114 61.2768C85.1422 61.0493 85.4346 61.1468 85.1747 58.6787C84.948 56.2107 79.8494 37.6354 77.8363 33.8692C75.8549 30.1346 74.7834 27.5041 74.7834 27.5041L72.4453 27.2441Z" fill="#63452C"/>
</g>
<defs>
<filter id="filter0_d_1893_16128" x="0" y="0" width="128.398" height="157.414" filterUnits="userSpaceOnUse" color-interpolation-filters="sRGB">
<feFlood flood-opacity="0" result="BackgroundImageFix"/>
<feColorMatrix in="SourceAlpha" type="matrix" values="0 0 0 0 0 0 0 0 0 0 0 0 0 0 0 0 0 0 127 0" result="hardAlpha"/>
<feOffset dy="4"/>
<feGaussianBlur stdDeviation="2"/>
<feComposite in2="hardAlpha" operator="out"/>
<feColorMatrix type="matrix" values="0 0 0 0 0 0 0 0 0 0 0 0 0 0 0 0 0 0 0.25 0"/>
<feBlend mode="normal" in2="BackgroundImageFix" result="effect1_dropShadow_1893_16128"/>
<feBlend mode="normal" in="SourceGraphic" in2="effect1_dropShadow_1893_16128" result="shape"/>
</filter>
</defs>
</svg>
